2, 1536, Note_on_c, 9, 38, 127
2, 1536, Note_on_c, 9, 42, 90
2, 1584, Note_off_c, 9, 38, 64
2, 1584, Note_off_c, 9, 42, 64
2, 1584, Note_on_c, 9, 38, 127
2, 1584, Note_on_c, 9, 42, 90
2, 1632, Note_off_c, 9, 38, 64
2, 1632, Note_off_c, 9, 42, 64
2, 1632, Note_on_c, 9, 38, 127
2, 1632, Note_on_c, 9, 42, 90
2, 1680, Note_off_c, 9, 38, 64
2, 1680, Note_off_c, 9, 42, 64
2, 1680, Note_on_c, 9, 38, 127
2, 1680, Note_on_c, 9, 42, 90
2, 1728, Note_off_c, 9, 38, 64
2, 1728, Note_off_c, 9, 42, 64
2, 1728, Note_on_c, 9, 42, 90
2, 1776, Note_off_c, 9, 42, 64
2, 1776, Note_on_c, 9, 42, 90
2, 1824, Note_off_c, 9, 42, 64
2, 1824, Note_on_c, 9, 38, 127
2, 1824, Note_on_c, 9, 42, 90
2, 1872, Note_off_c, 9, 38, 64
2, 1872, Note_off_c, 9, 42, 64
2, 1872, Note_on_c, 9, 42, 90
2, 1920, Note_off_c, 9, 42, 64
2, 1920, Note_on_c, 9, 42, 90
2, 1968, Note_off_c, 9, 42, 64
2, 1968, Note_on_c, 9, 42, 90
2, 2016, Note_off_c, 9, 42, 64
2, 2016, Note_on_c, 9, 42, 90
2, 2064, Note_off_c, 9, 42, 64
2, 2064, Note_on_c, 9, 42, 90
2, 2112, Note_off_c, 9, 42, 64
2, 2112, Note_on_c, 9, 42, 90
2, 2160, Note_off_c, 9, 42, 64
2, 2160, Note_on_c, 9, 42, 90
2, 2208, Note_off_c, 9, 42, 64
2, 2208, Note_on_c, 9, 42, 90
2, 2256, Note_off_c, 9, 42, 64
2, 2256, Note_on_c, 9, 42, 90
2, 2304, Note_off_c, 9, 42, 64
2, 2304, Note_on_c, 9, 38, 127
2, 2304, Note_on_c, 9, 42, 90
2, 2352, Note_off_c, 9, 38, 64
2, 2352, Note_off_c, 9, 42, 64
2, 2352, Note_on_c, 9, 38, 127
2, 2352, Note_on_c, 9, 42, 90
2, 2400, Note_off_c, 9, 38, 64
2, 2400, Note_off_c, 9, 42, 64
2, 2400, Note_on_c, 9, 38, 127
2, 2400, Note_on_c, 9, 42, 90
2, 2448, Note_off_c, 9, 38, 64
2, 2448, Note_off_c, 9, 42, 64
2, 2448, Note_on_c, 9, 42, 90
2, 2496, Note_off_c, 9, 42, 64
2, 2496, Note_on_c, 9, 42, 90
2, 2544, Note_off_c, 9, 42, 64
2, 2544, Note_on_c, 9, 42, 90
2, 2592, Note_off_c, 9, 42, 64
2, 2592, Note_on_c, 9, 42, 90
2, 2640, Note_off_c, 9, 42, 64
2, 2640, Note_on_c, 9, 42, 90
2, 2688, Note_off_c, 9, 42, 64
2, 2688, Note_on_c, 9, 38, 127
2, 2688, Note_on_c, 9, 42, 90
2, 2736, Note_off_c, 9, 38, 64
2, 2736, Note_off_c, 9, 42, 64
2, 2736, Note_on_c, 9, 38, 127
2, 2736, Note_on_c, 9, 42, 90
2, 2784, Note_off_c, 9, 38, 64
2, 2784, Note_off_c, 9, 42, 64
2, 2784, Note_on_c, 9, 38, 127
2, 2784, Note_on_c, 9, 42, 90
2, 2832, Note_off_c, 9, 38, 64
2, 2832, Note_off_c, 9, 42, 64
2, 2832, Note_on_c, 9, 42, 90
2, 2880, Note_off_c, 9, 42, 64
2, 2880, Note_on_c, 9, 42, 90
2, 2928, Note_off_c, 9, 42, 64
2, 2928, Note_on_c, 9, 42, 90
2, 2976, Note_off_c, 9, 42, 64
2, 2976, Note_on_c, 9, 42, 90
2, 3024, Note_off_c, 9, 42, 64
2, 3024, Note_on_c, 9, 42, 90
2, 3072, Note_off_c, 9, 42, 64
2, 3072, Note_on_c, 9, 38, 127
2, 3072, Note_on_c, 9, 42, 90
2, 3120, Note_off_c, 9, 38, 64
2, 3120, Note_off_c, 9, 42, 64
2, 3120, Note_on_c, 9, 38, 127
2, 3120, Note_on_c, 9, 42, 90
2, 3168, Note_off_c, 9, 38, 64
2, 3168, Note_off_c, 9, 42, 64
2, 3168, Note_on_c, 9, 38, 127
2, 3168, Note_on_c, 9, 42, 90
2, 3216, Note_off_c, 9, 38, 64
2, 3216, Note_off_c, 9, 42, 64
2, 3216, Note_on_c, 9, 38, 127
2, 3216, Note_on_c, 9, 42, 90
2, 3264, Note_off_c, 9, 38, 64
2, 3264, Note_off_c, 9, 42, 64
2, 3264, Note_on_c, 9, 42, 90
2, 3312, Note_off_c, 9, 42, 64
2, 3312, Note_on_c, 9, 42, 90
2, 3360, Note_off_c, 9, 42, 64
2, 3360, Note_on_c, 9, 38, 127
2, 3360, Note_on_c, 9, 42, 90
2, 3408, Note_off_c, 9, 38, 64
2, 3408, Note_off_c, 9, 42, 64
2, 3408, Note_on_c, 9, 42, 90
2, 3456, Note_off_c, 9, 42, 64
2, 3456, Note_on_c, 9, 42, 90
2, 3504, Note_off_c, 9, 42, 64
2, 3504, Note_on_c, 9, 42, 90
2, 3552, Note_off_c, 9, 42, 64
2, 3552, Note_on_c, 9, 42, 90
2, 3600, Note_off_c, 9, 42, 64
2, 3600, Note_on_c, 9, 42, 90
2, 3648, Note_off_c, 9, 42, 64
2, 3648, Note_on_c, 9, 42, 90
2, 3696, Note_off_c, 9, 42, 64
2, 3696, Note_on_c, 9, 42, 90
2, 3744, Note_off_c, 9, 42, 64
2, 3744, Note_on_c, 9, 42, 90
2, 3792, Note_off_c, 9, 42, 64
2, 3792, Note_on_c, 9, 42, 90
2, 3840, Note_off_c, 9, 42, 64
2, 3840, Note_on_c, 9, 38, 127
2, 3840, Note_on_c, 9, 42, 90
2, 3888, Note_off_c, 9, 38, 64
2, 3888, Note_off_c, 9, 42, 64
2, 3888, Note_on_c, 9, 38, 127
2, 3888, Note_on_c, 9, 42, 90
2, 3936, Note_off_c, 9, 38, 64
2, 3936, Note_off_c, 9, 42, 64
2, 3936, Note_on_c, 9, 38, 127
2, 3936, Note_on_c, 9, 42, 90
2, 3984, Note_off_c, 9, 38, 64
2, 3984, Note_off_c, 9, 42, 64
2, 3984, Note_on_c, 9, 42, 90
2, 4032, Note_off_c, 9, 42, 64
2, 4032, Note_on_c, 9, 42, 90
2, 4080, Note_off_c, 9, 42, 64
2, 4080, Note_on_c, 9, 42, 90
2, 4128, Note_off_c, 9, 42, 64
2, 4128, Note_on_c, 9, 42, 90
2, 4176, Note_off_c, 9, 42, 64
2, 4176, Note_on_c, 9, 42, 90
2, 4224, Note_off_c, 9, 42, 64
2, 4224, Note_on_c, 9, 38, 127
2, 4224, Note_on_c, 9, 42, 90
2, 4272, Note_off_c, 9, 38, 64
2, 4272, Note_off_c, 9, 42, 64
2, 4272, Note_on_c, 9, 38, 127
2, 4272, Note_on_c, 9, 42, 90
2, 4320, Note_off_c, 9, 38, 64
2, 4320, Note_off_c, 9, 42, 64
2, 4320, Note_on_c, 9, 38, 127
2, 4320, Note_on_c, 9, 42, 90
2, 4368, Note_off_c, 9, 38, 64
2, 4368, Note_off_c, 9, 42, 64
2, 4368, Note_on_c, 9, 42, 90
2, 4416, Note_off_c, 9, 42, 64
2, 4416, Note_on_c, 9, 42, 90
2, 4464, Note_off_c, 9, 42, 64
2, 4464, Note_on_c, 9, 42, 90
2, 4512, Note_off_c, 9, 42, 64
2, 4512, Note_on_c, 9, 38, 127
2, 4512, Note_on_c, 9, 42, 90
2, 4560, Note_off_c, 9, 38, 64
2, 4560, Note_off_c, 9, 42, 64
2, 4560, Note_on_c, 9, 42, 90
2, 4608, Note_off_c, 9, 42, 64
2, 4608, Note_on_c, 9, 42, 90
2, 4656, Note_off_c, 9, 42, 64
2, 4656, Note_on_c, 9, 42, 90
2, 4704, Note_off_c, 9, 42, 64
2, 4704, Note_on_c, 9, 42, 90
2, 4752, Note_off_c, 9, 42, 64
2, 4752, Note_on_c, 9, 42, 90
2, 4800, Note_off_c, 9, 42, 64
2, 4800, Note_on_c, 9, 42, 90
2, 4848, Note_off_c, 9, 42, 64
2, 4848, Note_on_c, 9, 42, 90
2, 4896, Note_off_c, 9, 42, 64
2, 4896, Note_on_c, 9, 42, 90
2, 4944, Note_off_c, 9, 42, 64
2, 4944, Note_on_c, 9, 42, 90
2, 4992, Note_off_c, 9, 42, 64
2, 4992, Note_on_c, 9, 42, 90
2, 5040, Note_off_c, 9, 42, 64
2, 5040, Note_on_c, 9, 42, 90
2, 5088, Note_off_c, 9, 42, 64
2, 5088, Note_on_c, 9, 42, 90
2, 5136, Note_off_c, 9, 42, 64
2, 5136, Note_on_c, 9, 42, 90
2, 5184, Note_off_c, 9, 42, 64
2, 5184, Note_on_c, 9, 42, 90
2, 5232, Note_off_c, 9, 42, 64
2, 5232, Note_on_c, 9, 42, 90
2, 5280, Note_off_c, 9, 42, 64
2, 5280, Note_on_c, 9, 38, 127
2, 5280, Note_on_c, 9, 42, 90
2, 5328, Note_off_c, 9, 38, 64
2, 5328, Note_off_c, 9, 42, 64
2, 5328, Note_on_c, 9, 42, 90
2, 5376, Note_off_c, 9, 42, 64
2, 5376, Note_on_c, 9, 42, 90
2, 5424, Note_off_c, 9, 42, 64
2, 5424, Note_on_c, 9, 42, 90
2, 5472, Note_off_c, 9, 42, 64
2, 5472, Note_on_c, 9, 42, 90
2, 5520, Note_off_c, 9, 42, 64
2, 5520, Note_on_c, 9, 42, 90
2, 5568, Note_off_c, 9, 42, 64
2, 5568, Note_on_c, 9, 42, 90
2, 5616, Note_off_c, 9, 42, 64
2, 5616, Note_on_c, 9, 42, 90
2, 5664, Note_off_c, 9, 42, 64
2, 5664, Note_on_c, 9, 42, 90
2, 5712, Note_off_c, 9, 42, 64
2, 5712, Note_on_c, 9, 42, 90
2, 5760, Note_off_c, 9, 42, 64
2, 5760, Note_on_c, 9, 42, 90
2, 5808, Note_off_c, 9, 42, 64
2, 5808, Note_on_c, 9, 42, 90
2, 5856, Note_off_c, 9, 42, 64
2, 5856, Note_on_c, 9, 42, 90
2, 5904, Note_off_c, 9, 42, 64
2, 5904, Note_on_c, 9, 42, 90
2, 5952, Note_off_c, 9, 42, 64
2, 5952, Note_on_c, 9, 38, 127
2, 5952, Note_on_c, 9, 42, 90
2, 6000, Note_off_c, 9, 38, 64
2, 6000, Note_off_c, 9, 42, 64
2, 6000, Note_on_c, 9, 38, 127
2, 6000, Note_on_c, 9, 42, 90
2, 6048, Note_off_c, 9, 38, 64
2, 6048, Note_off_c, 9, 42, 64
2, 6048, Note_on_c, 9, 38, 127
2, 6048, Note_on_c, 9, 42, 90
2, 6096, Note_off_c, 9, 38, 64
2, 6096, Note_off_c, 9, 42, 64
2, 6096, Note_on_c, 9, 42, 90
2, 6144, Note_off_c, 9, 42, 64
2, 6144, Note_on_c, 9, 42, 90
2, 6192, Note_off_c, 9, 42, 64
2, 6192, Note_on_c, 9, 42, 90
2, 6240, Note_off_c, 9, 42, 64
2, 6240, Note_on_c, 9, 42, 90
2, 6288, Note_off_c, 9, 42, 64
2, 6288, Note_on_c, 9, 42, 90
2, 6336, Note_off_c, 9, 42, 64
2, 6336, Note_on_c, 9, 42, 90
2, 6384, Note_off_c, 9, 42, 64
2, 6384, Note_on_c, 9, 42, 90
2, 6432, Note_off_c, 9, 42, 64
2, 6432, Note_on_c, 9, 42, 90
2, 6480, Note_off_c, 9, 42, 64
2, 6480, Note_on_c, 9, 42, 90
2, 6528, Note_off_c, 9, 42, 64
2, 6528, Note_on_c, 9, 42, 90
2, 6576, Note_off_c, 9, 42, 64
2, 6576, Note_on_c, 9, 42, 90
2, 6624, Note_off_c, 9, 42, 64
2, 6624, Note_on_c, 9, 42, 90
2, 6672, Note_off_c, 9, 42, 64
2, 6672, Note_on_c, 9, 42, 90
2, 6720, Note_off_c, 9, 42, 64
2, 6720, Note_on_c, 9, 42, 90
2, 6768, Note_off_c, 9, 42, 64
2, 6768, Note_on_c, 9, 42, 90
2, 6816, Note_off_c, 9, 42, 64
2, 6816, Note_on_c, 9, 38, 127
2, 6816, Note_on_c, 9, 42, 90
2, 6864, Note_off_c, 9, 38, 64
2, 6864, Note_off_c, 9, 42, 64
2, 6864, Note_on_c, 9, 42, 90
2, 6912, Note_off_c, 9, 42, 64
2, 6912, Note_on_c, 9, 42, 90
2, 6960, Note_off_c, 9, 42, 64
2, 6960, Note_on_c, 9, 42, 90
2, 7008, Note_off_c, 9, 42, 64
2, 7008, Note_on_c, 9, 42, 90
2, 7056, Note_off_c, 9, 42, 64
2, 7056, Note_on_c, 9, 42, 90
2, 7104, Note_off_c, 9, 42, 64
2, 7104, Note_on_c, 9, 42, 90
2, 7152, Note_off_c, 9, 42, 64
2, 7152, Note_on_c, 9, 42, 90
2, 7200, Note_off_c, 9, 42, 64
2, 7200, Note_on_c, 9, 42, 90
2, 7248, Note_off_c, 9, 42, 64
2, 7248, Note_on_c, 9, 42, 90
2, 7296, Note_off_c, 9, 42, 64
2, 7296, Note_on_c, 9, 42, 90
2, 7344, Note_off_c, 9, 42, 64
2, 7344, Note_on_c, 9, 42, 90
2, 7392, Note_off_c, 9, 42, 64
2, 7392, Note_on_c, 9, 42, 90
2, 7440, Note_off_c, 9, 42, 64
2, 7440, Note_on_c, 9, 42, 90
2, 7488, Note_off_c, 9, 42, 64
2, 7488, Note_on_c, 9, 38, 127
2, 7488, Note_on_c, 9, 42, 90
2, 7536, Note_off_c, 9, 38, 64
2, 7536, Note_off_c, 9, 42, 64
2, 7536, Note_on_c, 9, 38, 127
2, 7536, Note_on_c, 9, 42, 90
2, 7584, Note_off_c, 9, 38, 64
2, 7584, Note_off_c, 9, 42, 64
2, 7584, Note_on_c, 9, 38, 127
2, 7584, Note_on_c, 9, 42, 90
2, 7632, Note_off_c, 9, 38, 64
2, 7632, Note_off_c, 9, 42, 64
2, 7632, Note_on_c, 9, 42, 90
2, 7680, Note_off_c, 9, 42, 64
2, 7680, Note_on_c, 9, 42, 90
2, 7728, Note_off_c, 9, 42, 64
2, 7728, Note_on_c, 9, 42, 90
2, 7776, Note_off_c, 9, 42, 64
2, 7776, Note_on_c, 9, 42, 90
2, 7824, Note_off_c, 9, 42, 64
2, 7824, Note_on_c, 9, 42, 90
2, 7872, Note_off_c, 9, 42, 64
2, 7872, Note_on_c, 9, 42, 90
2, 7920, Note_off_c, 9, 42, 64
2, 7920, Note_on_c, 9, 42, 90
2, 7968, Note_off_c, 9, 42, 64
2, 7968, Note_on_c, 9, 42, 90
2, 8016, Note_off_c, 9, 42, 64
2, 8016, Note_on_c, 9, 42, 90
2, 8064, Note_off_c, 9, 42, 64
2, 8064, Note_on_c, 9, 42, 90
2, 8112, Note_off_c, 9, 42, 64
2, 8112, Note_on_c, 9, 42, 90
2, 8160, Note_off_c, 9, 42, 64
2, 8160, Note_on_c, 9, 42, 90
2, 8208, Note_off_c, 9, 42, 64
2, 8208, Note_on_c, 9, 42, 90
2, 8256, Note_off_c, 9, 42, 64
2, 8256, Note_on_c, 9, 42, 90
2, 8304, Note_off_c, 9, 42, 64
2, 8304, Note_on_c, 9, 42, 90
2, 8352, Note_off_c, 9, 42, 64
2, 8352, Note_on_c, 9, 38, 127
2, 8352, Note_on_c, 9, 42, 90
2, 8400, Note_off_c, 9, 38, 64
2, 8400, Note_off_c, 9, 42, 64
2, 8400, Note_on_c, 9, 42, 90
2, 8448, Note_off_c, 9, 42, 64
2, 8448, Note_on_c, 9, 42, 90
2, 8496, Note_off_c, 9, 42, 64
2, 8496, Note_on_c, 9, 42, 90
2, 8544, Note_off_c, 9, 42, 64
2, 8544, Note_on_c, 9, 42, 90
2, 8592, Note_off_c, 9, 42, 64
2, 8592, Note_on_c, 9, 42, 90
2, 8640, Note_off_c, 9, 42, 64
2, 8640, Note_on_c, 9, 42, 90
2, 8688, Note_off_c, 9, 42, 64
2, 8688, Note_on_c, 9, 42, 90
2, 8736, Note_off_c, 9, 42, 64
2, 8736, Note_on_c, 9, 42, 90
2, 8784, Note_off_c, 9, 42, 64
2, 8784, Note_on_c, 9, 42, 90
2, 8832, Note_off_c, 9, 42, 64
2, 8832, Note_on_c, 9, 42, 90
2, 8880, Note_off_c, 9, 42, 64
2, 8880, Note_on_c, 9, 42, 90
2, 8928, Note_off_c, 9, 42, 64
2, 8928, Note_on_c, 9, 42, 90
2, 8976, Note_off_c, 9, 42, 64
2, 8976, Note_on_c, 9, 42, 90
2, 9024, Note_off_c, 9, 42, 64
2, 9024, Note_on_c, 9, 38, 127
2, 9024, Note_on_c, 9, 42, 90
2, 9072, Note_off_c, 9, 38, 64
2, 9072, Note_off_c, 9, 42, 64
2, 9072, Note_on_c, 9, 38, 127
2, 9072, Note_on_c, 9, 42, 90
2, 9120, Note_off_c, 9, 38, 64
2, 9120, Note_off_c, 9, 42, 64
2, 9120, Note_on_c, 9, 38, 127
2, 9120, Note_on_c, 9, 42, 90
2, 9168, Note_off_c, 9, 38, 64
2, 9168, Note_off_c, 9, 42, 64
2, 9168, Note_on_c, 9, 42, 90
2, 9216, Note_off_c, 9, 42, 64
2, 9216, Note_on_c, 9, 42, 90
2, 9264, Note_off_c, 9, 42, 64
2, 9264, Note_on_c, 9, 42, 90
2, 9312, Note_off_c, 9, 42, 64
2, 9312, Note_on_c, 9, 42, 90
2, 9360, Note_off_c, 9, 42, 64
2, 9360, Note_on_c, 9, 42, 90
2, 9408, Note_off_c, 9, 42, 64
2, 9408, Note_on_c, 9, 42, 90
2, 9456, Note_off_c, 9, 42, 64
2, 9456, Note_on_c, 9, 42, 90
2, 9504, Note_off_c, 9, 42, 64
2, 9504, Note_on_c, 9, 42, 90
2, 9552, Note_off_c, 9, 42, 64
2, 9552, Note_on_c, 9, 42, 90
2, 9600, Note_off_c, 9, 42, 64
2, 9600, Note_on_c, 9, 42, 90
2, 9648, Note_off_c, 9, 42, 64
2, 9648, Note_on_c, 9, 42, 90
2, 9696, Note_off_c, 9, 42, 64
2, 9696, Note_on_c, 9, 42, 90
2, 9744, Note_off_c, 9, 42, 64
2, 9744, Note_on_c, 9, 42, 90
2, 9792, Note_off_c, 9, 42, 64
2, 9792, Note_on_c, 9, 42, 90
2, 9840, Note_off_c, 9, 42, 64
2, 9840, Note_on_c, 9, 42, 90
2, 9888, Note_off_c, 9, 42, 64
2, 9888, Note_on_c, 9, 38, 127
2, 9888, Note_on_c, 9, 42, 90
2, 9936, Note_off_c, 9, 38, 64
2, 9936, Note_off_c, 9, 42, 64
2, 9936, Note_on_c, 9, 42, 90
2, 9984, Note_off_c, 9, 42, 64
2, 9984, Note_on_c, 9, 42, 90
2, 10032, Note_off_c, 9, 42, 64
2, 10032, Note_on_c, 9, 42, 90
2, 10080, Note_off_c, 9, 42, 64
2, 10080, Note_on_c, 9, 42, 90
2, 10128, Note_off_c, 9, 42, 64
2, 10128, Note_on_c, 9, 42, 90
2, 10176, Note_off_c, 9, 42, 64
2, 10176, Note_on_c, 9, 42, 90
2, 10224, Note_off_c, 9, 42, 64
2, 10224, Note_on_c, 9, 42, 90
2, 10272, Note_off_c, 9, 42, 64
2, 10272, Note_on_c, 9, 42, 90
2, 10320, Note_off_c, 9, 42, 64
2, 10320, Note_on_c, 9, 42, 90
2, 10368, Note_off_c, 9, 42, 64
2, 10368, Note_on_c, 9, 42, 90
2, 10416, Note_off_c, 9, 42, 64
2, 10416, Note_on_c, 9, 42, 90
2, 10464, Note_off_c, 9, 42, 64
2, 10464, Note_on_c, 9, 42, 90
2, 10512, Note_off_c, 9, 42, 64
2, 10512, Note_on_c, 9, 42, 90
2, 10560, Note_off_c, 9, 42, 64
2, 10560, Note_on_c, 9, 38, 127
2, 10560, Note_on_c, 9, 42, 90
2, 10608, Note_off_c, 9, 38, 64
2, 10608, Note_off_c, 9, 42, 64
2, 10608, Note_on_c, 9, 38, 127
2, 10608, Note_on_c, 9, 42, 90
2, 10656, Note_off_c, 9, 38, 64
2, 10656, Note_off_c, 9, 42, 64
2, 10656, Note_on_c, 9, 38, 127
2, 10656, Note_on_c, 9, 42, 90
2, 10704, Note_off_c, 9, 38, 64
2, 10704, Note_off_c, 9, 42, 64
2, 10704, Note_on_c, 9, 42, 90
2, 10752, Note_off_c, 9, 42, 64
2, 10752, Note_on_c, 9, 42, 90
2, 10800, Note_off_c, 9, 42, 64
2, 10800, Note_on_c, 9, 42, 90
2, 10848, Note_off_c, 9, 42, 64
2, 10848, Note_on_c, 9, 42, 90
2, 10896, Note_off_c, 9, 42, 64
2, 10896, Note_on_c, 9, 42, 90
2, 10944, Note_off_c, 9, 42, 64
2, 10944, Note_on_c, 9, 42, 90
2, 10992, Note_off_c, 9, 42, 64
2, 10992, Note_on_c, 9, 42, 90
2, 11040, Note_off_c, 9, 42, 64
2, 11040, Note_on_c, 9, 42, 90
2, 11088, Note_off_c, 9, 42, 64
2, 11088, Note_on_c, 9, 42, 90
2, 11136, Note_off_c, 9, 42, 64
2, 11136, Note_on_c, 9, 42, 90
2, 11184, Note_off_c, 9, 42, 64
2, 11184, Note_on_c, 9, 42, 90
2, 11232, Note_off_c, 9, 42, 64
2, 11232, Note_on_c, 9, 42, 90
2, 11280, Note_off_c, 9, 42, 64
2, 11280, Note_on_c, 9, 42, 90
2, 11328, Note_off_c, 9, 42, 64
2, 11328, Note_on_c, 9, 42, 90
2, 11376, Note_off_c, 9, 42, 64
2, 11376, Note_on_c, 9, 42, 90
2, 11424, Note_off_c, 9, 42, 64
2, 11424, Note_on_c, 9, 38, 127
2, 11424, Note_on_c, 9, 42, 90
2, 11472, Note_off_c, 9, 38, 64
2, 11472, Note_off_c, 9, 42, 64
2, 11472, Note_on_c, 9, 42, 90
2, 11520, Note_off_c, 9, 42, 64
2, 11520, Note_on_c, 9, 42, 90
2, 11568, Note_off_c, 9, 42, 64
2, 11568, Note_on_c, 9, 42, 90
2, 11616, Note_off_c, 9, 42, 64
2, 11616, Note_on_c, 9, 42, 90
2, 11664, Note_off_c, 9, 42, 64
2, 11664, Note_on_c, 9, 42, 90
2, 11712, Note_off_c, 9, 42, 64
2, 11712, Note_on_c, 9, 42, 90
2, 11760, Note_off_c, 9, 42, 64
2, 11760, Note_on_c, 9, 42, 90
2, 11808, Note_off_c, 9, 42, 64
2, 11808, Note_on_c, 9, 42, 90
2, 11856, Note_off_c, 9, 42, 64
2, 11856, Note_on_c, 9, 42, 90
2, 11904, Note_off_c, 9, 42, 64
2, 11904, Note_on_c, 9, 42, 90
2, 11952, Note_off_c, 9, 42, 64
2, 11952, Note_on_c, 9, 42, 90
2, 12000, Note_off_c, 9, 42, 64
2, 12000, Note_on_c, 9, 42, 90
2, 12048, Note_off_c, 9, 42, 64
2, 12048, Note_on_c, 9, 42, 90
2, 12096, Note_off_c, 9, 42, 64
2, 12096, Note_on_c, 9, 38, 127
2, 12096, Note_on_c, 9, 42, 90
2, 12144, Note_off_c, 9, 38, 64
2, 12144, Note_off_c, 9, 42, 64
2, 12144, Note_on_c, 9, 38, 127
2, 12144, Note_on_c, 9, 42, 90
2, 12192, Note_off_c, 9, 38, 64
2, 12192, Note_off_c, 9, 42, 64
2, 12192, Note_on_c, 9, 38, 127
2, 12192, Note_on_c, 9, 42, 90
2, 12240, Note_off_c, 9, 38, 64
2, 12240, Note_off_c, 9, 42, 64
2, 12240, Note_on_c, 9, 42, 90
2, 12288, Note_off_c, 9, 42, 64
2, 12288, Note_on_c, 9, 42, 90
2, 12336, Note_off_c, 9, 42, 64
2, 12336, Note_on_c, 9, 42, 90
2, 12384, Note_off_c, 9, 42, 64
2, 12384, Note_on_c, 9, 42, 90
2, 12432, Note_off_c, 9, 42, 64
2, 12432, Note_on_c, 9, 42, 90
2, 12480, Note_off_c, 9, 42, 64
2, 12480, Note_on_c, 9, 42, 90
2, 12528, Note_off_c, 9, 42, 64
2, 12528, Note_on_c, 9, 42, 90
2, 12576, Note_off_c, 9, 42, 64
2, 12576, Note_on_c, 9, 42, 90
2, 12624, Note_off_c, 9, 42, 64
2, 12624, Note_on_c, 9, 42, 90
2, 12672, Note_off_c, 9, 42, 64
2, 12672, Note_on_c, 9, 42, 90
2, 12720, Note_off_c, 9, 42, 64
2, 12720, Note_on_c, 9, 42, 90
2, 12768, Note_off_c, 9, 42, 64
2, 12768, Note_on_c, 9, 42, 90
2, 12816, Note_off_c, 9, 42, 64
2, 12816, Note_on_c, 9, 42, 90
2, 12864, Note_off_c, 9, 42, 64
2, 12864, Note_on_c, 9, 42, 90
2, 12912, Note_off_c, 9, 42, 64
2, 12912, Note_on_c, 9, 42, 90
2, 12960, Note_off_c, 9, 42, 64
2, 12960, Note_on_c, 9, 38, 127
2, 12960, Note_on_c, 9, 42, 90
2, 13008, Note_off_c, 9, 38, 64
2, 13008, Note_off_c, 9, 42, 64
2, 13008, Note_on_c, 9, 42, 90
2, 13056, Note_off_c, 9, 42, 64
2, 13056, Note_on_c, 9, 42, 90
2, 13104, Note_off_c, 9, 42, 64
2, 13104, Note_on_c, 9, 42, 90
2, 13152, Note_off_c, 9, 42, 64
2, 13152, Note_on_c, 9, 42, 90
2, 13200, Note_off_c, 9, 42, 64
2, 13200, Note_on_c, 9, 42, 90
2, 13248, Note_off_c, 9, 42, 64
2, 13248, Note_on_c, 9, 42, 90
2, 13296, Note_off_c, 9, 42, 64
2, 13296, Note_on_c, 9, 42, 90
2, 13344, Note_off_c, 9, 42, 64
2, 13344, Note_on_c, 9, 42, 90
2, 13392, Note_off_c, 9, 42, 64
2, 13392, Note_on_c, 9, 42, 90
2, 13440, Note_off_c, 9, 42, 64
2, 13440, Note_on_c, 9, 42, 90
2, 13488, Note_off_c, 9, 42, 64
2, 13488, Note_on_c, 9, 42, 90
2, 13536, Note_off_c, 9, 42, 64
2, 13536, Note_on_c, 9, 42, 90
2, 13584, Note_off_c, 9, 42, 64
2, 13584, Note_on_c, 9, 42, 90
2, 13632, Note_off_c, 9, 42, 64
2, 13632, Note_on_c, 9, 42, 90
2, 13680, Note_off_c, 9, 42, 64
2, 13680, Note_on_c, 9, 42, 90
2, 13728, Note_off_c, 9, 42, 64
2, 13728, Note_on_c, 9, 42, 90
2, 13776, Note_off_c, 9, 42, 64
2, 13776, Note_on_c, 9, 42, 90
2, 13824, Note_off_c, 9, 42, 64
2, 13824, Note_on_c, 9, 38, 127
2, 13824, Note_on_c, 9, 42, 90
2, 13872, Note_off_c, 9, 38, 64
2, 13872, Note_off_c, 9, 42, 64
2, 13872, Note_on_c, 9, 38, 127
2, 13872, Note_on_c, 9, 42, 90
2, 13920, Note_off_c, 9, 38, 64
2, 13920, Note_off_c, 9, 42, 64
2, 13920, Note_on_c, 9, 38, 127
2, 13920, Note_on_c, 9, 42, 90
2, 13968, Note_off_c, 9, 38, 64
2, 13968, Note_off_c, 9, 42, 64
2, 13968, Note_on_c, 9, 38, 127
2, 13968, Note_on_c, 9, 42, 90
2, 14016, Note_off_c, 9, 38, 64
2, 14016, Note_off_c, 9, 42, 64
2, 14016, Note_on_c, 9, 42, 90
2, 14064, Note_off_c, 9, 42, 64
2, 14064, Note_on_c, 9, 42, 90
2, 14112, Note_off_c, 9, 42, 64
2, 14112, Note_on_c, 9, 38, 127
2, 14112, Note_on_c, 9, 42, 90
2, 14160, Note_off_c, 9, 38, 64
2, 14160, Note_off_c, 9, 42, 64
2, 14160, Note_on_c, 9, 42, 90
2, 14208, Note_off_c, 9, 42, 64
2, 14208, Note_on_c, 9, 42, 90
2, 14256, Note_off_c, 9, 42, 64
2, 14256, Note_on_c, 9, 42, 90
2, 14304, Note_off_c, 9, 42, 64
2, 14304, Note_on_c, 9, 42, 90
2, 14352, Note_off_c, 9, 42, 64
2, 14352, Note_on_c, 9, 42, 90
2, 14400, Note_off_c, 9, 42, 64
2, 14400, Note_on_c, 9, 42, 90
2, 14448, Note_off_c, 9, 42, 64
2, 14448, Note_on_c, 9, 42, 90
2, 14496, Note_off_c, 9, 42, 64
2, 14496, Note_on_c, 9, 42, 90
2, 14544, Note_off_c, 9, 42, 64
2, 14544, Note_on_c, 9, 42, 90
2, 14592, Note_off_c, 9, 42, 64
2, 14592, Note_on_c, 9, 38, 127
2, 14592, Note_on_c, 9, 42, 90
2, 14640, Note_off_c, 9, 38, 64
2, 14640, Note_off_c, 9, 42, 64
2, 14640, Note_on_c, 9, 38, 127
2, 14640, Note_on_c, 9, 42, 90
2, 14688, Note_off_c, 9, 38, 64
2, 14688, Note_off_c, 9, 42, 64
2, 14688, Note_on_c, 9, 38, 127
2, 14688, Note_on_c, 9, 42, 90
2, 14736, Note_off_c, 9, 38, 64
2, 14736, Note_off_c, 9, 42, 64
2, 14736, Note_on_c, 9, 42, 90
2, 14784, Note_off_c, 9, 42, 64
2, 14784, Note_on_c, 9, 42, 90
2, 14832, Note_off_c, 9, 42, 64
2, 14832, Note_on_c, 9, 42, 90
2, 14880, Note_off_c, 9, 42, 64
2, 14880, Note_on_c, 9, 42, 90
2, 14928, Note_off_c, 9, 42, 64
2, 14928, Note_on_c, 9, 42, 90
2, 14976, Note_off_c, 9, 42, 64
2, 14976, Note_on_c, 9, 38, 127
2, 14976, Note_on_c, 9, 42, 90
2, 15024, Note_off_c, 9, 38, 64
2, 15024, Note_off_c, 9, 42, 64
2, 15024, Note_on_c, 9, 38, 127
2, 15024, Note_on_c, 9, 42, 90
2, 15072, Note_off_c, 9, 38, 64
2, 15072, Note_off_c, 9, 42, 64
2, 15072, Note_on_c, 9, 38, 127
2, 15072, Note_on_c, 9, 42, 90
2, 15120, Note_off_c, 9, 38, 64
2, 15120, Note_off_c, 9, 42, 64
2, 15120, Note_on_c, 9, 42, 90
2, 15168, Note_off_c, 9, 42, 64
2, 15168, Note_on_c, 9, 42, 90
2, 15216, Note_off_c, 9, 42, 64
2, 15216, Note_on_c, 9, 42, 90
2, 15264, Note_off_c, 9, 42, 64
2, 15264, Note_on_c, 9, 42, 90
2, 15312, Note_off_c, 9, 42, 64
2, 15312, Note_on_c, 9, 42, 90
2, 15360, Note_off_c, 9, 42, 64
2, 15360, Note_on_c, 9, 38, 127
2, 15360, Note_on_c, 9, 42, 90
2, 15408, Note_off_c, 9, 38, 64
2, 15408, Note_off_c, 9, 42, 64
2, 15408, Note_on_c, 9, 38, 127
2, 15408, Note_on_c, 9, 42, 90
2, 15456, Note_off_c, 9, 38, 64
2, 15456, Note_off_c, 9, 42, 64
2, 15456, Note_on_c, 9, 38, 127
2, 15456, Note_on_c, 9, 42, 90
2, 15504, Note_off_c, 9, 38, 64
2, 15504, Note_off_c, 9, 42, 64
2, 15504, Note_on_c, 9, 38, 127
2, 15504, Note_on_c, 9, 42, 90
2, 15552, Note_off_c, 9, 38, 64
2, 15552, Note_off_c, 9, 42, 64
2, 15552, Note_on_c, 9, 42, 90
2, 15600, Note_off_c, 9, 42, 64
2, 15600, Note_on_c, 9, 42, 90
2, 15648, Note_off_c, 9, 42, 64
2, 15648, Note_on_c, 9, 38, 127
2, 15648, Note_on_c, 9, 42, 90
2, 15696, Note_off_c, 9, 38, 64
2, 15696, Note_off_c, 9, 42, 64
2, 15696, Note_on_c, 9, 42, 90
2, 15744, Note_off_c, 9, 42, 64
2, 15744, Note_on_c, 9, 42, 90
2, 15792, Note_off_c, 9, 42, 64
2, 15792, Note_on_c, 9, 42, 90
2, 15840, Note_off_c, 9, 42, 64
2, 15840, Note_on_c, 9, 42, 90
2, 15888, Note_off_c, 9, 42, 64
2, 15888, Note_on_c, 9, 42, 90
2, 15936, Note_off_c, 9, 42, 64
2, 15936, Note_on_c, 9, 42, 90
2, 15984, Note_off_c, 9, 42, 64
2, 15984, Note_on_c, 9, 42, 90
2, 16032, Note_off_c, 9, 42, 64
2, 16032, Note_on_c, 9, 42, 90
2, 16080, Note_off_c, 9, 42, 64
2, 16080, Note_on_c, 9, 42, 90
2, 16128, Note_off_c, 9, 42, 64
2, 16128, Note_on_c, 9, 38, 127
2, 16128, Note_on_c, 9, 42, 90
2, 16176, Note_off_c, 9, 38, 64
2, 16176, Note_off_c, 9, 42, 64
2, 16176, Note_on_c, 9, 38, 127
2, 16176, Note_on_c, 9, 42, 90
2, 16224, Note_off_c, 9, 38, 64
2, 16224, Note_off_c, 9, 42, 64
2, 16224, Note_on_c, 9, 38, 127
2, 16224, Note_on_c, 9, 42, 90
2, 16272, Note_off_c, 9, 38, 64
2, 16272, Note_off_c, 9, 42, 64
2, 16272, Note_on_c, 9, 42, 90
2, 16320, Note_off_c, 9, 42, 64
2, 16320, Note_on_c, 9, 42, 90
2, 16368, Note_off_c, 9, 42, 64
2, 16368, Note_on_c, 9, 42, 90
2, 16416, Note_off_c, 9, 42, 64
2, 16416, Note_on_c, 9, 42, 90
2, 16464, Note_off_c, 9, 42, 64
2, 16464, Note_on_c, 9, 42, 90
2, 16512, Note_off_c, 9, 42, 64
2, 16512, Note_on_c, 9, 38, 127
2, 16512, Note_on_c, 9, 42, 90
2, 16560, Note_off_c, 9, 38, 64
2, 16560, Note_off_c, 9, 42, 64
2, 16560, Note_on_c, 9, 38, 127
2, 16560, Note_on_c, 9, 42, 90
2, 16608, Note_off_c, 9, 38, 64
2, 16608, Note_off_c, 9, 42, 64
2, 16608, Note_on_c, 9, 38, 127
2, 16608, Note_on_c, 9, 42, 90
2, 16656, Note_off_c, 9, 38, 64
2, 16656, Note_off_c, 9, 42, 64
2, 16656, Note_on_c, 9, 42, 90
2, 16704, Note_off_c, 9, 42, 64
2, 16704, Note_on_c, 9, 42, 90
2, 16752, Note_off_c, 9, 42, 64
2, 16752, Note_on_c, 9, 42, 90
2, 16800, Note_off_c, 9, 42, 64
2, 16800, Note_on_c, 9, 42, 90
2, 16848, Note_off_c, 9, 42, 64
2, 16848, Note_on_c, 9, 42, 90
2, 16896, Note_off_c, 9, 42, 64
2, 16896, Note_on_c, 9, 38, 127
2, 16896, Note_on_c, 9, 42, 90
2, 16944, Note_off_c, 9, 38, 64
2, 16944, Note_off_c, 9, 42, 64
2, 16944, Note_on_c, 9, 38, 127
2, 16944, Note_on_c, 9, 42, 90
2, 16992, Note_off_c, 9, 38, 64
2, 16992, Note_off_c, 9, 42, 64
2, 16992, Note_on_c, 9, 38, 127
2, 16992, Note_on_c, 9, 42, 90
2, 17040, Note_off_c, 9, 38, 64
2, 17040, Note_off_c, 9, 42, 64
2, 17040, Note_on_c, 9, 38, 127
2, 17040, Note_on_c, 9, 42, 90
2, 17088, Note_off_c, 9, 38, 64
2, 17088, Note_off_c, 9, 42, 64
2, 17088, Note_on_c, 9, 42, 90
2, 17136, Note_off_c, 9, 42, 64
2, 17136, Note_on_c, 9, 42, 90
2, 17184, Note_off_c, 9, 42, 64
2, 17184, Note_on_c, 9, 38, 127
2, 17184, Note_on_c, 9, 42, 90
2, 17232, Note_off_c, 9, 38, 64
2, 17232, Note_off_c, 9, 42, 64
2, 17232, Note_on_c, 9, 42, 90
2, 17280, Note_off_c, 9, 42, 64
2, 17280, Note_on_c, 9, 42, 90
2, 17328, Note_off_c, 9, 42, 64
2, 17328, Note_on_c, 9, 42, 90
2, 17376, Note_off_c, 9, 42, 64
2, 17376, Note_on_c, 9, 42, 90
2, 17424, Note_off_c, 9, 42, 64
2, 17424, Note_on_c, 9, 42, 90
2, 17472, Note_off_c, 9, 42, 64
2, 17472, Note_on_c, 9, 42, 90
2, 17520, Note_off_c, 9, 42, 64
2, 17520, Note_on_c, 9, 42, 90
2, 17568, Note_off_c, 9, 42, 64
2, 17568, Note_on_c, 9, 42, 90
2, 17616, Note_off_c, 9, 42, 64
2, 17616, Note_on_c, 9, 42, 90
2, 17664, Note_off_c, 9, 42, 64
2, 17664, Note_on_c, 9, 38, 127
2, 17664, Note_on_c, 9, 42, 90
2, 17712, Note_off_c, 9, 38, 64
2, 17712, Note_off_c, 9, 42, 64
2, 17712, Note_on_c, 9, 38, 127
2, 17712, Note_on_c, 9, 42, 90
2, 17760, Note_off_c, 9, 38, 64
2, 17760, Note_off_c, 9, 42, 64
2, 17760, Note_on_c, 9, 38, 127
2, 17760, Note_on_c, 9, 42, 90
2, 17808, Note_off_c, 9, 38, 64
2, 17808, Note_off_c, 9, 42, 64
2, 17808, Note_on_c, 9, 42, 90
2, 17856, Note_off_c, 9, 42, 64
2, 17856, Note_on_c, 9, 42, 90
2, 17904, Note_off_c, 9, 42, 64
2, 17904, Note_on_c, 9, 42, 90
2, 17952, Note_off_c, 9, 42, 64
2, 17952, Note_on_c, 9, 42, 90
2, 18000, Note_off_c, 9, 42, 64
2, 18000, Note_on_c, 9, 42, 90
2, 18048, Note_off_c, 9, 42, 64
2, 18048, Note_on_c, 9, 38, 127
2, 18048, Note_on_c, 9, 42, 90
2, 18096, Note_off_c, 9, 38, 64
2, 18096, Note_off_c, 9, 42, 64
2, 18096, Note_on_c, 9, 38, 127
2, 18096, Note_on_c, 9, 42, 90
2, 18144, Note_off_c, 9, 38, 64
2, 18144, Note_off_c, 9, 42, 64
2, 18144, Note_on_c, 9, 38, 127
2, 18144, Note_on_c, 9, 42, 90
2, 18192, Note_off_c, 9, 38, 64
2, 18192, Note_off_c, 9, 42, 64
2, 18192, Note_on_c, 9, 42, 90
2, 18240, Note_off_c, 9, 42, 64
2, 18240, Note_on_c, 9, 42, 90
2, 18288, Note_off_c, 9, 42, 64
2, 18288, Note_on_c, 9, 42, 90
2, 18336, Note_off_c, 9, 42, 64
2, 18336, Note_on_c, 9, 42, 90
2, 18384, Note_off_c, 9, 42, 64
2, 18384, Note_on_c, 9, 42, 90
2, 18432, Note_off_c, 9, 42, 64
2, 18432, Note_on_c, 9, 38, 127
2, 18432, Note_on_c, 9, 42, 90
2, 18480, Note_off_c, 9, 38, 64
2, 18480, Note_off_c, 9, 42, 64
2, 18480, Note_on_c, 9, 38, 127
2, 18480, Note_on_c, 9, 42, 90
2, 18528, Note_off_c, 9, 38, 64
2, 18528, Note_off_c, 9, 42, 64
2, 18528, Note_on_c, 9, 38, 127
2, 18528, Note_on_c, 9, 42, 90
2, 18576, Note_off_c, 9, 38, 64
2, 18576, Note_off_c, 9, 42, 64
2, 18576, Note_on_c, 9, 38, 127
2, 18576, Note_on_c, 9, 42, 90
2, 18624, Note_off_c, 9, 38, 64
2, 18624, Note_off_c, 9, 42, 64
2, 18624, Note_on_c, 9, 42, 90
2, 18672, Note_off_c, 9, 42, 64
2, 18672, Note_on_c, 9, 42, 90
2, 18720, Note_off_c, 9, 42, 64
2, 18720, Note_on_c, 9, 38, 127
2, 18720, Note_on_c, 9, 42, 90
2, 18768, Note_off_c, 9, 38, 64
2, 18768, Note_off_c, 9, 42, 64
2, 18768, Note_on_c, 9, 42, 90
2, 18816, Note_off_c, 9, 42, 64
2, 18816, Note_on_c, 9, 42, 90
2, 18864, Note_off_c, 9, 42, 64
2, 18864, Note_on_c, 9, 42, 90
2, 18912, Note_off_c, 9, 42, 64
2, 18912, Note_on_c, 9, 42, 90
2, 18960, Note_off_c, 9, 42, 64
2, 18960, Note_on_c, 9, 42, 90
2, 19008, Note_off_c, 9, 42, 64
2, 19008, Note_on_c, 9, 42, 90
2, 19056, Note_off_c, 9, 42, 64
2, 19056, Note_on_c, 9, 42, 90
2, 19104, Note_off_c, 9, 42, 64
2, 19104, Note_on_c, 9, 42, 90
2, 19152, Note_off_c, 9, 42, 64
2, 19152, Note_on_c, 9, 42, 90
2, 19200, Note_off_c, 9, 42, 64
2, 19200, Note_on_c, 9, 42, 90
2, 19248, Note_off_c, 9, 42, 64
2, 19248, Note_on_c, 9, 42, 90
2, 19296, Note_off_c, 9, 42, 64
2, 19296, Note_on_c, 9, 42, 90
2, 19344, Note_off_c, 9, 42, 64
2, 19344, Note_on_c, 9, 42, 90
2, 19392, Note_off_c, 9, 42, 64
2, 19392, Note_on_c, 9, 42, 90
2, 19440, Note_off_c, 9, 42, 64
2, 19440, Note_on_c, 9, 42, 90
2, 19488, Note_off_c, 9, 42, 64
2, 19488, Note_on_c, 9, 42, 90
2, 19536, Note_off_c, 9, 42, 64
2, 19536, Note_on_c, 9, 42, 90
2, 19584, Note_off_c, 9, 42, 64
2, 19584, Note_on_c, 9, 42, 90
2, 19632, Note_off_c, 9, 42, 64
2, 19632, Note_on_c, 9, 42, 90
2, 19680, Note_off_c, 9, 42, 64
2, 19680, Note_on_c, 9, 42, 90
2, 19728, Note_off_c, 9, 42, 64
2, 19728, Note_on_c, 9, 42, 90
2, 19776, Note_off_c, 9, 42, 64
2, 19776, Note_on_c, 9, 38, 127
2, 19776, Note_on_c, 9, 42, 90
2, 19824, Note_off_c, 9, 38, 64
2, 19824, Note_off_c, 9, 42, 64
2, 19824, Note_on_c, 9, 38, 127
2, 19824, Note_on_c, 9, 42, 90
2, 19872, Note_off_c, 9, 38, 64
2, 19872, Note_off_c, 9, 42, 64
2, 19872, Note_on_c, 9, 38, 127
2, 19872, Note_on_c, 9, 42, 90
2, 19920, Note_off_c, 9, 38, 64
2, 19920, Note_off_c, 9, 42, 64
2, 19920, Note_on_c, 9, 42, 90
2, 19968, Note_off_c, 9, 42, 64
2, 19968, Note_on_c, 9, 42, 90
2, 20016, Note_off_c, 9, 42, 64
2, 20016, Note_on_c, 9, 42, 90
2, 20064, Note_off_c, 9, 42, 64
2, 20064, Note_on_c, 9, 42, 90
2, 20112, Note_off_c, 9, 42, 64
2, 20112, Note_on_c, 9, 42, 90
2, 20160, Note_off_c, 9, 42, 64
2, 20160, Note_on_c, 9, 42, 90
2, 20208, Note_off_c, 9, 42, 64
2, 20208, Note_on_c, 9, 42, 90
2, 20256, Note_off_c, 9, 42, 64
2, 20256, Note_on_c, 9, 42, 90
2, 20304, Note_off_c, 9, 42, 64
2, 20304, Note_on_c, 9, 42, 90
2, 20352, Note_off_c, 9, 42, 64
2, 20352, Note_on_c, 9, 42, 90
2, 20400, Note_off_c, 9, 42, 64
2, 20400, Note_on_c, 9, 42, 90
2, 20448, Note_off_c, 9, 42, 64
2, 20448, Note_on_c, 9, 42, 90
2, 20496, Note_off_c, 9, 42, 64
2, 20496, Note_on_c, 9, 42, 90
2, 20544, Note_off_c, 9, 42, 64
2, 20544, Note_on_c, 9, 42, 90
2, 20592, Note_off_c, 9, 42, 64
2, 20592, Note_on_c, 9, 42, 90
2, 20640, Note_off_c, 9, 42, 64
2, 20640, Note_on_c, 9, 38, 127
2, 20640, Note_on_c, 9, 42, 90
2, 20688, Note_off_c, 9, 38, 64
2, 20688, Note_off_c, 9, 42, 64
2, 20688, Note_on_c, 9, 42, 90
2, 20736, Note_off_c, 9, 42, 64
2, 20736, Note_on_c, 9, 42, 90
2, 20784, Note_off_c, 9, 42, 64
2, 20784, Note_on_c, 9, 42, 90
2, 20832, Note_off_c, 9, 42, 64
2, 20832, Note_on_c, 9, 42, 90
2, 20880, Note_off_c, 9, 42, 64
2, 20880, Note_on_c, 9, 42, 90
2, 20928, Note_off_c, 9, 42, 64
2, 20928, Note_on_c, 9, 42, 90
2, 20976, Note_off_c, 9, 42, 64
2, 20976, Note_on_c, 9, 42, 90
2, 21024, Note_off_c, 9, 42, 64
2, 21024, Note_on_c, 9, 42, 90
2, 21072, Note_off_c, 9, 42, 64
2, 21072, Note_on_c, 9, 42, 90
2, 21120, Note_off_c, 9, 42, 64
2, 21120, Note_on_c, 9, 42, 90
2, 21168, Note_off_c, 9, 42, 64
2, 21168, Note_on_c, 9, 42, 90
2, 21216, Note_off_c, 9, 42, 64
2, 21216, Note_on_c, 9, 42, 90
2, 21264, Note_off_c, 9, 42, 64
2, 21264, Note_on_c, 9, 42, 90
2, 21312, Note_off_c, 9, 42, 64
2, 21312, Note_on_c, 9, 38, 127
2, 21312, Note_on_c, 9, 42, 90
2, 21360, Note_off_c, 9, 38, 64
2, 21360, Note_off_c, 9, 42, 64
2, 21360, Note_on_c, 9, 38, 127
2, 21360, Note_on_c, 9, 42, 90
2, 21408, Note_off_c, 9, 38, 64
2, 21408, Note_off_c, 9, 42, 64
2, 21408, Note_on_c, 9, 38, 127
2, 21408, Note_on_c, 9, 42, 90
2, 21456, Note_off_c, 9, 38, 64
2, 21456, Note_off_c, 9, 42, 64
2, 21456, Note_on_c, 9, 42, 90
2, 21504, Note_off_c, 9, 42, 64
2, 21504, Note_on_c, 9, 42, 90
2, 21552, Note_off_c, 9, 42, 64
2, 21552, Note_on_c, 9, 42, 90
2, 21600, Note_off_c, 9, 42, 64
2, 21600, Note_on_c, 9, 42, 90
2, 21648, Note_off_c, 9, 42, 64
2, 21648, Note_on_c, 9, 42, 90
2, 21696, Note_off_c, 9, 42, 64
2, 21696, Note_on_c, 9, 42, 90
2, 21744, Note_off_c, 9, 42, 64
2, 21744, Note_on_c, 9, 42, 90
2, 21792, Note_off_c, 9, 42, 64
2, 21792, Note_on_c, 9, 42, 90
2, 21840, Note_off_c, 9, 42, 64
2, 21840, Note_on_c, 9, 42, 90
2, 21888, Note_off_c, 9, 42, 64
2, 21888, Note_on_c, 9, 42, 90
2, 21936, Note_off_c, 9, 42, 64
2, 21936, Note_on_c, 9, 42, 90
2, 21984, Note_off_c, 9, 42, 64
2, 21984, Note_on_c, 9, 42, 90
2, 22032, Note_off_c, 9, 42, 64
2, 22032, Note_on_c, 9, 42, 90
2, 22080, Note_off_c, 9, 42, 64
2, 22080, Note_on_c, 9, 42, 90
2, 22128, Note_off_c, 9, 42, 64
2, 22128, Note_on_c, 9, 42, 90
2, 22176, Note_off_c, 9, 42, 64
2, 22176, Note_on_c, 9, 38, 127
2, 22176, Note_on_c, 9, 42, 90
2, 22224, Note_off_c, 9, 38, 64
2, 22224, Note_off_c, 9, 42, 64
2, 22224, Note_on_c, 9, 42, 90
2, 22272, Note_off_c, 9, 42, 64
2, 22272, Note_on_c, 9, 42, 90
2, 22320, Note_off_c, 9, 42, 64
2, 22320, Note_on_c, 9, 42, 90
2, 22368, Note_off_c, 9, 42, 64
2, 22368, Note_on_c, 9, 42, 90
2, 22416, Note_off_c, 9, 42, 64
2, 22416, Note_on_c, 9, 42, 90
2, 22464, Note_off_c, 9, 42, 64
2, 22464, Note_on_c, 9, 42, 90
2, 22512, Note_off_c, 9, 42, 64
2, 22512, Note_on_c, 9, 42, 90
2, 22560, Note_off_c, 9, 42, 64
2, 22560, Note_on_c, 9, 42, 90
2, 22608, Note_off_c, 9, 42, 64
2, 22608, Note_on_c, 9, 42, 90
2, 22656, Note_off_c, 9, 42, 64
2, 22656, Note_on_c, 9, 42, 90
2, 22704, Note_off_c, 9, 42, 64
2, 22704, Note_on_c, 9, 42, 90
2, 22752, Note_off_c, 9, 42, 64
2, 22752, Note_on_c, 9, 42, 90
2, 22800, Note_off_c, 9, 42, 64
2, 22800, Note_on_c, 9, 42, 90
2, 22848, Note_off_c, 9, 42, 64
2, 22848, Note_on_c, 9, 38, 127
2, 22848, Note_on_c, 9, 42, 90
2, 22896, Note_off_c, 9, 38, 64
2, 22896, Note_off_c, 9, 42, 64
2, 22896, Note_on_c, 9, 38, 127
2, 22896, Note_on_c, 9, 42, 90
2, 22944, Note_off_c, 9, 38, 64
2, 22944, Note_off_c, 9, 42, 64
2, 22944, Note_on_c, 9, 38, 127
2, 22944, Note_on_c, 9, 42, 90
2, 22992, Note_off_c, 9, 38, 64
2, 22992, Note_off_c, 9, 42, 64
2, 22992, Note_on_c, 9, 42, 90
2, 23040, Note_off_c, 9, 42, 64
2, 23040, Note_on_c, 9, 42, 90
2, 23088, Note_off_c, 9, 42, 64
2, 23088, Note_on_c, 9, 42, 90
2, 23136, Note_off_c, 9, 42, 64
2, 23136, Note_on_c, 9, 42, 90
2, 23184, Note_off_c, 9, 42, 64
2, 23184, Note_on_c, 9, 42, 90
2, 23232, Note_off_c, 9, 42, 64
2, 23232, Note_on_c, 9, 38, 127
2, 23232, Note_on_c, 9, 42, 90
2, 23280, Note_off_c, 9, 38, 64
2, 23280, Note_off_c, 9, 42, 64
2, 23280, Note_on_c, 9, 38, 127
2, 23280, Note_on_c, 9, 42, 90
2, 23328, Note_off_c, 9, 38, 64
2, 23328, Note_off_c, 9, 42, 64
2, 23328, Note_on_c, 9, 38, 127
2, 23328, Note_on_c, 9, 42, 90
2, 23376, Note_off_c, 9, 38, 64
2, 23376, Note_off_c, 9, 42, 64
2, 23376, Note_on_c, 9, 42, 90
2, 23424, Note_off_c, 9, 42, 64
2, 23424, Note_on_c, 9, 42, 90
2, 23472, Note_off_c, 9, 42, 64
2, 23472, Note_on_c, 9, 42, 90
2, 23520, Note_off_c, 9, 42, 64
2, 23520, Note_on_c, 9, 42, 90
2, 23568, Note_off_c, 9, 42, 64
2, 23568, Note_on_c, 9, 42, 90
2, 23616, Note_off_c, 9, 42, 64
2, 23616, Note_on_c, 9, 38, 127
2, 23616, Note_on_c, 9, 42, 90
2, 23664, Note_off_c, 9, 38, 64
2, 23664, Note_off_c, 9, 42, 64
2, 23664, Note_on_c, 9, 38, 127
2, 23664, Note_on_c, 9, 42, 90
2, 23712, Note_off_c, 9, 38, 64
2, 23712, Note_off_c, 9, 42, 64
2, 23712, Note_on_c, 9, 38, 127
2, 23712, Note_on_c, 9, 42, 90
2, 23760, Note_off_c, 9, 38, 64
2, 23760, Note_off_c, 9, 42, 64
2, 23760, Note_on_c, 9, 42, 90
2, 23808, Note_off_c, 9, 42, 64
2, 23808, Note_on_c, 9, 42, 90
2, 23856, Note_off_c, 9, 42, 64
2, 23856, Note_on_c, 9, 42, 90
2, 23904, Note_off_c, 9, 42, 64
2, 23904, Note_on_c, 9, 42, 90
2, 23952, Note_off_c, 9, 42, 64
2, 23952, Note_on_c, 9, 42, 90
2, 24000, Note_off_c, 9, 42, 64
2, 24000, Note_on_c, 9, 42, 90
2, 24048, Note_off_c, 9, 42, 64
2, 24048, Note_on_c, 9, 42, 90
2, 24096, Note_off_c, 9, 42, 64
2, 24096, Note_on_c, 9, 42, 90
2, 24144, Note_off_c, 9, 42, 64
2, 24144, Note_on_c, 9, 42, 90
2, 24192, Note_off_c, 9, 42, 64
2, 24192, Note_on_c, 9, 42, 90
2, 24240, Note_off_c, 9, 42, 64
2, 24240, Note_on_c, 9, 42, 90
2, 24288, Note_off_c, 9, 42, 64
2, 24288, Note_on_c, 9, 42, 90
2, 24336, Note_off_c, 9, 42, 64
2, 24336, Note_on_c, 9, 42, 90
2, 24384, Note_off_c, 9, 42, 64
2, 24384, Note_on_c, 9, 38, 127
2, 24384, Note_on_c, 9, 42, 90
2, 24432, Note_off_c, 9, 38, 64
2, 24432, Note_off_c, 9, 42, 64
2, 24432, Note_on_c, 9, 38, 127
2, 24432, Note_on_c, 9, 42, 90
2, 24480, Note_off_c, 9, 38, 64
2, 24480, Note_off_c, 9, 42, 64
2, 24480, Note_on_c, 9, 38, 127
2, 24480, Note_on_c, 9, 42, 90
2, 24528, Note_off_c, 9, 38, 64
2, 24528, Note_off_c, 9, 42, 64
2, 24528, Note_on_c, 9, 42, 90
2, 24576, Note_off_c, 9, 42, 64
2, 24576, Note_on_c, 9, 42, 90
2, 24624, Note_off_c, 9, 42, 64
2, 24624, Note_on_c, 9, 42, 90
2, 24672, Note_off_c, 9, 42, 64
2, 24672, Note_on_c, 9, 42, 90
2, 24720, Note_off_c, 9, 42, 64
2, 24720, Note_on_c, 9, 42, 90
2, 24768, Note_off_c, 9, 42, 64
2, 24768, Note_on_c, 9, 38, 127
2, 24768, Note_on_c, 9, 42, 90
2, 24816, Note_off_c, 9, 38, 64
2, 24816, Note_off_c, 9, 42, 64
2, 24816, Note_on_c, 9, 38, 127
2, 24816, Note_on_c, 9, 42, 90
2, 24864, Note_off_c, 9, 38, 64
2, 24864, Note_off_c, 9, 42, 64
2, 24864, Note_on_c, 9, 38, 127
2, 24864, Note_on_c, 9, 42, 90
2, 24912, Note_off_c, 9, 38, 64
2, 24912, Note_off_c, 9, 42, 64
2, 24912, Note_on_c, 9, 42, 90
2, 24960, Note_off_c, 9, 42, 64
2, 24960, Note_on_c, 9, 42, 90
2, 25008, Note_off_c, 9, 42, 64
2, 25008, Note_on_c, 9, 42, 90
2, 25056, Note_off_c, 9, 42, 64
2, 25056, Note_on_c, 9, 42, 90
2, 25104, Note_off_c, 9, 42, 64
2, 25104, Note_on_c, 9, 42, 90
2, 25152, Note_off_c, 9, 42, 64
2, 25152, Note_on_c, 9, 38, 127
2, 25152, Note_on_c, 9, 42, 90
2, 25200, Note_off_c, 9, 38, 64
2, 25200, Note_off_c, 9, 42, 64
2, 25200, Note_on_c, 9, 38, 127
2, 25200, Note_on_c, 9, 42, 90
2, 25248, Note_off_c, 9, 38, 64
2, 25248, Note_off_c, 9, 42, 64
2, 25248, Note_on_c, 9, 38, 127
2, 25248, Note_on_c, 9, 42, 90
2, 25296, Note_off_c, 9, 38, 64
2, 25296, Note_off_c, 9, 42, 64
2, 25296, Note_on_c, 9, 42, 90
2, 25344, Note_off_c, 9, 42, 64
2, 25344, Note_on_c, 9, 42, 90
2, 25392, Note_off_c, 9, 42, 64
2, 25392, Note_on_c, 9, 42, 90
2, 25440, Note_off_c, 9, 42, 64
2, 25440, Note_on_c, 9, 42, 90
2, 25488, Note_off_c, 9, 42, 64
2, 25488, Note_on_c, 9, 42, 90
2, 25536, Note_off_c, 9, 42, 64
2, 25536, Note_on_c, 9, 42, 90
2, 25584, Note_off_c, 9, 42, 64
2, 25584, Note_on_c, 9, 42, 90
2, 25632, Note_off_c, 9, 42, 64
2, 25632, Note_on_c, 9, 42, 90
2, 25680, Note_off_c, 9, 42, 64
2, 25680, Note_on_c, 9, 42, 90
2, 25728, Note_off_c, 9, 42, 64
2, 25728, Note_on_c, 9, 42, 90
2, 25776, Note_off_c, 9, 42, 64
2, 25776, Note_on_c, 9, 42, 90
2, 25824, Note_off_c, 9, 42, 64
2, 25824, Note_on_c, 9, 42, 90
2, 25872, Note_off_c, 9, 42, 64
2, 25872, Note_on_c, 9, 42, 90
2, 25920, Note_off_c, 9, 42, 64
2, 25920, Note_on_c, 9, 38, 127
2, 25920, Note_on_c, 9, 42, 90
2, 25968, Note_off_c, 9, 38, 64
2, 25968, Note_off_c, 9, 42, 64
2, 25968, Note_on_c, 9, 38, 127
2, 25968, Note_on_c, 9, 42, 90
2, 26016, Note_off_c, 9, 38, 64
2, 26016, Note_off_c, 9, 42, 64
2, 26016, Note_on_c, 9, 38, 127
2, 26016, Note_on_c, 9, 42, 90
2, 26064, Note_off_c, 9, 38, 64
2, 26064, Note_off_c, 9, 42, 64
2, 26064, Note_on_c, 9, 42, 90
2, 26112, Note_off_c, 9, 42, 64
2, 26112, Note_on_c, 9, 42, 90
2, 26160, Note_off_c, 9, 42, 64
2, 26160, Note_on_c, 9, 42, 90
2, 26208, Note_off_c, 9, 42, 64
2, 26208, Note_on_c, 9, 42, 90
2, 26256, Note_off_c, 9, 42, 64
2, 26256, Note_on_c, 9, 42, 90
2, 26304, Note_off_c, 9, 42, 64
2, 26304, Note_on_c, 9, 42, 90
2, 26352, Note_off_c, 9, 42, 64
2, 26352, Note_on_c, 9, 42, 90
2, 26400, Note_off_c, 9, 42, 64
2, 26400, Note_on_c, 9, 42, 90
2, 26448, Note_off_c, 9, 42, 64
2, 26448, Note_on_c, 9, 42, 90
2, 26496, Note_off_c, 9, 42, 64
2, 26496, Note_on_c, 9, 42, 90
2, 26544, Note_off_c, 9, 42, 64
2, 26544, Note_on_c, 9, 42, 90
2, 26592, Note_off_c, 9, 42, 64
2, 26592, Note_on_c, 9, 42, 90
2, 26640, Note_off_c, 9, 42, 64
2, 26640, Note_on_c, 9, 42, 90
2, 26688, Note_off_c, 9, 42, 64
2, 26688, Note_on_c, 9, 42, 90
2, 26736, Note_off_c, 9, 42, 64
2, 26736, Note_on_c, 9, 42, 90
2, 26784, Note_off_c, 9, 42, 64
2, 26784, Note_on_c, 9, 38, 127
2, 26784, Note_on_c, 9, 42, 90
2, 26832, Note_off_c, 9, 38, 64
2, 26832, Note_off_c, 9, 42, 64
2, 26832, Note_on_c, 9, 42, 90
2, 26880, Note_off_c, 9, 42, 64
2, 26880, Note_on_c, 9, 42, 90
2, 26928, Note_off_c, 9, 42, 64
2, 26928, Note_on_c, 9, 42, 90
2, 26976, Note_off_c, 9, 42, 64
2, 26976, Note_on_c, 9, 42, 90
2, 27024, Note_off_c, 9, 42, 64
2, 27024, Note_on_c, 9, 42, 90
2, 27072, Note_off_c, 9, 42, 64
2, 27072, Note_on_c, 9, 42, 90
2, 27120, Note_off_c, 9, 42, 64
2, 27120, Note_on_c, 9, 42, 90
2, 27168, Note_off_c, 9, 42, 64
2, 27168, Note_on_c, 9, 42, 90
2, 27216, Note_off_c, 9, 42, 64
2, 27216, Note_on_c, 9, 42, 90
2, 27264, Note_off_c, 9, 42, 64
2, 27264, Note_on_c, 9, 42, 90
2, 27312, Note_off_c, 9, 42, 64
2, 27312, Note_on_c, 9, 42, 90
2, 27360, Note_off_c, 9, 42, 64
2, 27360, Note_on_c, 9, 42, 90
2, 27408, Note_off_c, 9, 42, 64
2, 27408, Note_on_c, 9, 42, 90
2, 27456, Note_off_c, 9, 42, 64
2, 27456, Note_on_c, 9, 42, 90
2, 27504, Note_off_c, 9, 42, 64
2, 27504, Note_on_c, 9, 42, 90
2, 27552, Note_off_c, 9, 42, 64
2, 27552, Note_on_c, 9, 42, 90
2, 27600, Note_off_c, 9, 42, 64
2, 27600, Note_on_c, 9, 42, 90
2, 27648, Note_off_c, 9, 42, 64
2, 27648, Note_on_c, 9, 42, 90
2, 27696, Note_off_c, 9, 42, 64
2, 27696, Note_on_c, 9, 42, 90
2, 27744, Note_off_c, 9, 42, 64
2, 27744, Note_on_c, 9, 42, 90
2, 27792, Note_off_c, 9, 42, 64
2, 27792, Note_on_c, 9, 42, 90
2, 27840, Note_off_c, 9, 42, 64
2, 27840, Note_on_c, 9, 42, 90
2, 27888, Note_off_c, 9, 42, 64
2, 27888, Note_on_c, 9, 42, 90
2, 27936, Note_off_c, 9, 42, 64
2, 27936, Note_on_c, 9, 42, 90
2, 27984, Note_off_c, 9, 42, 64
2, 27984, Note_on_c, 9, 42, 90
2, 28032, Note_off_c, 9, 42, 64
2, 28032, Note_on_c, 9, 42, 90
2, 28080, Note_off_c, 9, 42, 64
2, 28080, Note_on_c, 9, 42, 90
2, 28128, Note_off_c, 9, 42, 64
2, 28128, Note_on_c, 9, 42, 90
2, 28176, Note_off_c, 9, 42, 64
2, 28176, Note_on_c, 9, 42, 90
2, 28224, Note_off_c, 9, 42, 64
2, 28224, Note_on_c, 9, 42, 90
2, 28272, Note_off_c, 9, 42, 64
2, 28272, Note_on_c, 9, 42, 90
2, 28320, Note_off_c, 9, 42, 64
2, 28320, Note_on_c, 9, 38, 127
2, 28320, Note_on_c, 9, 42, 90
2, 28368, Note_off_c, 9, 38, 64
2, 28368, Note_off_c, 9, 42, 64
2, 28368, Note_on_c, 9, 42, 90
2, 28416, Note_off_c, 9, 42, 64
2, 28416, Note_on_c, 9, 42, 90
2, 28464, Note_off_c, 9, 42, 64
2, 28464, Note_on_c, 9, 42, 90
2, 28512, Note_off_c, 9, 42, 64
2, 28512, Note_on_c, 9, 42, 90
2, 28560, Note_off_c, 9, 42, 64
2, 28560, Note_on_c, 9, 42, 90
2, 28608, Note_off_c, 9, 42, 64
2, 28608, Note_on_c, 9, 42, 90
2, 28656, Note_off_c, 9, 42, 64
2, 28656, Note_on_c, 9, 42, 90
2, 28704, Note_off_c, 9, 42, 64
2, 28704, Note_on_c, 9, 42, 90
2, 28752, Note_off_c, 9, 42, 64
2, 28752, Note_on_c, 9, 42, 90
2, 28800, Note_off_c, 9, 42, 64
2, 28800, Note_on_c, 9, 42, 90
2, 28848, Note_off_c, 9, 42, 64
2, 28848, Note_on_c, 9, 42, 90
2, 28896, Note_off_c, 9, 42, 64
2, 28896, Note_on_c, 9, 42, 90
2, 28944, Note_off_c, 9, 42, 64
2, 28944, Note_on_c, 9, 42, 90
2, 28992, Note_off_c, 9, 42, 64
2, 28992, Note_on_c, 9, 42, 90
2, 29040, Note_off_c, 9, 42, 64
2, 29040, Note_on_c, 9, 42, 90
2, 29088, Note_off_c, 9, 42, 64
2, 29088, Note_on_c, 9, 42, 90
2, 29136, Note_off_c, 9, 42, 64
2, 29136, Note_on_c, 9, 42, 90
2, 29184, Note_off_c, 9, 42, 64
2, 29184, Note_on_c, 9, 42, 90
2, 29232, Note_off_c, 9, 42, 64
2, 29232, Note_on_c, 9, 42, 90
2, 29280, Note_off_c, 9, 42, 64
2, 29280, Note_on_c, 9, 42, 90
2, 29328, Note_off_c, 9, 42, 64
2, 29328, Note_on_c, 9, 42, 90
2, 29376, Note_off_c, 9, 42, 64
2, 29376, Note_on_c, 9, 42, 90
2, 29424, Note_off_c, 9, 42, 64
2, 29424, Note_on_c, 9, 42, 90
2, 29472, Note_off_c, 9, 42, 64
2, 29472, Note_on_c, 9, 42, 90
2, 29520, Note_off_c, 9, 42, 64
2, 29520, Note_on_c, 9, 42, 90
2, 29568, Note_off_c, 9, 42, 64
2, 29568, Note_on_c, 9, 42, 90
2, 29616, Note_off_c, 9, 42, 64
2, 29616, Note_on_c, 9, 42, 90
2, 29664, Note_off_c, 9, 42, 64
2, 29664, Note_on_c, 9, 42, 90
2, 29712, Note_off_c, 9, 42, 64
2, 29712, Note_on_c, 9, 42, 90
2, 29760, Note_off_c, 9, 42, 64
2, 29760, Note_on_c, 9, 42, 90
2, 29808, Note_off_c, 9, 42, 64
2, 29808, Note_on_c, 9, 42, 90
2, 29856, Note_off_c, 9, 42, 64
2, 29856, Note_on_c, 9, 38, 127
2, 29856, Note_on_c, 9, 42, 90
2, 29904, Note_off_c, 9, 38, 64
2, 29904, Note_off_c, 9, 42, 64
2, 29904, Note_on_c, 9, 42, 90
2, 29952, Note_off_c, 9, 42, 64
2, 29952, Note_on_c, 9, 38, 127
2, 29952, Note_on_c, 9, 42, 90
2, 30000, Note_off_c, 9, 38, 64
2, 30000, Note_off_c, 9, 42, 64
2, 30000, Note_on_c, 9, 38, 127
2, 30000, Note_on_c, 9, 42, 90
2, 30048, Note_off_c, 9, 38, 64
2, 30048, Note_off_c, 9, 42, 64
2, 30048, Note_on_c, 9, 38, 127
2, 30048, Note_on_c, 9, 42, 90
2, 30096, Note_off_c, 9, 38, 64
2, 30096, Note_off_c, 9, 42, 64
2, 30096, Note_on_c, 9, 38, 127
2, 30096, Note_on_c, 9, 42, 90
2, 30144, Note_off_c, 9, 38, 64
2, 30144, Note_off_c, 9, 42, 64
2, 30144, Note_on_c, 9, 42, 90
2, 30192, Note_off_c, 9, 42, 64
2, 30192, Note_on_c, 9, 42, 90
2, 30240, Note_off_c, 9, 42, 64
2, 30240, Note_on_c, 9, 38, 127
2, 30240, Note_on_c, 9, 42, 90
2, 30288, Note_off_c, 9, 38, 64
2, 30288, Note_off_c, 9, 42, 64
2, 30288, Note_on_c, 9, 42, 90
2, 30336, Note_off_c, 9, 42, 64
2, 30336, Note_on_c, 9, 42, 90
2, 30384, Note_off_c, 9, 42, 64
2, 30384, Note_on_c, 9, 42, 90
2, 30432, Note_off_c, 9, 42, 64
2, 30432, Note_on_c, 9, 42, 90
2, 30480, Note_off_c, 9, 42, 64
2, 30480, Note_on_c, 9, 42, 90
2, 30528, Note_off_c, 9, 42, 64
2, 30528, Note_on_c, 9, 42, 90
2, 30576, Note_off_c, 9, 42, 64
2, 30576, Note_on_c, 9, 42, 90
2, 30624, Note_off_c, 9, 42, 64
2, 30624, Note_on_c, 9, 42, 90
2, 30672, Note_off_c, 9, 42, 64
2, 30672, Note_on_c, 9, 42, 90
2, 30720, Note_off_c, 9, 42, 64
2, 30720, Note_on_c, 9, 38, 127
2, 30720, Note_on_c, 9, 42, 90
2, 30768, Note_off_c, 9, 38, 64
2, 30768, Note_off_c, 9, 42, 64
2, 30768, Note_on_c, 9, 38, 127
2, 30768, Note_on_c, 9, 42, 90
2, 30816, Note_off_c, 9, 38, 64
2, 30816, Note_off_c, 9, 42, 64
2, 30816, Note_on_c, 9, 38, 127
2, 30816, Note_on_c, 9, 42, 90
2, 30864, Note_off_c, 9, 38, 64
2, 30864, Note_off_c, 9, 42, 64
2, 30864, Note_on_c, 9, 42, 90
2, 30912, Note_off_c, 9, 42, 64
2, 30912, Note_on_c, 9, 42, 90
2, 30960, Note_off_c, 9, 42, 64
2, 30960, Note_on_c, 9, 42, 90
2, 31008, Note_off_c, 9, 42, 64
2, 31008, Note_on_c, 9, 42, 90
2, 31056, Note_off_c, 9, 42, 64
2, 31056, Note_on_c, 9, 42, 90
2, 31104, Note_off_c, 9, 42, 64
2, 31104, Note_on_c, 9, 38, 127
2, 31104, Note_on_c, 9, 42, 90
2, 31152, Note_off_c, 9, 38, 64
2, 31152, Note_off_c, 9, 42, 64
2, 31152, Note_on_c, 9, 38, 127
2, 31152, Note_on_c, 9, 42, 90
2, 31200, Note_off_c, 9, 38, 64
2, 31200, Note_off_c, 9, 42, 64
2, 31200, Note_on_c, 9, 38, 127
2, 31200, Note_on_c, 9, 42, 90
2, 31248, Note_off_c, 9, 38, 64
2, 31248, Note_off_c, 9, 42, 64
2, 31248, Note_on_c, 9, 42, 90
2, 31296, Note_off_c, 9, 42, 64
2, 31296, Note_on_c, 9, 42, 90
2, 31344, Note_off_c, 9, 42, 64
2, 31344, Note_on_c, 9, 42, 90
2, 31392, Note_off_c, 9, 42, 64
2, 31392, Note_on_c, 9, 42, 90
2, 31440, Note_off_c, 9, 42, 64
2, 31440, Note_on_c, 9, 42, 90
2, 31488, Note_off_c, 9, 42, 64
2, 31488, Note_on_c, 9, 38, 127
2, 31488, Note_on_c, 9, 42, 90
2, 31536, Note_off_c, 9, 38, 64
2, 31536, Note_off_c, 9, 42, 64
2, 31536, Note_on_c, 9, 38, 127
2, 31536, Note_on_c, 9, 42, 90
2, 31584, Note_off_c, 9, 38, 64
2, 31584, Note_off_c, 9, 42, 64
2, 31584, Note_on_c, 9, 38, 127
2, 31584, Note_on_c, 9, 42, 90
2, 31632, Note_off_c, 9, 38, 64
2, 31632, Note_off_c, 9, 42, 64
2, 31632, Note_on_c, 9, 38, 127
2, 31632, Note_on_c, 9, 42, 90
2, 31680, Note_off_c, 9, 38, 64
2, 31680, Note_off_c, 9, 42, 64
2, 31680, Note_on_c, 9, 42, 90
2, 31728, Note_off_c, 9, 42, 64
2, 31728, Note_on_c, 9, 42, 90
2, 31776, Note_off_c, 9, 42, 64
2, 31776, Note_on_c, 9, 38, 127
2, 31776, Note_on_c, 9, 42, 90
2, 31824, Note_off_c, 9, 38, 64
2, 31824, Note_off_c, 9, 42, 64
2, 31824, Note_on_c, 9, 42, 90
2, 31872, Note_off_c, 9, 42, 64
2, 31872, Note_on_c, 9, 42, 90
2, 31920, Note_off_c, 9, 42, 64
2, 31920, Note_on_c, 9, 42, 90
2, 31968, Note_off_c, 9, 42, 64
2, 31968, Note_on_c, 9, 42, 90
2, 32016, Note_off_c, 9, 42, 64
2, 32016, Note_on_c, 9, 42, 90
2, 32064, Note_off_c, 9, 42, 64
2, 32064, Note_on_c, 9, 42, 90
2, 32112, Note_off_c, 9, 42, 64
2, 32112, Note_on_c, 9, 42, 90
2, 32160, Note_off_c, 9, 42, 64
2, 32160, Note_on_c, 9, 42, 90
2, 32208, Note_off_c, 9, 42, 64
2, 32208, Note_on_c, 9, 42, 90
2, 32256, Note_off_c, 9, 42, 64
2, 32256, Note_on_c, 9, 38, 127
2, 32256, Note_on_c, 9, 42, 90
2, 32304, Note_off_c, 9, 38, 64
2, 32304, Note_off_c, 9, 42, 64
2, 32304, Note_on_c, 9, 38, 127
2, 32304, Note_on_c, 9, 42, 90
2, 32352, Note_off_c, 9, 38, 64
2, 32352, Note_off_c, 9, 42, 64
2, 32352, Note_on_c, 9, 38, 127
2, 32352, Note_on_c, 9, 42, 90
2, 32400, Note_off_c, 9, 38, 64
2, 32400, Note_off_c, 9, 42, 64
2, 32400, Note_on_c, 9, 42, 90
2, 32448, Note_off_c, 9, 42, 64
2, 32448, Note_on_c, 9, 42, 90
2, 32496, Note_off_c, 9, 42, 64
2, 32496, Note_on_c, 9, 42, 90
2, 32544, Note_off_c, 9, 42, 64
2, 32544, Note_on_c, 9, 42, 90
2, 32592, Note_off_c, 9, 42, 64
2, 32592, Note_on_c, 9, 42, 90
2, 32640, Note_off_c, 9, 42, 64
2, 32640, Note_on_c, 9, 38, 127
2, 32640, Note_on_c, 9, 42, 90
2, 32688, Note_off_c, 9, 38, 64
2, 32688, Note_off_c, 9, 42, 64
2, 32688, Note_on_c, 9, 38, 127
2, 32688, Note_on_c, 9, 42, 90
2, 32736, Note_off_c, 9, 38, 64
2, 32736, Note_off_c, 9, 42, 64
2, 32736, Note_on_c, 9, 38, 127
2, 32736, Note_on_c, 9, 42, 90
2, 32784, Note_off_c, 9, 38, 64
2, 32784, Note_off_c, 9, 42, 64
2, 32784, Note_on_c, 9, 42, 90
2, 32832, Note_off_c, 9, 42, 64
2, 32832, Note_on_c, 9, 42, 90
2, 32880, Note_off_c, 9, 42, 64
2, 32880, Note_on_c, 9, 42, 90
2, 32928, Note_off_c, 9, 42, 64
2, 32928, Note_on_c, 9, 42, 90
2, 32976, Note_off_c, 9, 42, 64
2, 32976, Note_on_c, 9, 42, 90
2, 33024, Note_off_c, 9, 42, 64
2, 33024, Note_on_c, 9, 38, 127
2, 33024, Note_on_c, 9, 42, 90
2, 33072, Note_off_c, 9, 38, 64
2, 33072, Note_off_c, 9, 42, 64
2, 33072, Note_on_c, 9, 38, 127
2, 33072, Note_on_c, 9, 42, 90
2, 33120, Note_off_c, 9, 38, 64
2, 33120, Note_off_c, 9, 42, 64
2, 33120, Note_on_c, 9, 38, 127
2, 33120, Note_on_c, 9, 42, 90
2, 33168, Note_off_c, 9, 38, 64
2, 33168, Note_off_c, 9, 42, 64
2, 33168, Note_on_c, 9, 38, 127
2, 33168, Note_on_c, 9, 42, 90
2, 33216, Note_off_c, 9, 38, 64
2, 33216, Note_off_c, 9, 42, 64
2, 33216, Note_on_c, 9, 42, 90
2, 33264, Note_off_c, 9, 42, 64
2, 33264, Note_on_c, 9, 42, 90
2, 33312, Note_off_c, 9, 42, 64
2, 33312, Note_on_c, 9, 38, 127
2, 33312, Note_on_c, 9, 42, 90
2, 33360, Note_off_c, 9, 38, 64
2, 33360, Note_off_c, 9, 42, 64
2, 33360, Note_on_c, 9, 42, 90
2, 33408, Note_off_c, 9, 42, 64
2, 33408, Note_on_c, 9, 42, 90
2, 33456, Note_off_c, 9, 42, 64
2, 33456, Note_on_c, 9, 42, 90
2, 33504, Note_off_c, 9, 42, 64
2, 33504, Note_on_c, 9, 42, 90
2, 33552, Note_off_c, 9, 42, 64
2, 33552, Note_on_c, 9, 42, 90
2, 33600, Note_off_c, 9, 42, 64
2, 33600, Note_on_c, 9, 42, 90
2, 33648, Note_off_c, 9, 42, 64
2, 33648, Note_on_c, 9, 42, 90
2, 33696, Note_off_c, 9, 42, 64
2, 33696, Note_on_c, 9, 42, 90
2, 33744, Note_off_c, 9, 42, 64
2, 33744, Note_on_c, 9, 42, 90
2, 33792, Note_off_c, 9, 42, 64
2, 33792, Note_on_c, 9, 38, 127
2, 33792, Note_on_c, 9, 42, 90
2, 33840, Note_off_c, 9, 38, 64
2, 33840, Note_off_c, 9, 42, 64
2, 33840, Note_on_c, 9, 38, 127
2, 33840, Note_on_c, 9, 42, 90
2, 33888, Note_off_c, 9, 38, 64
2, 33888, Note_off_c, 9, 42, 64
2, 33888, Note_on_c, 9, 38, 127
2, 33888, Note_on_c, 9, 42, 90
2, 33936, Note_off_c, 9, 38, 64
2, 33936, Note_off_c, 9, 42, 64
2, 33936, Note_on_c, 9, 42, 90
2, 33984, Note_off_c, 9, 42, 64
2, 33984, Note_on_c, 9, 42, 90
2, 34032, Note_off_c, 9, 42, 64
2, 34032, Note_on_c, 9, 42, 90
2, 34080, Note_off_c, 9, 42, 64
2, 34080, Note_on_c, 9, 42, 90
2, 34128, Note_off_c, 9, 42, 64
2, 34128, Note_on_c, 9, 42, 90
2, 34176, Note_off_c, 9, 42, 64
2, 34176, Note_on_c, 9, 38, 127
2, 34176, Note_on_c, 9, 42, 90
2, 34224, Note_off_c, 9, 38, 64
2, 34224, Note_off_c, 9, 42, 64
2, 34224, Note_on_c, 9, 38, 127
2, 34224, Note_on_c, 9, 42, 90
2, 34272, Note_off_c, 9, 38, 64
2, 34272, Note_off_c, 9, 42, 64
2, 34272, Note_on_c, 9, 38, 127
2, 34272, Note_on_c, 9, 42, 90
2, 34320, Note_off_c, 9, 38, 64
2, 34320, Note_off_c, 9, 42, 64
2, 34320, Note_on_c, 9, 42, 90
2, 34368, Note_off_c, 9, 42, 64
2, 34368, Note_on_c, 9, 42, 90
2, 34416, Note_off_c, 9, 42, 64
2, 34416, Note_on_c, 9, 42, 90
2, 34464, Note_off_c, 9, 42, 64
2, 34464, Note_on_c, 9, 42, 90
2, 34512, Note_off_c, 9, 42, 64
2, 34512, Note_on_c, 9, 42, 90
2, 34560, Note_off_c, 9, 42, 64
2, 34560, Note_on_c, 9, 38, 127
2, 34560, Note_on_c, 9, 42, 90
2, 34608, Note_off_c, 9, 38, 64
2, 34608, Note_off_c, 9, 42, 64
2, 34608, Note_on_c, 9, 38, 127
2, 34608, Note_on_c, 9, 42, 90
2, 34656, Note_off_c, 9, 38, 64
2, 34656, Note_off_c, 9, 42, 64
2, 34656, Note_on_c, 9, 38, 127
2, 34656, Note_on_c, 9, 42, 90
2, 34704, Note_off_c, 9, 38, 64
2, 34704, Note_off_c, 9, 42, 64
2, 34704, Note_on_c, 9, 38, 127
2, 34704, Note_on_c, 9, 42, 90
2, 34752, Note_off_c, 9, 38, 64
2, 34752, Note_off_c, 9, 42, 64
2, 34752, Note_on_c, 9, 42, 90
2, 34800, Note_off_c, 9, 42, 64
2, 34800, Note_on_c, 9, 42, 90
2, 34848, Note_off_c, 9, 42, 64
2, 34848, Note_on_c, 9, 38, 127
2, 34848, Note_on_c, 9, 42, 90
2, 34896, Note_off_c, 9, 38, 64
2, 34896, Note_off_c, 9, 42, 64
2, 34896, Note_on_c, 9, 42, 90
2, 34944, Note_off_c, 9, 42, 64
2, 34944, Note_on_c, 9, 42, 90
2, 34992, Note_off_c, 9, 42, 64
2, 34992, Note_on_c, 9, 42, 90
2, 35040, Note_off_c, 9, 42, 64
2, 35040, Note_on_c, 9, 42, 90
2, 35088, Note_off_c, 9, 42, 64
2, 35088, Note_on_c, 9, 42, 90
2, 35136, Note_off_c, 9, 42, 64
2, 35136, Note_on_c, 9, 42, 90
2, 35184, Note_off_c, 9, 42, 64
2, 35184, Note_on_c, 9, 42, 90
2, 35232, Note_off_c, 9, 42, 64
2, 35232, Note_on_c, 9, 42, 90
2, 35280, Note_off_c, 9, 42, 64
2, 35280, Note_on_c, 9, 42, 90
2, 35328, Note_off_c, 9, 42, 64
2, 35328, Note_on_c, 9, 42, 90
2, 35376, Note_off_c, 9, 42, 64
2, 35376, Note_on_c, 9, 42, 90
2, 35424, Note_off_c, 9, 42, 64
2, 35424, Note_on_c, 9, 42, 90
2, 35472, Note_off_c, 9, 42, 64
2, 35472, Note_on_c, 9, 42, 90
2, 35520, Note_off_c, 9, 42, 64
2, 35520, Note_on_c, 9, 42, 90
2, 35568, Note_off_c, 9, 42, 64
2, 35568, Note_on_c, 9, 42, 90
2, 35616, Note_off_c, 9, 42, 64
2, 35616, Note_on_c, 9, 38, 127
2, 35616, Note_on_c, 9, 42, 90
2, 35664, Note_off_c, 9, 38, 64
2, 35664, Note_off_c, 9, 42, 64
2, 35664, Note_on_c, 9, 42, 90
2, 35712, Note_off_c, 9, 42, 64
2, 35712, Note_on_c, 9, 42, 90
2, 35760, Note_off_c, 9, 42, 64
2, 35760, Note_on_c, 9, 42, 90
2, 35808, Note_off_c, 9, 42, 64
2, 35808, Note_on_c, 9, 42, 90
2, 35856, Note_off_c, 9, 42, 64
2, 35856, Note_on_c, 9, 42, 90
2, 35904, Note_off_c, 9, 42, 64
2, 35904, Note_on_c, 9, 42, 90
2, 35952, Note_off_c, 9, 42, 64
2, 35952, Note_on_c, 9, 42, 90
2, 36000, Note_off_c, 9, 42, 64
2, 36000, Note_on_c, 9, 38, 127
2, 36000, Note_on_c, 9, 42, 90
2, 36048, Note_off_c, 9, 38, 64
2, 36048, Note_off_c, 9, 42, 64
2, 36048, Note_on_c, 9, 42, 90
2, 36096, Note_off_c, 9, 42, 64
2, 36096, Note_on_c, 9, 42, 90
2, 36144, Note_off_c, 9, 42, 64
2, 36144, Note_on_c, 9, 42, 90
2, 36192, Note_off_c, 9, 42, 64
2, 36192, Note_on_c, 9, 42, 90
2, 36240, Note_off_c, 9, 42, 64
2, 36240, Note_on_c, 9, 42, 90
2, 36288, Note_off_c, 9, 42, 64
2, 36288, Note_on_c, 9, 42, 90
2, 36336, Note_off_c, 9, 42, 64
2, 36336, Note_on_c, 9, 42, 90
2, 36384, Note_off_c, 9, 42, 64
2, 36384, Note_on_c, 9, 38, 127
2, 36384, Note_on_c, 9, 42, 90
2, 36432, Note_off_c, 9, 38, 64
2, 36432, Note_off_c, 9, 42, 64
2, 36432, Note_on_c, 9, 42, 90
2, 36480, Note_off_c, 9, 42, 64
2, 36480, Note_on_c, 9, 42, 90
2, 36528, Note_off_c, 9, 42, 64
2, 36528, Note_on_c, 9, 42, 90
2, 36576, Note_off_c, 9, 42, 64
2, 36576, Note_on_c, 9, 42, 90
2, 36624, Note_off_c, 9, 42, 64
2, 36624, Note_on_c, 9, 42, 90
2, 36672, Note_off_c, 9, 42, 64
2, 36672, Note_on_c, 9, 42, 90
2, 36720, Note_off_c, 9, 42, 64
2, 36720, Note_on_c, 9, 38, 127
2, 36720, Note_on_c, 9, 42, 90
2, 36768, Note_off_c, 9, 38, 64
2, 36768, Note_off_c, 9, 42, 64
2, 36768, Note_on_c, 9, 38, 127
2, 36768, Note_on_c, 9, 42, 90
2, 36816, Note_off_c, 9, 38, 64
2, 36816, Note_off_c, 9, 42, 64
2, 36816, Note_on_c, 9, 42, 90
2, 36864, Note_off_c, 9, 42, 64
2, 36864, Note_on_c, 9, 42, 90
2, 36912, Note_off_c, 9, 42, 64
2, 36912, Note_on_c, 9, 42, 90
2, 36960, Note_off_c, 9, 42, 64
2, 36960, Note_on_c, 9, 42, 90
2, 37008, Note_off_c, 9, 42, 64
2, 37008, Note_on_c, 9, 42, 90
2, 37056, Note_off_c, 9, 42, 64
2, 37056, Note_on_c, 9, 42, 90
2, 37104, Note_off_c, 9, 42, 64
2, 37104, Note_on_c, 9, 42, 90
2, 37152, Note_off_c, 9, 42, 64
2, 37152, Note_on_c, 9, 38, 127
2, 37152, Note_on_c, 9, 42, 90
2, 37200, Note_off_c, 9, 38, 64
2, 37200, Note_off_c, 9, 42, 64
2, 37200, Note_on_c, 9, 42, 90
2, 37248, Note_off_c, 9, 42, 64
2, 37248, Note_on_c, 9, 42, 90
2, 37296, Note_off_c, 9, 42, 64
2, 37296, Note_on_c, 9, 42, 90
2, 37344, Note_off_c, 9, 42, 64
2, 37344, Note_on_c, 9, 42, 90
2, 37392, Note_off_c, 9, 42, 64
2, 37392, Note_on_c, 9, 42, 90
2, 37440, Note_off_c, 9, 42, 64
2, 37440, Note_on_c, 9, 42, 90
2, 37488, Note_off_c, 9, 42, 64
2, 37488, Note_on_c, 9, 42, 90
2, 37536, Note_off_c, 9, 42, 64
2, 37536, Note_on_c, 9, 38, 127
2, 37536, Note_on_c, 9, 42, 90
2, 37584, Note_off_c, 9, 38, 64
2, 37584, Note_off_c, 9, 42, 64
2, 37584, Note_on_c, 9, 42, 90
2, 37632, Note_off_c, 9, 42, 64
2, 37632, Note_on_c, 9, 42, 90
2, 37680, Note_off_c, 9, 42, 64
2, 37680, Note_on_c, 9, 42, 90
2, 37728, Note_off_c, 9, 42, 64
2, 37728, Note_on_c, 9, 42, 90
2, 37776, Note_off_c, 9, 42, 64
2, 37776, Note_on_c, 9, 42, 90
2, 37824, Note_off_c, 9, 42, 64
2, 37824, Note_on_c, 9, 42, 90
2, 37872, Note_off_c, 9, 42, 64
2, 37872, Note_on_c, 9, 42, 90
2, 37920, Note_off_c, 9, 42, 64
2, 37920, Note_on_c, 9, 38, 127
2, 37920, Note_on_c, 9, 42, 90
2, 37968, Note_off_c, 9, 38, 64
2, 37968, Note_off_c, 9, 42, 64
2, 37968, Note_on_c, 9, 42, 90
2, 38016, Note_off_c, 9, 42, 64
2, 38016, Note_on_c, 9, 42, 90
2, 38064, Note_off_c, 9, 42, 64
2, 38064, Note_on_c, 9, 42, 90
2, 38112, Note_off_c, 9, 42, 64
2, 38112, Note_on_c, 9, 42, 90
2, 38160, Note_off_c, 9, 42, 64
2, 38160, Note_on_c, 9, 42, 90
2, 38208, Note_off_c, 9, 42, 64
2, 38208, Note_on_c, 9, 38, 127
2, 38208, Note_on_c, 9, 42, 90
2, 38256, Note_off_c, 9, 38, 64
2, 38256, Note_off_c, 9, 42, 64
2, 38256, Note_on_c, 9, 38, 127
2, 38256, Note_on_c, 9, 42, 90
2, 38304, Note_off_c, 9, 38, 64
2, 38304, Note_off_c, 9, 42, 64
2, 38304, Note_on_c, 9, 38, 127
2, 38304, Note_on_c, 9, 42, 90
2, 38352, Note_off_c, 9, 38, 64
2, 38352, Note_off_c, 9, 42, 64
2, 38352, Note_on_c, 9, 42, 90
2, 38400, Note_off_c, 9, 42, 64
2, 38400, Note_on_c, 9, 42, 90
2, 38448, Note_off_c, 9, 42, 64
2, 38448, Note_on_c, 9, 42, 90
2, 38496, Note_off_c, 9, 42, 64
2, 38496, Note_on_c, 9, 42, 90
2, 38544, Note_off_c, 9, 42, 64
2, 38544, Note_on_c, 9, 42, 90
2, 38592, Note_off_c, 9, 42, 64
2, 38592, Note_on_c, 9, 42, 90
2, 38640, Note_off_c, 9, 42, 64
2, 38640, Note_on_c, 9, 42, 90
2, 38688, Note_off_c, 9, 42, 64
2, 38688, Note_on_c, 9, 38, 127
2, 38688, Note_on_c, 9, 42, 90
2, 38736, Note_off_c, 9, 38, 64
2, 38736, Note_off_c, 9, 42, 64
2, 38736, Note_on_c, 9, 42, 90
2, 38784, Note_off_c, 9, 42, 64
2, 38784, Note_on_c, 9, 42, 90
2, 38832, Note_off_c, 9, 42, 64
2, 38832, Note_on_c, 9, 42, 90
2, 38880, Note_off_c, 9, 42, 64
2, 38880, Note_on_c, 9, 42, 90
2, 38928, Note_off_c, 9, 42, 64
2, 38928, Note_on_c, 9, 42, 90
2, 38976, Note_off_c, 9, 42, 64
2, 38976, Note_on_c, 9, 42, 90
2, 39024, Note_off_c, 9, 42, 64
2, 39024, Note_on_c, 9, 42, 90
2, 39072, Note_off_c, 9, 42, 64
2, 39072, Note_on_c, 9, 38, 127
2, 39072, Note_on_c, 9, 42, 90
2, 39120, Note_off_c, 9, 38, 64
2, 39120, Note_off_c, 9, 42, 64
2, 39120, Note_on_c, 9, 42, 90
2, 39168, Note_off_c, 9, 42, 64
2, 39168, Note_on_c, 9, 42, 90
2, 39216, Note_off_c, 9, 42, 64
2, 39216, Note_on_c, 9, 42, 90
2, 39264, Note_off_c, 9, 42, 64
2, 39264, Note_on_c, 9, 42, 90
2, 39312, Note_off_c, 9, 42, 64
2, 39312, Note_on_c, 9, 42, 90
2, 39360, Note_off_c, 9, 42, 64
2, 39360, Note_on_c, 9, 42, 90
2, 39408, Note_off_c, 9, 42, 64
2, 39408, Note_on_c, 9, 42, 90
2, 39456, Note_off_c, 9, 42, 64
2, 39456, Note_on_c, 9, 38, 127
2, 39456, Note_on_c, 9, 42, 90
2, 39504, Note_off_c, 9, 38, 64
2, 39504, Note_off_c, 9, 42, 64
2, 39504, Note_on_c, 9, 42, 90
2, 39552, Note_off_c, 9, 42, 64
2, 39552, Note_on_c, 9, 42, 90
2, 39600, Note_off_c, 9, 42, 64
2, 39600, Note_on_c, 9, 42, 90
2, 39648, Note_off_c, 9, 42, 64
2, 39648, Note_on_c, 9, 42, 90
2, 39696, Note_off_c, 9, 42, 64
2, 39696, Note_on_c, 9, 42, 90
2, 39744, Note_off_c, 9, 42, 64
2, 39744, Note_on_c, 9, 42, 90
2, 39792, Note_off_c, 9, 42, 64
2, 39792, Note_on_c, 9, 38, 127
2, 39792, Note_on_c, 9, 42, 90
2, 39840, Note_off_c, 9, 38, 64
2, 39840, Note_off_c, 9, 42, 64
2, 39840, Note_on_c, 9, 38, 127
2, 39840, Note_on_c, 9, 42, 90
2, 39888, Note_off_c, 9, 38, 64
2, 39888, Note_off_c, 9, 42, 64
2, 39888, Note_on_c, 9, 42, 90
2, 39936, Note_off_c, 9, 42, 64
2, 39936, Note_on_c, 9, 42, 90
2, 39984, Note_off_c, 9, 42, 64
2, 39984, Note_on_c, 9, 42, 90
2, 40032, Note_off_c, 9, 42, 64
2, 40032, Note_on_c, 9, 42, 90
2, 40080, Note_off_c, 9, 42, 64
2, 40080, Note_on_c, 9, 42, 90
2, 40128, Note_off_c, 9, 42, 64
2, 40128, Note_on_c, 9, 42, 90
2, 40176, Note_off_c, 9, 42, 64
2, 40176, Note_on_c, 9, 42, 90
2, 40224, Note_off_c, 9, 42, 64
2, 40224, Note_on_c, 9, 38, 127
2, 40224, Note_on_c, 9, 42, 90
2, 40272, Note_off_c, 9, 38, 64
2, 40272, Note_off_c, 9, 42, 64
2, 40272, Note_on_c, 9, 42, 90
2, 40320, Note_off_c, 9, 42, 64
2, 40320, Note_on_c, 9, 42, 90
2, 40368, Note_off_c, 9, 42, 64
2, 40368, Note_on_c, 9, 42, 90
2, 40416, Note_off_c, 9, 42, 64
2, 40416, Note_on_c, 9, 42, 90
2, 40464, Note_off_c, 9, 42, 64
2, 40464, Note_on_c, 9, 42, 90
2, 40512, Note_off_c, 9, 42, 64
2, 40512, Note_on_c, 9, 42, 90
2, 40560, Note_off_c, 9, 42, 64
2, 40560, Note_on_c, 9, 42, 90
2, 40608, Note_off_c, 9, 42, 64
2, 40608, Note_on_c, 9, 38, 127
2, 40608, Note_on_c, 9, 42, 90
2, 40656, Note_off_c, 9, 38, 64
2, 40656, Note_off_c, 9, 42, 64
2, 40656, Note_on_c, 9, 42, 90
2, 40704, Note_off_c, 9, 42, 64
2, 40704, Note_on_c, 9, 42, 90
2, 40752, Note_off_c, 9, 42, 64
2, 40752, Note_on_c, 9, 42, 90
2, 40800, Note_off_c, 9, 42, 64
2, 40800, Note_on_c, 9, 42, 90
2, 40848, Note_off_c, 9, 42, 64
2, 40848, Note_on_c, 9, 42, 90
2, 40896, Note_off_c, 9, 42, 64
2, 40896, Note_on_c, 9, 42, 90
2, 40944, Note_off_c, 9, 42, 64
2, 40944, Note_on_c, 9, 42, 90
2, 40992, Note_off_c, 9, 42, 64
2, 40992, Note_on_c, 9, 38, 127
2, 40992, Note_on_c, 9, 42, 90
2, 41040, Note_off_c, 9, 38, 64
2, 41040, Note_off_c, 9, 42, 64
2, 41040, Note_on_c, 9, 42, 90
2, 41088, Note_off_c, 9, 42, 64
2, 41088, Note_on_c, 9, 42, 90
2, 41136, Note_off_c, 9, 42, 64
2, 41136, Note_on_c, 9, 42, 90
2, 41184, Note_off_c, 9, 42, 64
2, 41184, Note_on_c, 9, 42, 90
2, 41232, Note_off_c, 9, 42, 64
2, 41232, Note_on_c, 9, 42, 90
2, 41280, Note_off_c, 9, 42, 64
2, 41280, Note_on_c, 9, 38, 127
2, 41280, Note_on_c, 9, 42, 90
2, 41328, Note_off_c, 9, 38, 64
2, 41328, Note_off_c, 9, 42, 64
2, 41328, Note_on_c, 9, 38, 127
2, 41328, Note_on_c, 9, 42, 90
2, 41376, Note_off_c, 9, 38, 64
2, 41376, Note_off_c, 9, 42, 64
2, 41376, Note_on_c, 9, 38, 127
2, 41376, Note_on_c, 9, 42, 90
2, 41424, Note_off_c, 9, 38, 64
2, 41424, Note_off_c, 9, 42, 64
2, 41424, Note_on_c, 9, 42, 90
2, 41472, Note_off_c, 9, 42, 64
2, 41472, Note_on_c, 9, 42, 90
2, 41520, Note_off_c, 9, 42, 64
2, 41520, Note_on_c, 9, 42, 90
2, 41568, Note_off_c, 9, 42, 64
2, 41568, Note_on_c, 9, 42, 90
2, 41616, Note_off_c, 9, 42, 64
2, 41616, Note_on_c, 9, 42, 90
2, 41664, Note_off_c, 9, 42, 64
2, 41664, Note_on_c, 9, 42, 90
2, 41712, Note_off_c, 9, 42, 64
2, 41712, Note_on_c, 9, 42, 90
2, 41760, Note_off_c, 9, 42, 64
2, 41760, Note_on_c, 9, 42, 90
2, 41808, Note_off_c, 9, 42, 64
2, 41808, Note_on_c, 9, 42, 90
2, 41856, Note_off_c, 9, 42, 64
2, 41856, Note_on_c, 9, 42, 90
2, 41904, Note_off_c, 9, 42, 64
2, 41904, Note_on_c, 9, 42, 90
2, 41952, Note_off_c, 9, 42, 64
2, 41952, Note_on_c, 9, 42, 90
2, 42000, Note_off_c, 9, 42, 64
2, 42000, Note_on_c, 9, 42, 90
2, 42048, Note_off_c, 9, 42, 64
2, 42048, Note_on_c, 9, 42, 90
2, 42096, Note_off_c, 9, 42, 64
2, 42096, Note_on_c, 9, 42, 90
2, 42144, Note_off_c, 9, 42, 64
2, 42144, Note_on_c, 9, 38, 127
2, 42144, Note_on_c, 9, 42, 90
2, 42192, Note_off_c, 9, 38, 64
2, 42192, Note_off_c, 9, 42, 64
2, 42192, Note_on_c, 9, 42, 90
2, 42240, Note_off_c, 9, 42, 64
2, 42240, Note_on_c, 9, 42, 90
2, 42288, Note_off_c, 9, 42, 64
2, 42288, Note_on_c, 9, 42, 90
2, 42336, Note_off_c, 9, 42, 64
2, 42336, Note_on_c, 9, 42, 90
2, 42384, Note_off_c, 9, 42, 64
2, 42384, Note_on_c, 9, 42, 90
2, 42432, Note_off_c, 9, 42, 64
2, 42432, Note_on_c, 9, 42, 90
2, 42480, Note_off_c, 9, 42, 64
2, 42480, Note_on_c, 9, 42, 90
2, 42528, Note_off_c, 9, 42, 64
2, 42528, Note_on_c, 9, 42, 90
2, 42576, Note_off_c, 9, 42, 64
2, 42576, Note_on_c, 9, 42, 90
2, 42624, Note_off_c, 9, 42, 64
2, 42624, Note_on_c, 9, 42, 90
2, 42672, Note_off_c, 9, 42, 64
2, 42672, Note_on_c, 9, 42, 90
2, 42720, Note_off_c, 9, 42, 64
2, 42720, Note_on_c, 9, 42, 90
2, 42768, Note_off_c, 9, 42, 64
2, 42768, Note_on_c, 9, 42, 90
2, 42816, Note_off_c, 9, 42, 64
2, 42816, Note_on_c, 9, 42, 90
2, 42864, Note_off_c, 9, 42, 64
2, 42864, Note_on_c, 9, 42, 90
2, 42912, Note_off_c, 9, 42, 64
2, 42912, Note_on_c, 9, 38, 127
2, 42912, Note_on_c, 9, 42, 90
2, 42960, Note_off_c, 9, 38, 64
2, 42960, Note_off_c, 9, 42, 64
2, 42960, Note_on_c, 9, 42, 90
2, 43008, Note_off_c, 9, 42, 64
2, 43008, Note_on_c, 9, 42, 90
2, 43056, Note_off_c, 9, 42, 64
2, 43056, Note_on_c, 9, 42, 90
2, 43104, Note_off_c, 9, 42, 64
2, 43104, Note_on_c, 9, 42, 90
2, 43152, Note_off_c, 9, 42, 64
2, 43152, Note_on_c, 9, 42, 90
2, 43200, Note_off_c, 9, 42, 64
2, 43200, Note_on_c, 9, 42, 90
2, 43248, Note_off_c, 9, 42, 64
2, 43248, Note_on_c, 9, 42, 90
2, 43296, Note_off_c, 9, 42, 64
2, 43296, Note_on_c, 9, 42, 90
2, 43344, Note_off_c, 9, 42, 64
2, 43344, Note_on_c, 9, 42, 90
2, 43392, Note_off_c, 9, 42, 64
2, 43392, Note_on_c, 9, 42, 90
2, 43440, Note_off_c, 9, 42, 64
2, 43440, Note_on_c, 9, 42, 90
2, 43488, Note_off_c, 9, 42, 64
2, 43488, Note_on_c, 9, 42, 90
2, 43536, Note_off_c, 9, 42, 64
2, 43536, Note_on_c, 9, 42, 90
2, 43584, Note_off_c, 9, 42, 64
2, 43584, Note_on_c, 9, 38, 127
2, 43584, Note_on_c, 9, 42, 90
2, 43632, Note_off_c, 9, 38, 64
2, 43632, Note_off_c, 9, 42, 64
2, 43632, Note_on_c, 9, 38, 127
2, 43632, Note_on_c, 9, 42, 90
2, 43680, Note_off_c, 9, 38, 64
2, 43680, Note_off_c, 9, 42, 64
2, 43680, Note_on_c, 9, 38, 127
2, 43680, Note_on_c, 9, 42, 90
2, 43728, Note_off_c, 9, 38, 64
2, 43728, Note_off_c, 9, 42, 64
2, 43728, Note_on_c, 9, 42, 90
2, 43776, Note_off_c, 9, 42, 64
2, 43776, Note_on_c, 9, 42, 90
2, 43824, Note_off_c, 9, 42, 64
2, 43824, Note_on_c, 9, 42, 90
2, 43872, Note_off_c, 9, 42, 64
2, 43872, Note_on_c, 9, 42, 90
2, 43920, Note_off_c, 9, 42, 64
2, 43920, Note_on_c, 9, 42, 90
2, 43968, Note_off_c, 9, 42, 64
2, 43968, Note_on_c, 9, 42, 90
2, 44016, Note_off_c, 9, 42, 64
2, 44016, Note_on_c, 9, 42, 90
2, 44064, Note_off_c, 9, 42, 64
2, 44064, Note_on_c, 9, 42, 90
2, 44112, Note_off_c, 9, 42, 64
2, 44112, Note_on_c, 9, 42, 90
2, 44160, Note_off_c, 9, 42, 64
2, 44160, Note_on_c, 9, 42, 90
2, 44208, Note_off_c, 9, 42, 64
2, 44208, Note_on_c, 9, 42, 90
2, 44256, Note_off_c, 9, 42, 64
2, 44256, Note_on_c, 9, 42, 90
2, 44304, Note_off_c, 9, 42, 64
2, 44304, Note_on_c, 9, 42, 90
2, 44352, Note_off_c, 9, 42, 64
2, 44352, Note_on_c, 9, 42, 90
2, 44400, Note_off_c, 9, 42, 64
2, 44400, Note_on_c, 9, 42, 90
2, 44448, Note_off_c, 9, 42, 64
2, 44448, Note_on_c, 9, 38, 127
2, 44448, Note_on_c, 9, 42, 90
2, 44496, Note_off_c, 9, 38, 64
2, 44496, Note_off_c, 9, 42, 64
2, 44496, Note_on_c, 9, 42, 90
2, 44544, Note_off_c, 9, 42, 64
2, 44544, Note_on_c, 9, 42, 90
2, 44592, Note_off_c, 9, 42, 64
2, 44592, Note_on_c, 9, 42, 90
2, 44640, Note_off_c, 9, 42, 64
2, 44640, Note_on_c, 9, 42, 90
2, 44688, Note_off_c, 9, 42, 64
2, 44688, Note_on_c, 9, 42, 90
2, 44736, Note_off_c, 9, 42, 64
2, 44736, Note_on_c, 9, 42, 90
2, 44784, Note_off_c, 9, 42, 64
2, 44784, Note_on_c, 9, 42, 90
2, 44832, Note_off_c, 9, 42, 64
2, 44832, Note_on_c, 9, 42, 90
2, 44880, Note_off_c, 9, 42, 64
2, 44880, Note_on_c, 9, 42, 90
2, 44928, Note_off_c, 9, 42, 64
2, 44928, Note_on_c, 9, 42, 90
2, 44976, Note_off_c, 9, 42, 64
2, 44976, Note_on_c, 9, 42, 90
2, 45024, Note_off_c, 9, 42, 64
2, 45024, Note_on_c, 9, 42, 90
2, 45072, Note_off_c, 9, 42, 64
2, 45072, Note_on_c, 9, 42, 90
2, 45120, Note_off_c, 9, 42, 64
2, 45120, Note_on_c, 9, 42, 90
2, 45168, Note_off_c, 9, 42, 64
2, 45168, Note_on_c, 9, 42, 90
2, 45216, Note_off_c, 9, 42, 64
2, 45216, Note_on_c, 9, 42, 90
2, 45264, Note_off_c, 9, 42, 64
2, 45264, Note_on_c, 9, 42, 90
2, 45312, Note_off_c, 9, 42, 64
2, 45312, Note_on_c, 9, 42, 90
2, 45360, Note_off_c, 9, 42, 64
2, 45360, Note_on_c, 9, 42, 90
2, 45408, Note_off_c, 9, 42, 64
2, 45408, Note_on_c, 9, 42, 90
2, 45456, Note_off_c, 9, 42, 64
2, 45456, Note_on_c, 9, 42, 90
2, 45504, Note_off_c, 9, 42, 64
2, 45504, Note_on_c, 9, 42, 90
2, 45552, Note_off_c, 9, 42, 64
2, 45552, Note_on_c, 9, 42, 90
2, 45600, Note_off_c, 9, 42, 64
2, 45600, Note_on_c, 9, 42, 90
2, 45648, Note_off_c, 9, 42, 64
2, 45648, Note_on_c, 9, 42, 90
2, 45696, Note_off_c, 9, 42, 64
2, 45696, Note_on_c, 9, 42, 90
2, 45744, Note_off_c, 9, 42, 64
2, 45744, Note_on_c, 9, 42, 90
2, 45792, Note_off_c, 9, 42, 64
2, 45792, Note_on_c, 9, 42, 90
2, 45840, Note_off_c, 9, 42, 64
2, 45840, Note_on_c, 9, 42, 90
2, 45888, Note_off_c, 9, 42, 64
2, 45888, Note_on_c, 9, 42, 90
2, 45936, Note_off_c, 9, 42, 64
2, 45936, Note_on_c, 9, 42, 90
2, 45984, Note_off_c, 9, 42, 64
2, 45984, Note_on_c, 9, 42, 90
2, 46032, Note_off_c, 9, 42, 64
2, 46032, Note_on_c, 9, 42, 90
2, 46080, Note_off_c, 9, 42, 64
2, 46080, Note_on_c, 9, 38, 127
2, 46080, Note_on_c, 9, 42, 90
2, 46128, Note_off_c, 9, 38, 64
2, 46128, Note_off_c, 9, 42, 64
2, 46128, Note_on_c, 9, 38, 127
2, 46128, Note_on_c, 9, 42, 90
2, 46176, Note_off_c, 9, 38, 64
2, 46176, Note_off_c, 9, 42, 64
2, 46176, Note_on_c, 9, 38, 127
2, 46176, Note_on_c, 9, 42, 90
2, 46224, Note_off_c, 9, 38, 64
2, 46224, Note_off_c, 9, 42, 64
2, 46224, Note_on_c, 9, 38, 127
2, 46224, Note_on_c, 9, 42, 90
2, 46272, Note_off_c, 9, 38, 64
2, 46272, Note_off_c, 9, 42, 64
2, 46272, Note_on_c, 9, 42, 90
2, 46320, Note_off_c, 9, 42, 64
2, 46320, Note_on_c, 9, 42, 90
2, 46368, Note_off_c, 9, 42, 64
2, 46368, Note_on_c, 9, 38, 127
2, 46368, Note_on_c, 9, 42, 90
2, 46416, Note_off_c, 9, 38, 64
2, 46416, Note_off_c, 9, 42, 64
2, 46416, Note_on_c, 9, 42, 90
2, 46464, Note_off_c, 9, 42, 64
2, 46464, Note_on_c, 9, 42, 90
2, 46512, Note_off_c, 9, 42, 64
2, 46512, Note_on_c, 9, 42, 90
2, 46560, Note_off_c, 9, 42, 64
2, 46560, Note_on_c, 9, 42, 90
2, 46608, Note_off_c, 9, 42, 64
2, 46608, Note_on_c, 9, 42, 90
2, 46656, Note_off_c, 9, 42, 64
2, 46656, Note_on_c, 9, 42, 90
2, 46704, Note_off_c, 9, 42, 64
2, 46704, Note_on_c, 9, 42, 90
2, 46752, Note_off_c, 9, 42, 64
2, 46752, Note_on_c, 9, 42, 90
2, 46800, Note_off_c, 9, 42, 64
2, 46800, Note_on_c, 9, 42, 90
2, 46848, Note_off_c, 9, 42, 64
2, 46848, Note_on_c, 9, 38, 127
2, 46848, Note_on_c, 9, 42, 90
2, 46896, Note_off_c, 9, 38, 64
2, 46896, Note_off_c, 9, 42, 64
2, 46896, Note_on_c, 9, 38, 127
2, 46896, Note_on_c, 9, 42, 90
2, 46944, Note_off_c, 9, 38, 64
2, 46944, Note_off_c, 9, 42, 64
2, 46944, Note_on_c, 9, 38, 127
2, 46944, Note_on_c, 9, 42, 90
2, 46992, Note_off_c, 9, 38, 64
2, 46992, Note_off_c, 9, 42, 64
2, 46992, Note_on_c, 9, 42, 90
2, 47040, Note_off_c, 9, 42, 64
2, 47040, Note_on_c, 9, 42, 90
2, 47088, Note_off_c, 9, 42, 64
2, 47088, Note_on_c, 9, 42, 90
2, 47136, Note_off_c, 9, 42, 64
2, 47136, Note_on_c, 9, 42, 90
2, 47184, Note_off_c, 9, 42, 64
2, 47184, Note_on_c, 9, 42, 90
2, 47232, Note_off_c, 9, 42, 64
2, 47232, Note_on_c, 9, 38, 127
2, 47232, Note_on_c, 9, 42, 90
2, 47280, Note_off_c, 9, 38, 64
2, 47280, Note_off_c, 9, 42, 64
2, 47280, Note_on_c, 9, 38, 127
2, 47280, Note_on_c, 9, 42, 90
2, 47328, Note_off_c, 9, 38, 64
2, 47328, Note_off_c, 9, 42, 64
2, 47328, Note_on_c, 9, 38, 127
2, 47328, Note_on_c, 9, 42, 90
2, 47376, Note_off_c, 9, 38, 64
2, 47376, Note_off_c, 9, 42, 64
2, 47376, Note_on_c, 9, 42, 90
2, 47424, Note_off_c, 9, 42, 64
2, 47424, Note_on_c, 9, 42, 90
2, 47472, Note_off_c, 9, 42, 64
2, 47472, Note_on_c, 9, 42, 90
2, 47520, Note_off_c, 9, 42, 64
2, 47520, Note_on_c, 9, 42, 90
2, 47568, Note_off_c, 9, 42, 64
2, 47568, Note_on_c, 9, 42, 90
2, 47616, Note_off_c, 9, 42, 64
2, 47616, Note_on_c, 9, 38, 127
2, 47616, Note_on_c, 9, 42, 90
2, 47664, Note_off_c, 9, 38, 64
2, 47664, Note_off_c, 9, 42, 64
2, 47664, Note_on_c, 9, 38, 127
2, 47664, Note_on_c, 9, 42, 90
2, 47712, Note_off_c, 9, 38, 64
2, 47712, Note_off_c, 9, 42, 64
2, 47712, Note_on_c, 9, 38, 127
2, 47712, Note_on_c, 9, 42, 90
2, 47760, Note_off_c, 9, 38, 64
2, 47760, Note_off_c, 9, 42, 64
2, 47760, Note_on_c, 9, 38, 127
2, 47760, Note_on_c, 9, 42, 90
2, 47808, Note_off_c, 9, 38, 64
2, 47808, Note_off_c, 9, 42, 64
2, 47808, Note_on_c, 9, 42, 90
2, 47856, Note_off_c, 9, 42, 64
2, 47856, Note_on_c, 9, 42, 90
2, 47904, Note_off_c, 9, 42, 64
2, 47904, Note_on_c, 9, 38, 127
2, 47904, Note_on_c, 9, 42, 90
2, 47952, Note_off_c, 9, 38, 64
2, 47952, Note_off_c, 9, 42, 64
2, 47952, Note_on_c, 9, 42, 90
2, 48000, Note_off_c, 9, 42, 64
2, 48000, Note_on_c, 9, 42, 90
2, 48048, Note_off_c, 9, 42, 64
2, 48048, Note_on_c, 9, 42, 90
2, 48096, Note_off_c, 9, 42, 64
2, 48096, Note_on_c, 9, 42, 90
2, 48144, Note_off_c, 9, 42, 64
2, 48144, Note_on_c, 9, 42, 90
2, 48192, Note_off_c, 9, 42, 64
2, 48192, Note_on_c, 9, 42, 90
2, 48240, Note_off_c, 9, 42, 64
2, 48240, Note_on_c, 9, 42, 90
2, 48288, Note_off_c, 9, 42, 64
2, 48288, Note_on_c, 9, 42, 90
2, 48336, Note_off_c, 9, 42, 64
2, 48336, Note_on_c, 9, 42, 90
2, 48384, Note_off_c, 9, 42, 64
2, 48384, Note_on_c, 9, 38, 127
2, 48384, Note_on_c, 9, 42, 90
2, 48432, Note_off_c, 9, 38, 64
2, 48432, Note_off_c, 9, 42, 64
2, 48432, Note_on_c, 9, 38, 127
2, 48432, Note_on_c, 9, 42, 90
2, 48480, Note_off_c, 9, 38, 64
2, 48480, Note_off_c, 9, 42, 64
2, 48480, Note_on_c, 9, 38, 127
2, 48480, Note_on_c, 9, 42, 90
2, 48528, Note_off_c, 9, 38, 64
2, 48528, Note_off_c, 9, 42, 64
2, 48528, Note_on_c, 9, 42, 90
2, 48576, Note_off_c, 9, 42, 64
2, 48576, Note_on_c, 9, 42, 90
2, 48624, Note_off_c, 9, 42, 64
2, 48624, Note_on_c, 9, 42, 90
2, 48672, Note_off_c, 9, 42, 64
2, 48672, Note_on_c, 9, 42, 90
2, 48720, Note_off_c, 9, 42, 64
2, 48720, Note_on_c, 9, 42, 90
2, 48768, Note_off_c, 9, 42, 64
2, 48768, Note_on_c, 9, 38, 127
2, 48768, Note_on_c, 9, 42, 90
2, 48816, Note_off_c, 9, 38, 64
2, 48816, Note_off_c, 9, 42, 64
2, 48816, Note_on_c, 9, 38, 127
2, 48816, Note_on_c, 9, 42, 90
2, 48864, Note_off_c, 9, 38, 64
2, 48864, Note_off_c, 9, 42, 64
2, 48864, Note_on_c, 9, 38, 127
2, 48864, Note_on_c, 9, 42, 90
2, 48912, Note_off_c, 9, 38, 64
2, 48912, Note_off_c, 9, 42, 64
2, 48912, Note_on_c, 9, 42, 90
2, 48960, Note_off_c, 9, 42, 64
2, 48960, Note_on_c, 9, 42, 90
2, 49008, Note_off_c, 9, 42, 64
2, 49008, Note_on_c, 9, 42, 90
2, 49056, Note_off_c, 9, 42, 64
2, 49056, Note_on_c, 9, 38, 127
2, 49056, Note_on_c, 9, 42, 90
2, 49104, Note_off_c, 9, 38, 64
2, 49104, Note_off_c, 9, 42, 64
2, 49104, Note_on_c, 9, 42, 90
2, 49152, Note_off_c, 9, 42, 64
2, 49152, Note_on_c, 9, 42, 90
2, 49200, Note_off_c, 9, 42, 64
2, 49200, Note_on_c, 9, 42, 90
2, 49248, Note_off_c, 9, 42, 64
2, 49248, Note_on_c, 9, 42, 90
2, 49296, Note_off_c, 9, 42, 64
2, 49296, Note_on_c, 9, 42, 90
2, 49344, Note_off_c, 9, 42, 64
2, 49344, Note_on_c, 9, 42, 90
2, 49392, Note_off_c, 9, 42, 64
2, 49392, Note_on_c, 9, 42, 90
2, 49440, Note_off_c, 9, 42, 64
2, 49440, Note_on_c, 9, 42, 90
2, 49488, Note_off_c, 9, 42, 64
2, 49488, Note_on_c, 9, 42, 90
2, 49536, Note_off_c, 9, 42, 64
2, 49536, Note_on_c, 9, 42, 90
2, 49584, Note_off_c, 9, 42, 64
2, 49584, Note_on_c, 9, 42, 90
2, 49632, Note_off_c, 9, 42, 64
2, 49632, Note_on_c, 9, 42, 90
2, 49680, Note_off_c, 9, 42, 64
2, 49680, Note_on_c, 9, 42, 90
2, 49728, Note_off_c, 9, 42, 64
2, 49728, Note_on_c, 9, 42, 90
2, 49776, Note_off_c, 9, 42, 64
2, 49776, Note_on_c, 9, 42, 90
2, 49824, Note_off_c, 9, 42, 64
2, 49824, Note_on_c, 9, 38, 127
2, 49824, Note_on_c, 9, 42, 90
2, 49872, Note_off_c, 9, 38, 64
2, 49872, Note_off_c, 9, 42, 64
2, 49872, Note_on_c, 9, 42, 90
2, 49920, Note_off_c, 9, 42, 64
2, 49920, Note_on_c, 9, 42, 90
2, 49968, Note_off_c, 9, 42, 64
2, 49968, Note_on_c, 9, 42, 90
2, 50016, Note_off_c, 9, 42, 64
2, 50016, Note_on_c, 9, 42, 90
2, 50064, Note_off_c, 9, 42, 64
2, 50064, Note_on_c, 9, 42, 90
2, 50112, Note_off_c, 9, 42, 64
2, 50112, Note_on_c, 9, 42, 90
2, 50160, Note_off_c, 9, 42, 64
2, 50160, Note_on_c, 9, 42, 90
2, 50208, Note_off_c, 9, 42, 64
2, 50208, Note_on_c, 9, 38, 127
2, 50208, Note_on_c, 9, 42, 90
2, 50256, Note_off_c, 9, 38, 64
2, 50256, Note_off_c, 9, 42, 64
2, 50256, Note_on_c, 9, 42, 90
2, 50304, Note_off_c, 9, 42, 64
2, 50304, Note_on_c, 9, 42, 90
2, 50352, Note_off_c, 9, 42, 64
2, 50352, Note_on_c, 9, 42, 90
2, 50400, Note_off_c, 9, 42, 64
2, 50400, Note_on_c, 9, 42, 90
2, 50448, Note_off_c, 9, 42, 64
2, 50448, Note_on_c, 9, 42, 90
2, 50496, Note_off_c, 9, 42, 64
2, 50496, Note_on_c, 9, 38, 127
2, 50496, Note_on_c, 9, 42, 90
2, 50544, Note_off_c, 9, 38, 64
2, 50544, Note_off_c, 9, 42, 64
2, 50544, Note_on_c, 9, 38, 127
2, 50544, Note_on_c, 9, 42, 90
2, 50592, Note_off_c, 9, 38, 64
2, 50592, Note_off_c, 9, 42, 64
2, 50592, Note_on_c, 9, 38, 127
2, 50592, Note_on_c, 9, 42, 90
2, 50640, Note_off_c, 9, 38, 64
2, 50640, Note_off_c, 9, 42, 64
2, 50640, Note_on_c, 9, 42, 90
2, 50688, Note_off_c, 9, 42, 64
2, 50688, Note_on_c, 9, 42, 90
2, 50736, Note_off_c, 9, 42, 64
2, 50736, Note_on_c, 9, 42, 90
2, 50784, Note_off_c, 9, 42, 64
2, 50784, Note_on_c, 9, 42, 90
2, 50832, Note_off_c, 9, 42, 64
2, 50832, Note_on_c, 9, 42, 90
2, 50880, Note_off_c, 9, 42, 64
2, 50880, Note_on_c, 9, 42, 90
2, 50928, Note_off_c, 9, 42, 64
2, 50928, Note_on_c, 9, 42, 90
2, 50976, Note_off_c, 9, 42, 64
2, 50976, Note_on_c, 9, 38, 127
2, 50976, Note_on_c, 9, 42, 90
2, 51024, Note_off_c, 9, 38, 64
2, 51024, Note_off_c, 9, 42, 64
2, 51024, Note_on_c, 9, 42, 90
2, 51072, Note_off_c, 9, 42, 64
2, 51072, Note_on_c, 9, 42, 90
2, 51120, Note_off_c, 9, 42, 64
2, 51120, Note_on_c, 9, 42, 90
2, 51168, Note_off_c, 9, 42, 64
2, 51168, Note_on_c, 9, 42, 90
2, 51216, Note_off_c, 9, 42, 64
2, 51216, Note_on_c, 9, 42, 90
2, 51264, Note_off_c, 9, 42, 64
2, 51264, Note_on_c, 9, 42, 90
2, 51312, Note_off_c, 9, 42, 64
2, 51312, Note_on_c, 9, 42, 90
2, 51360, Note_off_c, 9, 42, 64
2, 51360, Note_on_c, 9, 38, 127
2, 51360, Note_on_c, 9, 42, 90
2, 51408, Note_off_c, 9, 38, 64
2, 51408, Note_off_c, 9, 42, 64
2, 51408, Note_on_c, 9, 42, 90
2, 51456, Note_off_c, 9, 42, 64
2, 51456, Note_on_c, 9, 42, 90
2, 51504, Note_off_c, 9, 42, 64
2, 51504, Note_on_c, 9, 42, 90
2, 51552, Note_off_c, 9, 42, 64
2, 51552, Note_on_c, 9, 42, 90
2, 51600, Note_off_c, 9, 42, 64
2, 51600, Note_on_c, 9, 42, 90
2, 51648, Note_off_c, 9, 42, 64
2, 51648, Note_on_c, 9, 42, 90
2, 51696, Note_off_c, 9, 42, 64
2, 51696, Note_on_c, 9, 38, 127
2, 51696, Note_on_c, 9, 42, 90
2, 51744, Note_off_c, 9, 38, 64
2, 51744, Note_off_c, 9, 42, 64
2, 51744, Note_on_c, 9, 38, 127
2, 51744, Note_on_c, 9, 42, 90
2, 51792, Note_off_c, 9, 38, 64
2, 51792, Note_off_c, 9, 42, 64
2, 51792, Note_on_c, 9, 42, 90
2, 51840, Note_off_c, 9, 42, 64
2, 51840, Note_on_c, 9, 42, 90
2, 51888, Note_off_c, 9, 42, 64
2, 51888, Note_on_c, 9, 42, 90
2, 51936, Note_off_c, 9, 42, 64
2, 51936, Note_on_c, 9, 42, 90
2, 51984, Note_off_c, 9, 42, 64
2, 51984, Note_on_c, 9, 42, 90
2, 52032, Note_off_c, 9, 42, 64
2, 52032, Note_on_c, 9, 38, 127
2, 52032, Note_on_c, 9, 42, 90
2, 52080, Note_off_c, 9, 38, 64
2, 52080, Note_off_c, 9, 42, 64
2, 52080, Note_on_c, 9, 38, 127
2, 52080, Note_on_c, 9, 42, 90
2, 52128, Note_off_c, 9, 38, 64
2, 52128, Note_off_c, 9, 42, 64
2, 52128, Note_on_c, 9, 38, 127
2, 52128, Note_on_c, 9, 42, 90
2, 52176, Note_off_c, 9, 38, 64
2, 52176, Note_off_c, 9, 42, 64
2, 52176, Note_on_c, 9, 42, 90
2, 52224, Note_off_c, 9, 42, 64
2, 52224, Note_on_c, 9, 42, 90
2, 52272, Note_off_c, 9, 42, 64
2, 52272, Note_on_c, 9, 42, 90
2, 52320, Note_off_c, 9, 42, 64
2, 52320, Note_on_c, 9, 42, 90
2, 52368, Note_off_c, 9, 42, 64
2, 52368, Note_on_c, 9, 42, 90
2, 52416, Note_off_c, 9, 42, 64
2, 52416, Note_on_c, 9, 42, 90
2, 52464, Note_off_c, 9, 42, 64
2, 52464, Note_on_c, 9, 42, 90
2, 52512, Note_off_c, 9, 42, 64
2, 52512, Note_on_c, 9, 38, 127
2, 52512, Note_on_c, 9, 42, 90
2, 52560, Note_off_c, 9, 38, 64
2, 52560, Note_off_c, 9, 42, 64
2, 52560, Note_on_c, 9, 42, 90
2, 52608, Note_off_c, 9, 42, 64
2, 52608, Note_on_c, 9, 42, 90
2, 52656, Note_off_c, 9, 42, 64
2, 52656, Note_on_c, 9, 42, 90
2, 52704, Note_off_c, 9, 42, 64
2, 52704, Note_on_c, 9, 42, 90
2, 52752, Note_off_c, 9, 42, 64
2, 52752, Note_on_c, 9, 42, 90
2, 52800, Note_off_c, 9, 42, 64
2, 52800, Note_on_c, 9, 42, 90
2, 52848, Note_off_c, 9, 42, 64
2, 52848, Note_on_c, 9, 42, 90
2, 52896, Note_off_c, 9, 42, 64
2, 52896, Note_on_c, 9, 38, 127
2, 52896, Note_on_c, 9, 42, 90
2, 52944, Note_off_c, 9, 38, 64
2, 52944, Note_off_c, 9, 42, 64
2, 52944, Note_on_c, 9, 42, 90
2, 52992, Note_off_c, 9, 42, 64
2, 52992, Note_on_c, 9, 42, 90
2, 53040, Note_off_c, 9, 42, 64
2, 53040, Note_on_c, 9, 42, 90
2, 53088, Note_off_c, 9, 42, 64
2, 53088, Note_on_c, 9, 42, 90
2, 53136, Note_off_c, 9, 42, 64
2, 53136, Note_on_c, 9, 42, 90
2, 53184, Note_off_c, 9, 42, 64
2, 53184, Note_on_c, 9, 42, 90
2, 53232, Note_off_c, 9, 42, 64
2, 53232, Note_on_c, 9, 38, 127
2, 53232, Note_on_c, 9, 42, 90
2, 53280, Note_off_c, 9, 38, 64
2, 53280, Note_off_c, 9, 42, 64
2, 53280, Note_on_c, 9, 38, 127
2, 53280, Note_on_c, 9, 42, 90
2, 53328, Note_off_c, 9, 38, 64
2, 53328, Note_off_c, 9, 42, 64
2, 53328, Note_on_c, 9, 42, 90
2, 53376, Note_off_c, 9, 42, 64
2, 53376, Note_on_c, 9, 42, 90
2, 53424, Note_off_c, 9, 42, 64
2, 53424, Note_on_c, 9, 42, 90
2, 53472, Note_off_c, 9, 42, 64
2, 53472, Note_on_c, 9, 42, 90
2, 53520, Note_off_c, 9, 42, 64
2, 53520, Note_on_c, 9, 42, 90
2, 53568, Note_off_c, 9, 42, 64
2, 53568, Note_on_c, 9, 42, 90
2, 53616, Note_off_c, 9, 42, 64
2, 53616, Note_on_c, 9, 38, 127
2, 53616, Note_on_c, 9, 42, 90
2, 53664, Note_off_c, 9, 38, 64
2, 53664, Note_off_c, 9, 42, 64
2, 53664, Note_on_c, 9, 38, 127
2, 53664, Note_on_c, 9, 42, 90
2, 53712, Note_off_c, 9, 38, 64
2, 53712, Note_off_c, 9, 42, 64
2, 53712, Note_on_c, 9, 42, 90
2, 53760, Note_off_c, 9, 42, 64
2, 53760, Note_on_c, 9, 42, 90
2, 53808, Note_off_c, 9, 42, 64
2, 53808, Note_on_c, 9, 42, 90
2, 53856, Note_off_c, 9, 42, 64
2, 53856, Note_on_c, 9, 42, 90
2, 53904, Note_off_c, 9, 42, 64
2, 53904, Note_on_c, 9, 42, 90
2, 53952, Note_off_c, 9, 42, 64
2, 53952, Note_on_c, 9, 42, 90
2, 54000, Note_off_c, 9, 42, 64
2, 54000, Note_on_c, 9, 42, 90
2, 54048, Note_off_c, 9, 42, 64
2, 54048, Note_on_c, 9, 38, 127
2, 54048, Note_on_c, 9, 42, 90
2, 54096, Note_off_c, 9, 38, 64
2, 54096, Note_off_c, 9, 42, 64
2, 54096, Note_on_c, 9, 42, 90
2, 54144, Note_off_c, 9, 42, 64
2, 54144, Note_on_c, 9, 42, 90
2, 54192, Note_off_c, 9, 42, 64
2, 54192, Note_on_c, 9, 42, 90
2, 54240, Note_off_c, 9, 42, 64
2, 54240, Note_on_c, 9, 42, 90
2, 54288, Note_off_c, 9, 42, 64
2, 54288, Note_on_c, 9, 42, 90
2, 54336, Note_off_c, 9, 42, 64
2, 54336, Note_on_c, 9, 42, 90
2, 54384, Note_off_c, 9, 42, 64
2, 54384, Note_on_c, 9, 42, 90
2, 54432, Note_off_c, 9, 42, 64
2, 54432, Note_on_c, 9, 38, 127
2, 54432, Note_on_c, 9, 42, 90
2, 54480, Note_off_c, 9, 38, 64
2, 54480, Note_off_c, 9, 42, 64
2, 54480, Note_on_c, 9, 42, 90
2, 54528, Note_off_c, 9, 42, 64
2, 54528, Note_on_c, 9, 42, 90
2, 54576, Note_off_c, 9, 42, 64
2, 54576, Note_on_c, 9, 42, 90
2, 54624, Note_off_c, 9, 42, 64
2, 54624, Note_on_c, 9, 42, 90
2, 54672, Note_off_c, 9, 42, 64
2, 54672, Note_on_c, 9, 42, 90
2, 54720, Note_off_c, 9, 42, 64
2, 54720, Note_on_c, 9, 42, 90
2, 54768, Note_off_c, 9, 42, 64
2, 54768, Note_on_c, 9, 38, 127
2, 54768, Note_on_c, 9, 42, 90
2, 54816, Note_off_c, 9, 38, 64
2, 54816, Note_off_c, 9, 42, 64
2, 54816, Note_on_c, 9, 38, 127
2, 54816, Note_on_c, 9, 42, 90
2, 54864, Note_off_c, 9, 38, 64
2, 54864, Note_off_c, 9, 42, 64
2, 54864, Note_on_c, 9, 42, 90
2, 54912, Note_off_c, 9, 42, 64
2, 54912, Note_on_c, 9, 42, 90
2, 54960, Note_off_c, 9, 42, 64
2, 54960, Note_on_c, 9, 42, 90
2, 55008, Note_off_c, 9, 42, 64
2, 55008, Note_on_c, 9, 42, 90
2, 55056, Note_off_c, 9, 42, 64
2, 55056, Note_on_c, 9, 42, 90
2, 55104, Note_off_c, 9, 42, 64
2, 55104, Note_on_c, 9, 38, 127
2, 55104, Note_on_c, 9, 42, 90
2, 55152, Note_off_c, 9, 38, 64
2, 55152, Note_off_c, 9, 42, 64
2, 55152, Note_on_c, 9, 38, 127
2, 55152, Note_on_c, 9, 42, 90
2, 55200, Note_off_c, 9, 38, 64
2, 55200, Note_off_c, 9, 42, 64
2, 55200, Note_on_c, 9, 38, 127
2, 55200, Note_on_c, 9, 42, 90
2, 55248, Note_off_c, 9, 38, 64
2, 55248, Note_off_c, 9, 42, 64
2, 55248, Note_on_c, 9, 42, 90
2, 55296, Note_off_c, 9, 42, 64
2, 55296, Note_on_c, 9, 42, 90
2, 55344, Note_off_c, 9, 42, 64
2, 55344, Note_on_c, 9, 42, 90
2, 55392, Note_off_c, 9, 42, 64
2, 55392, Note_on_c, 9, 42, 90
2, 55440, Note_off_c, 9, 42, 64
2, 55440, Note_on_c, 9, 42, 90
2, 55488, Note_off_c, 9, 42, 64
2, 55488, Note_on_c, 9, 42, 90
2, 55536, Note_off_c, 9, 42, 64
2, 55536, Note_on_c, 9, 42, 90
2, 55584, Note_off_c, 9, 42, 64
2, 55584, Note_on_c, 9, 38, 127
2, 55584, Note_on_c, 9, 42, 90
2, 55632, Note_off_c, 9, 38, 64
2, 55632, Note_off_c, 9, 42, 64
2, 55632, Note_on_c, 9, 42, 90
2, 55680, Note_off_c, 9, 42, 64
2, 55680, Note_on_c, 9, 42, 90
2, 55728, Note_off_c, 9, 42, 64
2, 55728, Note_on_c, 9, 42, 90
2, 55776, Note_off_c, 9, 42, 64
2, 55776, Note_on_c, 9, 42, 90
2, 55824, Note_off_c, 9, 42, 64
2, 55824, Note_on_c, 9, 42, 90
2, 55872, Note_off_c, 9, 42, 64
2, 55872, Note_on_c, 9, 42, 90
2, 55920, Note_off_c, 9, 42, 64
2, 55920, Note_on_c, 9, 42, 90
2, 55968, Note_off_c, 9, 42, 64
2, 55968, Note_on_c, 9, 38, 127
2, 55968, Note_on_c, 9, 42, 90
2, 56016, Note_off_c, 9, 38, 64
2, 56016, Note_off_c, 9, 42, 64
2, 56016, Note_on_c, 9, 42, 90
2, 56064, Note_off_c, 9, 42, 64
2, 56064, Note_on_c, 9, 42, 90
2, 56112, Note_off_c, 9, 42, 64
2, 56112, Note_on_c, 9, 42, 90
2, 56160, Note_off_c, 9, 42, 64
2, 56160, Note_on_c, 9, 42, 90
2, 56208, Note_off_c, 9, 42, 64
2, 56208, Note_on_c, 9, 42, 90
2, 56256, Note_off_c, 9, 42, 64
2, 56256, Note_on_c, 9, 42, 90
2, 56304, Note_off_c, 9, 42, 64
2, 56304, Note_on_c, 9, 38, 127
2, 56304, Note_on_c, 9, 42, 90
2, 56352, Note_off_c, 9, 38, 64
2, 56352, Note_off_c, 9, 42, 64
2, 56352, Note_on_c, 9, 38, 127
2, 56352, Note_on_c, 9, 42, 90
2, 56400, Note_off_c, 9, 38, 64
2, 56400, Note_off_c, 9, 42, 64
2, 56400, Note_on_c, 9, 42, 90
2, 56448, Note_off_c, 9, 42, 64
2, 56448, Note_on_c, 9, 42, 90
2, 56496, Note_off_c, 9, 42, 64
2, 56496, Note_on_c, 9, 42, 90
2, 56544, Note_off_c, 9, 42, 64
2, 56544, Note_on_c, 9, 42, 90
2, 56592, Note_off_c, 9, 42, 64
2, 56592, Note_on_c, 9, 42, 90
2, 56640, Note_off_c, 9, 42, 64
2, 56640, Note_on_c, 9, 42, 90
2, 56688, Note_off_c, 9, 42, 64
2, 56688, Note_on_c, 9, 38, 127
2, 56688, Note_on_c, 9, 42, 90
2, 56736, Note_off_c, 9, 38, 64
2, 56736, Note_off_c, 9, 42, 64
2, 56736, Note_on_c, 9, 38, 127
2, 56736, Note_on_c, 9, 42, 90
2, 56784, Note_off_c, 9, 38, 64
2, 56784, Note_off_c, 9, 42, 64
2, 56784, Note_on_c, 9, 42, 90
2, 56832, Note_off_c, 9, 42, 64
2, 56832, Note_on_c, 9, 42, 90
2, 56880, Note_off_c, 9, 42, 64
2, 56880, Note_on_c, 9, 42, 90
2, 56928, Note_off_c, 9, 42, 64
2, 56928, Note_on_c, 9, 42, 90
2, 56976, Note_off_c, 9, 42, 64
2, 56976, Note_on_c, 9, 42, 90
2, 57024, Note_off_c, 9, 42, 64
2, 57024, Note_on_c, 9, 42, 90
2, 57072, Note_off_c, 9, 42, 64
2, 57072, Note_on_c, 9, 42, 90
2, 57120, Note_off_c, 9, 42, 64
2, 57120, Note_on_c, 9, 38, 127
2, 57120, Note_on_c, 9, 42, 90
2, 57168, Note_off_c, 9, 38, 64
2, 57168, Note_off_c, 9, 42, 64
2, 57168, Note_on_c, 9, 42, 90
2, 57216, Note_off_c, 9, 42, 64
2, 57216, Note_on_c, 9, 42, 90
2, 57264, Note_off_c, 9, 42, 64
2, 57264, Note_on_c, 9, 42, 90
2, 57312, Note_off_c, 9, 42, 64
2, 57312, Note_on_c, 9, 42, 90
2, 57360, Note_off_c, 9, 42, 64
2, 57360, Note_on_c, 9, 42, 90
2, 57408, Note_off_c, 9, 42, 64
2, 57408, Note_on_c, 9, 42, 90
2, 57456, Note_off_c, 9, 42, 64
2, 57456, Note_on_c, 9, 42, 90
2, 57504, Note_off_c, 9, 42, 64
2, 57504, Note_on_c, 9, 38, 127
2, 57504, Note_on_c, 9, 42, 90
2, 57552, Note_off_c, 9, 38, 64
2, 57552, Note_off_c, 9, 42, 64
2, 57552, Note_on_c, 9, 42, 90
2, 57600, Note_off_c, 9, 42, 64
2, 57600, Note_on_c, 9, 42, 90
2, 57648, Note_off_c, 9, 42, 64
2, 57648, Note_on_c, 9, 42, 90
2, 57696, Note_off_c, 9, 42, 64
2, 57696, Note_on_c, 9, 42, 90
2, 57744, Note_off_c, 9, 42, 64
2, 57744, Note_on_c, 9, 42, 90
2, 57792, Note_off_c, 9, 42, 64
2, 57792, Note_on_c, 9, 42, 90
2, 57840, Note_off_c, 9, 42, 64
2, 57840, Note_on_c, 9, 38, 127
2, 57840, Note_on_c, 9, 42, 90
2, 57888, Note_off_c, 9, 38, 64
2, 57888, Note_off_c, 9, 42, 64
2, 57888, Note_on_c, 9, 38, 127
2, 57888, Note_on_c, 9, 42, 90
2, 57936, Note_off_c, 9, 38, 64
2, 57936, Note_off_c, 9, 42, 64
2, 57936, Note_on_c, 9, 42, 90
2, 57984, Note_off_c, 9, 42, 64
2, 57984, Note_on_c, 9, 42, 90
2, 58032, Note_off_c, 9, 42, 64
2, 58032, Note_on_c, 9, 42, 90
2, 58080, Note_off_c, 9, 42, 64
2, 58080, Note_on_c, 9, 42, 90
2, 58128, Note_off_c, 9, 42, 64
2, 58128, Note_on_c, 9, 42, 90
2, 58176, Note_off_c, 9, 42, 64
2, 58176, Note_on_c, 9, 38, 127
2, 58176, Note_on_c, 9, 42, 90
2, 58224, Note_off_c, 9, 38, 64
2, 58224, Note_off_c, 9, 42, 64
2, 58224, Note_on_c, 9, 38, 127
2, 58224, Note_on_c, 9, 42, 90
2, 58272, Note_off_c, 9, 38, 64
2, 58272, Note_off_c, 9, 42, 64
2, 58272, Note_on_c, 9, 38, 127
2, 58272, Note_on_c, 9, 42, 90
2, 58320, Note_off_c, 9, 38, 64
2, 58320, Note_off_c, 9, 42, 64
2, 58320, Note_on_c, 9, 42, 90
2, 58368, Note_off_c, 9, 42, 64
2, 58368, Note_on_c, 9, 38, 127
2, 58368, Note_on_c, 9, 42, 90
2, 58416, Note_off_c, 9, 38, 64
2, 58416, Note_off_c, 9, 42, 64
2, 58416, Note_on_c, 9, 42, 90
2, 58464, Note_off_c, 9, 42, 64
2, 58464, Note_on_c, 9, 38, 127
2, 58464, Note_on_c, 9, 42, 90
2, 58512, Note_off_c, 9, 38, 64
2, 58512, Note_off_c, 9, 42, 64
2, 58512, Note_on_c, 9, 42, 90
2, 58560, Note_off_c, 9, 42, 64
2, 58560, Note_on_c, 9, 38, 127
2, 58560, Note_on_c, 9, 42, 90
2, 58608, Note_off_c, 9, 38, 64
2, 58608, Note_off_c, 9, 42, 64
2, 58608, Note_on_c, 9, 42, 90
2, 58656, Note_off_c, 9, 42, 64
2, 58656, Note_on_c, 9, 42, 90
2, 58704, Note_off_c, 9, 42, 64
2, 58704, Note_on_c, 9, 42, 90
2, 58752, Note_off_c, 9, 42, 64
2, 58752, Note_on_c, 9, 38, 127
2, 58752, Note_on_c, 9, 42, 90
2, 58800, Note_off_c, 9, 38, 64
2, 58800, Note_off_c, 9, 42, 64
2, 58800, Note_on_c, 9, 38, 127
2, 58800, Note_on_c, 9, 42, 90
2, 58848, Note_off_c, 9, 38, 64
2, 58848, Note_off_c, 9, 42, 64
2, 58848, Note_on_c, 9, 38, 127
2, 58848, Note_on_c, 9, 42, 90
2, 58896, Note_off_c, 9, 38, 64
2, 58896, Note_off_c, 9, 42, 64
2, 58896, Note_on_c, 9, 38, 127
2, 58896, Note_on_c, 9, 42, 90
2, 58944, Note_off_c, 9, 38, 64
2, 58944, Note_off_c, 9, 42, 64
2, 58944, Note_on_c, 9, 38, 127
2, 58944, Note_on_c, 9, 42, 90
2, 58992, Note_off_c, 9, 38, 64
2, 58992, Note_off_c, 9, 42, 64
2, 58992, Note_on_c, 9, 42, 90
2, 59040, Note_off_c, 9, 42, 64
2, 59040, Note_on_c, 9, 42, 90
2, 59088, Note_off_c, 9, 42, 64
2, 59088, Note_on_c, 9, 42, 90
2, 59136, Note_off_c, 9, 42, 64
2, 59136, Note_on_c, 9, 38, 127
2, 59136, Note_on_c, 9, 42, 90
2, 59184, Note_off_c, 9, 38, 64
2, 59184, Note_off_c, 9, 42, 64
2, 59184, Note_on_c, 9, 42, 90
2, 59232, Note_off_c, 9, 42, 64
2, 59232, Note_on_c, 9, 38, 127
2, 59232, Note_on_c, 9, 42, 90
2, 59280, Note_off_c, 9, 38, 64
2, 59280, Note_off_c, 9, 42, 64
2, 59280, Note_on_c, 9, 42, 90
2, 59328, Note_off_c, 9, 42, 64
2, 59328, Note_on_c, 9, 38, 127
2, 59328, Note_on_c, 9, 42, 90
2, 59376, Note_off_c, 9, 38, 64
2, 59376, Note_off_c, 9, 42, 64
2, 59376, Note_on_c, 9, 42, 90
2, 59424, Note_off_c, 9, 42, 64
2, 59424, Note_on_c, 9, 42, 90
2, 59472, Note_off_c, 9, 42, 64
2, 59472, Note_on_c, 9, 42, 90
2, 59520, Note_off_c, 9, 42, 64
2, 59520, Note_on_c, 9, 38, 127
2, 59520, Note_on_c, 9, 42, 90
2, 59568, Note_off_c, 9, 38, 64
2, 59568, Note_off_c, 9, 42, 64
2, 59568, Note_on_c, 9, 38, 127
2, 59568, Note_on_c, 9, 42, 90
2, 59616, Note_off_c, 9, 38, 64
2, 59616, Note_off_c, 9, 42, 64
2, 59616, Note_on_c, 9, 38, 127
2, 59616, Note_on_c, 9, 42, 90
2, 59664, Note_off_c, 9, 38, 64
2, 59664, Note_off_c, 9, 42, 64
2, 59664, Note_on_c, 9, 38, 127
2, 59664, Note_on_c, 9, 42, 90
2, 59712, Note_off_c, 9, 38, 64
2, 59712, Note_off_c, 9, 42, 64
2, 59712, Note_on_c, 9, 38, 127
2, 59712, Note_on_c, 9, 42, 90
2, 59760, Note_off_c, 9, 38, 64
2, 59760, Note_off_c, 9, 42, 64
2, 59760, Note_on_c, 9, 42, 90
2, 59808, Note_off_c, 9, 42, 64
2, 59808, Note_on_c, 9, 42, 90
2, 59856, Note_off_c, 9, 42, 64
2, 59856, Note_on_c, 9, 42, 90
2, 59904, Note_off_c, 9, 42, 64
2, 59904, Note_on_c, 9, 38, 127
2, 59904, Note_on_c, 9, 42, 90
2, 59952, Note_off_c, 9, 38, 64
2, 59952, Note_off_c, 9, 42, 64
2, 59952, Note_on_c, 9, 42, 90
2, 60000, Note_off_c, 9, 42, 64
2, 60000, Note_on_c, 9, 38, 127
2, 60000, Note_on_c, 9, 42, 90
2, 60048, Note_off_c, 9, 38, 64
2, 60048, Note_off_c, 9, 42, 64
2, 60048, Note_on_c, 9, 42, 90
2, 60096, Note_off_c, 9, 42, 64
2, 60096, Note_on_c, 9, 38, 127
2, 60096, Note_on_c, 9, 42, 90
2, 60144, Note_off_c, 9, 38, 64
2, 60144, Note_off_c, 9, 42, 64
2, 60144, Note_on_c, 9, 42, 90
2, 60192, Note_off_c, 9, 42, 64
2, 60192, Note_on_c, 9, 42, 90
2, 60240, Note_off_c, 9, 42, 64
2, 60240, Note_on_c, 9, 42, 90
2, 60288, Note_off_c, 9, 42, 64
2, 60288, Note_on_c, 9, 38, 127
2, 60288, Note_on_c, 9, 42, 90
2, 60336, Note_off_c, 9, 38, 64
2, 60336, Note_off_c, 9, 42, 64
2, 60336, Note_on_c, 9, 38, 127
2, 60336, Note_on_c, 9, 42, 90
2, 60384, Note_off_c, 9, 38, 64
2, 60384, Note_off_c, 9, 42, 64
2, 60384, Note_on_c, 9, 38, 127
2, 60384, Note_on_c, 9, 42, 90
2, 60432, Note_off_c, 9, 38, 64
2, 60432, Note_off_c, 9, 42, 64
2, 60432, Note_on_c, 9, 38, 127
2, 60432, Note_on_c, 9, 42, 90
2, 60480, Note_off_c, 9, 38, 64
2, 60480, Note_off_c, 9, 42, 64
2, 60480, Note_on_c, 9, 38, 127
2, 60480, Note_on_c, 9, 42, 90
2, 60528, Note_off_c, 9, 38, 64
2, 60528, Note_off_c, 9, 42, 64
2, 60528, Note_on_c, 9, 42, 90
2, 60576, Note_off_c, 9, 42, 64
2, 60576, Note_on_c, 9, 42, 90
2, 60624, Note_off_c, 9, 42, 64
2, 60624, Note_on_c, 9, 42, 90
2, 60672, Note_off_c, 9, 42, 64
2, 60672, Note_on_c, 9, 38, 127
2, 60672, Note_on_c, 9, 42, 90
2, 60720, Note_off_c, 9, 38, 64
2, 60720, Note_off_c, 9, 42, 64
2, 60720, Note_on_c, 9, 42, 90
2, 60768, Note_off_c, 9, 42, 64
2, 60768, Note_on_c, 9, 38, 127
2, 60768, Note_on_c, 9, 42, 90
2, 60816, Note_off_c, 9, 38, 64
2, 60816, Note_off_c, 9, 42, 64
2, 60816, Note_on_c, 9, 42, 90
2, 60864, Note_off_c, 9, 42, 64
2, 60864, Note_on_c, 9, 38, 127
2, 60864, Note_on_c, 9, 42, 90
2, 60912, Note_off_c, 9, 38, 64
2, 60912, Note_off_c, 9, 42, 64
2, 60912, Note_on_c, 9, 42, 90
2, 60960, Note_off_c, 9, 42, 64
2, 60960, Note_on_c, 9, 42, 90
2, 61008, Note_off_c, 9, 42, 64
2, 61008, Note_on_c, 9, 42, 90
2, 61056, Note_off_c, 9, 42, 64
2, 61056, Note_on_c, 9, 38, 127
2, 61056, Note_on_c, 9, 42, 90
2, 61104, Note_off_c, 9, 38, 64
2, 61104, Note_off_c, 9, 42, 64
2, 61104, Note_on_c, 9, 38, 127
2, 61104, Note_on_c, 9, 42, 90
2, 61152, Note_off_c, 9, 38, 64
2, 61152, Note_off_c, 9, 42, 64
2, 61152, Note_on_c, 9, 38, 127
2, 61152, Note_on_c, 9, 42, 90
2, 61200, Note_off_c, 9, 38, 64
2, 61200, Note_off_c, 9, 42, 64
2, 61200, Note_on_c, 9, 38, 127
2, 61200, Note_on_c, 9, 42, 90
2, 61248, Note_off_c, 9, 38, 64
2, 61248, Note_off_c, 9, 42, 64
2, 61248, Note_on_c, 9, 38, 127
2, 61248, Note_on_c, 9, 42, 90
2, 61296, Note_off_c, 9, 38, 64
2, 61296, Note_off_c, 9, 42, 64
2, 61296, Note_on_c, 9, 42, 90
2, 61344, Note_off_c, 9, 42, 64
2, 61344, Note_on_c, 9, 42, 90
2, 61392, Note_off_c, 9, 42, 64
2, 61392, Note_on_c, 9, 42, 90
2, 61440, Note_off_c, 9, 42, 64
2, 61440, Note_on_c, 9, 38, 127
2, 61440, Note_on_c, 9, 42, 90
2, 61488, Note_off_c, 9, 38, 64
2, 61488, Note_off_c, 9, 42, 64
2, 61488, Note_on_c, 9, 42, 90
2, 61536, Note_off_c, 9, 42, 64
2, 61536, Note_on_c, 9, 38, 127
2, 61536, Note_on_c, 9, 42, 90
2, 61584, Note_off_c, 9, 38, 64
2, 61584, Note_off_c, 9, 42, 64
2, 61584, Note_on_c, 9, 42, 90
2, 61632, Note_off_c, 9, 42, 64
2, 61632, Note_on_c, 9, 38, 127
2, 61632, Note_on_c, 9, 42, 90
2, 61680, Note_off_c, 9, 38, 64
2, 61680, Note_off_c, 9, 42, 64
2, 61680, Note_on_c, 9, 42, 90
2, 61728, Note_off_c, 9, 42, 64
2, 61728, Note_on_c, 9, 42, 90
2, 61776, Note_off_c, 9, 42, 64
2, 61776, Note_on_c, 9, 42, 90
2, 61824, Note_off_c, 9, 42, 64
2, 61824, Note_on_c, 9, 38, 127
2, 61824, Note_on_c, 9, 42, 90
2, 61872, Note_off_c, 9, 38, 64
2, 61872, Note_off_c, 9, 42, 64
2, 61872, Note_on_c, 9, 38, 127
2, 61872, Note_on_c, 9, 42, 90
2, 61920, Note_off_c, 9, 38, 64
2, 61920, Note_off_c, 9, 42, 64
2, 61920, Note_on_c, 9, 38, 127
2, 61920, Note_on_c, 9, 42, 90
2, 61968, Note_off_c, 9, 38, 64
2, 61968, Note_off_c, 9, 42, 64
2, 61968, Note_on_c, 9, 38, 127
2, 61968, Note_on_c, 9, 42, 90
2, 62016, Note_off_c, 9, 38, 64
2, 62016, Note_off_c, 9, 42, 64
2, 62016, Note_on_c, 9, 38, 127
2, 62016, Note_on_c, 9, 42, 90
2, 62064, Note_off_c, 9, 38, 64
2, 62064, Note_off_c, 9, 42, 64
2, 62064, Note_on_c, 9, 42, 90
2, 62112, Note_off_c, 9, 42, 64
2, 62112, Note_on_c, 9, 42, 90
2, 62160, Note_off_c, 9, 42, 64
2, 62160, Note_on_c, 9, 42, 90
2, 62208, Note_off_c, 9, 42, 64
2, 62208, Note_on_c, 9, 38, 127
2, 62208, Note_on_c, 9, 42, 90
2, 62256, Note_off_c, 9, 38, 64
2, 62256, Note_off_c, 9, 42, 64
2, 62256, Note_on_c, 9, 42, 90
2, 62304, Note_off_c, 9, 42, 64
2, 62304, Note_on_c, 9, 38, 127
2, 62304, Note_on_c, 9, 42, 90
2, 62352, Note_off_c, 9, 38, 64
2, 62352, Note_off_c, 9, 42, 64
2, 62352, Note_on_c, 9, 42, 90
2, 62400, Note_off_c, 9, 42, 64
2, 62400, Note_on_c, 9, 38, 127
2, 62400, Note_on_c, 9, 42, 90
2, 62448, Note_off_c, 9, 38, 64
2, 62448, Note_off_c, 9, 42, 64
2, 62448, Note_on_c, 9, 42, 90
2, 62496, Note_off_c, 9, 42, 64
2, 62496, Note_on_c, 9, 42, 90
2, 62544, Note_off_c, 9, 42, 64
2, 62544, Note_on_c, 9, 42, 90
2, 62592, Note_off_c, 9, 42, 64
2, 62592, Note_on_c, 9, 38, 127
2, 62592, Note_on_c, 9, 42, 90
2, 62640, Note_off_c, 9, 38, 64
2, 62640, Note_off_c, 9, 42, 64
2, 62640, Note_on_c, 9, 38, 127
2, 62640, Note_on_c, 9, 42, 90
2, 62688, Note_off_c, 9, 38, 64
2, 62688, Note_off_c, 9, 42, 64
2, 62688, Note_on_c, 9, 38, 127
2, 62688, Note_on_c, 9, 42, 90
2, 62736, Note_off_c, 9, 38, 64
2, 62736, Note_off_c, 9, 42, 64
2, 62736, Note_on_c, 9, 38, 127
2, 62736, Note_on_c, 9, 42, 90
2, 62784, Note_off_c, 9, 38, 64
2, 62784, Note_off_c, 9, 42, 64
2, 62784, Note_on_c, 9, 38, 127
2, 62784, Note_on_c, 9, 42, 90
2, 62832, Note_off_c, 9, 38, 64
2, 62832, Note_off_c, 9, 42, 64
2, 62832, Note_on_c, 9, 42, 90
2, 62880, Note_off_c, 9, 42, 64
2, 62880, Note_on_c, 9, 42, 90
2, 62928, Note_off_c, 9, 42, 64
2, 62928, Note_on_c, 9, 42, 90
2, 62976, Note_off_c, 9, 42, 64
2, 62976, Note_on_c, 9, 38, 127
2, 62976, Note_on_c, 9, 42, 90
2, 63024, Note_off_c, 9, 38, 64
2, 63024, Note_off_c, 9, 42, 64
2, 63024, Note_on_c, 9, 38, 127
2, 63024, Note_on_c, 9, 42, 90
2, 63072, Note_off_c, 9, 38, 64
2, 63072, Note_off_c, 9, 42, 64
2, 63072, Note_on_c, 9, 38, 127
2, 63072, Note_on_c, 9, 42, 90
2, 63120, Note_off_c, 9, 38, 64
2, 63120, Note_off_c, 9, 42, 64
2, 63120, Note_on_c, 9, 38, 127
2, 63120, Note_on_c, 9, 42, 90
2, 63168, Note_off_c, 9, 38, 64
2, 63168, Note_off_c, 9, 42, 64
2, 63168, Note_on_c, 9, 42, 90
2, 63216, Note_off_c, 9, 42, 64
2, 63216, Note_on_c, 9, 42, 90
2, 63264, Note_off_c, 9, 42, 64
2, 63264, Note_on_c, 9, 38, 127
2, 63264, Note_on_c, 9, 42, 90
2, 63312, Note_off_c, 9, 38, 64
2, 63312, Note_off_c, 9, 42, 64
2, 63312, Note_on_c, 9, 42, 90
2, 63360, Note_off_c, 9, 42, 64
2, 63360, Note_on_c, 9, 42, 90
2, 63408, Note_off_c, 9, 42, 64
2, 63408, Note_on_c, 9, 42, 90
2, 63456, Note_off_c, 9, 42, 64
2, 63456, Note_on_c, 9, 42, 90
2, 63504, Note_off_c, 9, 42, 64
2, 63504, Note_on_c, 9, 42, 90
2, 63552, Note_off_c, 9, 42, 64
2, 63552, Note_on_c, 9, 42, 90
2, 63600, Note_off_c, 9, 42, 64
2, 63600, Note_on_c, 9, 42, 90
2, 63648, Note_off_c, 9, 42, 64
2, 63648, Note_on_c, 9, 42, 90
2, 63696, Note_off_c, 9, 42, 64
2, 63696, Note_on_c, 9, 42, 90
2, 63744, Note_off_c, 9, 42, 64
2, 63744, Note_on_c, 9, 38, 127
2, 63744, Note_on_c, 9, 42, 90
2, 63792, Note_off_c, 9, 38, 64
2, 63792, Note_off_c, 9, 42, 64
2, 63792, Note_on_c, 9, 38, 127
2, 63792, Note_on_c, 9, 42, 90
2, 63840, Note_off_c, 9, 38, 64
2, 63840, Note_off_c, 9, 42, 64
2, 63840, Note_on_c, 9, 38, 127
2, 63840, Note_on_c, 9, 42, 90
2, 63888, Note_off_c, 9, 38, 64
2, 63888, Note_off_c, 9, 42, 64
2, 63888, Note_on_c, 9, 42, 90
2, 63936, Note_off_c, 9, 42, 64
2, 63936, Note_on_c, 9, 42, 90
2, 63984, Note_off_c, 9, 42, 64
2, 63984, Note_on_c, 9, 42, 90
2, 64032, Note_off_c, 9, 42, 64
2, 64032, Note_on_c, 9, 42, 90
2, 64080, Note_off_c, 9, 42, 64
2, 64080, Note_on_c, 9, 42, 90
2, 64128, Note_off_c, 9, 42, 64
2, 64128, Note_on_c, 9, 38, 127
2, 64128, Note_on_c, 9, 42, 90
2, 64176, Note_off_c, 9, 38, 64
2, 64176, Note_off_c, 9, 42, 64
2, 64176, Note_on_c, 9, 38, 127
2, 64176, Note_on_c, 9, 42, 90
2, 64224, Note_off_c, 9, 38, 64
2, 64224, Note_off_c, 9, 42, 64
2, 64224, Note_on_c, 9, 38, 127
2, 64224, Note_on_c, 9, 42, 90
2, 64272, Note_off_c, 9, 38, 64
2, 64272, Note_off_c, 9, 42, 64
2, 64272, Note_on_c, 9, 42, 90
2, 64320, Note_off_c, 9, 42, 64
2, 64320, Note_on_c, 9, 42, 90
2, 64368, Note_off_c, 9, 42, 64
2, 64368, Note_on_c, 9, 42, 90
2, 64416, Note_off_c, 9, 42, 64
2, 64416, Note_on_c, 9, 42, 90
2, 64464, Note_off_c, 9, 42, 64
2, 64464, Note_on_c, 9, 42, 90
2, 64512, Note_off_c, 9, 42, 64
2, 64512, Note_on_c, 9, 38, 127
2, 64512, Note_on_c, 9, 42, 90
2, 64560, Note_off_c, 9, 38, 64
2, 64560, Note_off_c, 9, 42, 64
2, 64560, Note_on_c, 9, 38, 127
2, 64560, Note_on_c, 9, 42, 90
2, 64608, Note_off_c, 9, 38, 64
2, 64608, Note_off_c, 9, 42, 64
2, 64608, Note_on_c, 9, 38, 127
2, 64608, Note_on_c, 9, 42, 90
2, 64656, Note_off_c, 9, 38, 64
2, 64656, Note_off_c, 9, 42, 64
2, 64656, Note_on_c, 9, 38, 127
2, 64656, Note_on_c, 9, 42, 90
2, 64704, Note_off_c, 9, 38, 64
2, 64704, Note_off_c, 9, 42, 64
2, 64704, Note_on_c, 9, 42, 90
2, 64752, Note_off_c, 9, 42, 64
2, 64752, Note_on_c, 9, 42, 90
2, 64800, Note_off_c, 9, 42, 64
2, 64800, Note_on_c, 9, 38, 127
2, 64800, Note_on_c, 9, 42, 90
2, 64848, Note_off_c, 9, 38, 64
2, 64848, Note_off_c, 9, 42, 64
2, 64848, Note_on_c, 9, 42, 90
2, 64896, Note_off_c, 9, 42, 64
2, 64896, Note_on_c, 9, 42, 90
2, 64944, Note_off_c, 9, 42, 64
2, 64944, Note_on_c, 9, 42, 90
2, 64992, Note_off_c, 9, 42, 64
2, 64992, Note_on_c, 9, 42, 90
2, 65040, Note_off_c, 9, 42, 64
2, 65040, Note_on_c, 9, 42, 90
2, 65088, Note_off_c, 9, 42, 64
2, 65088, Note_on_c, 9, 42, 90
2, 65136, Note_off_c, 9, 42, 64
2, 65136, Note_on_c, 9, 42, 90
2, 65184, Note_off_c, 9, 42, 64
2, 65184, Note_on_c, 9, 42, 90
2, 65232, Note_off_c, 9, 42, 64
2, 65232, Note_on_c, 9, 42, 90
2, 65280, Note_off_c, 9, 42, 64
2, 65280, Note_on_c, 9, 38, 127
2, 65280, Note_on_c, 9, 42, 90
2, 65328, Note_off_c, 9, 38, 64
2, 65328, Note_off_c, 9, 42, 64
2, 65328, Note_on_c, 9, 38, 127
2, 65328, Note_on_c, 9, 42, 90
2, 65376, Note_off_c, 9, 38, 64
2, 65376, Note_off_c, 9, 42, 64
2, 65376, Note_on_c, 9, 38, 127
2, 65376, Note_on_c, 9, 42, 90
2, 65424, Note_off_c, 9, 38, 64
2, 65424, Note_off_c, 9, 42, 64
2, 65424, Note_on_c, 9, 42, 90
2, 65472, Note_off_c, 9, 42, 64
2, 65472, Note_on_c, 9, 42, 90
2, 65520, Note_off_c, 9, 42, 64
2, 65520, Note_on_c, 9, 42, 90
2, 65568, Note_off_c, 9, 42, 64
2, 65568, Note_on_c, 9, 42, 90
2, 65616, Note_off_c, 9, 42, 64
2, 65616, Note_on_c, 9, 42, 90
2, 65664, Note_off_c, 9, 42, 64
2, 65664, Note_on_c, 9, 38, 127
2, 65664, Note_on_c, 9, 42, 90
2, 65712, Note_off_c, 9, 38, 64
2, 65712, Note_off_c, 9, 42, 64
2, 65712, Note_on_c, 9, 38, 127
2, 65712, Note_on_c, 9, 42, 90
2, 65760, Note_off_c, 9, 38, 64
2, 65760, Note_off_c, 9, 42, 64
2, 65760, Note_on_c, 9, 38, 127
2, 65760, Note_on_c, 9, 42, 90
2, 65808, Note_off_c, 9, 38, 64
2, 65808, Note_off_c, 9, 42, 64
2, 65808, Note_on_c, 9, 42, 90
2, 65856, Note_off_c, 9, 42, 64
2, 65856, Note_on_c, 9, 42, 90
2, 65904, Note_off_c, 9, 42, 64
2, 65904, Note_on_c, 9, 42, 90
2, 65952, Note_off_c, 9, 42, 64
2, 65952, Note_on_c, 9, 38, 127
2, 65952, Note_on_c, 9, 42, 90
2, 66000, Note_off_c, 9, 38, 64
2, 66000, Note_off_c, 9, 42, 64
2, 66000, Note_on_c, 9, 42, 90
2, 66048, Note_off_c, 9, 42, 64
2, 66048, Note_on_c, 9, 42, 90
2, 66096, Note_off_c, 9, 42, 64
2, 66096, Note_on_c, 9, 42, 90
2, 66144, Note_off_c, 9, 42, 64
2, 66144, Note_on_c, 9, 42, 90
2, 66192, Note_off_c, 9, 42, 64
2, 66192, Note_on_c, 9, 42, 90
2, 66240, Note_off_c, 9, 42, 64
2, 66240, Note_on_c, 9, 42, 90
2, 66288, Note_off_c, 9, 42, 64
2, 66288, Note_on_c, 9, 42, 90
2, 66336, Note_off_c, 9, 42, 64
2, 66336, Note_on_c, 9, 38, 127
2, 66336, Note_on_c, 9, 42, 90
2, 66384, Note_off_c, 9, 38, 64
2, 66384, Note_off_c, 9, 42, 64
2, 66384, Note_on_c, 9, 42, 90
2, 66432, Note_off_c, 9, 42, 64
2, 66432, Note_on_c, 9, 42, 90
2, 66480, Note_off_c, 9, 42, 64
2, 66480, Note_on_c, 9, 42, 90
2, 66528, Note_off_c, 9, 42, 64
2, 66528, Note_on_c, 9, 42, 90
2, 66576, Note_off_c, 9, 42, 64
2, 66576, Note_on_c, 9, 42, 90
2, 66624, Note_off_c, 9, 42, 64
2, 66624, Note_on_c, 9, 42, 90
2, 66672, Note_off_c, 9, 42, 64
2, 66672, Note_on_c, 9, 42, 90
2, 66720, Note_off_c, 9, 42, 64
2, 66720, Note_on_c, 9, 42, 90
2, 66768, Note_off_c, 9, 42, 64
2, 66768, Note_on_c, 9, 42, 90
2, 66816, Note_off_c, 9, 42, 64
2, 66816, Note_on_c, 9, 42, 90
2, 66864, Note_off_c, 9, 42, 64
2, 66864, Note_on_c, 9, 42, 90
2, 66912, Note_off_c, 9, 42, 64
2, 66912, Note_on_c, 9, 42, 90
2, 66960, Note_off_c, 9, 42, 64
2, 66960, Note_on_c, 9, 42, 90
2, 67008, Note_off_c, 9, 42, 64
2, 67008, Note_on_c, 9, 42, 90
2, 67056, Note_off_c, 9, 42, 64
2, 67056, Note_on_c, 9, 38, 127
2, 67056, Note_on_c, 9, 42, 90
2, 67104, Note_off_c, 9, 38, 64
2, 67104, Note_off_c, 9, 42, 64
2, 67104, Note_on_c, 9, 38, 127
2, 67104, Note_on_c, 9, 42, 90
2, 67152, Note_off_c, 9, 38, 64
2, 67152, Note_off_c, 9, 42, 64
2, 67152, Note_on_c, 9, 42, 90
2, 67200, Note_off_c, 9, 42, 64
2, 67200, Note_on_c, 9, 42, 90
2, 67248, Note_off_c, 9, 42, 64
2, 67248, Note_on_c, 9, 42, 90
2, 67296, Note_off_c, 9, 42, 64
2, 67296, Note_on_c, 9, 42, 90
2, 67344, Note_off_c, 9, 42, 64
2, 67344, Note_on_c, 9, 42, 90
2, 67392, Note_off_c, 9, 42, 64
2, 67392, Note_on_c, 9, 42, 90
2, 67440, Note_off_c, 9, 42, 64
2, 67440, Note_on_c, 9, 42, 90
2, 67488, Note_off_c, 9, 42, 64
2, 67488, Note_on_c, 9, 42, 90
2, 67536, Note_off_c, 9, 42, 64
2, 67536, Note_on_c, 9, 42, 90
2, 67584, Note_off_c, 9, 42, 64
2, 67584, Note_on_c, 9, 42, 90
2, 67632, Note_off_c, 9, 42, 64
2, 67632, Note_on_c, 9, 42, 90
2, 67680, Note_off_c, 9, 42, 64
2, 67680, Note_on_c, 9, 42, 90
2, 67728, Note_off_c, 9, 42, 64
2, 67728, Note_on_c, 9, 42, 90
2, 67776, Note_off_c, 9, 42, 64
2, 67776, Note_on_c, 9, 42, 90
2, 67824, Note_off_c, 9, 42, 64
2, 67824, Note_on_c, 9, 42, 90
2, 67872, Note_off_c, 9, 42, 64
2, 67872, Note_on_c, 9, 38, 127
2, 67872, Note_on_c, 9, 42, 90
2, 67920, Note_off_c, 9, 38, 64
2, 67920, Note_off_c, 9, 42, 64
2, 67920, Note_on_c, 9, 42, 90
2, 67968, Note_off_c, 9, 42, 64
2, 67968, Note_on_c, 9, 42, 90
2, 68016, Note_off_c, 9, 42, 64
2, 68016, Note_on_c, 9, 42, 90
2, 68064, Note_off_c, 9, 42, 64
2, 68064, Note_on_c, 9, 42, 90
2, 68112, Note_off_c, 9, 42, 64
2, 68112, Note_on_c, 9, 42, 90
2, 68160, Note_off_c, 9, 42, 64
2, 68160, Note_on_c, 9, 42, 90
2, 68208, Note_off_c, 9, 42, 64
2, 68208, Note_on_c, 9, 42, 90
2, 68256, Note_off_c, 9, 42, 64
2, 68256, Note_on_c, 9, 42, 90
2, 68304, Note_off_c, 9, 42, 64
2, 68304, Note_on_c, 9, 42, 90
2, 68352, Note_off_c, 9, 42, 64
2, 68352, Note_on_c, 9, 42, 90
2, 68400, Note_off_c, 9, 42, 64
2, 68400, Note_on_c, 9, 42, 90
2, 68448, Note_off_c, 9, 42, 64
2, 68448, Note_on_c, 9, 42, 90
2, 68496, Note_off_c, 9, 42, 64
2, 68496, Note_on_c, 9, 42, 90
2, 68544, Note_off_c, 9, 42, 64
2, 68544, Note_on_c, 9, 42, 90
2, 68592, Note_off_c, 9, 42, 64
2, 68592, Note_on_c, 9, 38, 127
2, 68592, Note_on_c, 9, 42, 90
2, 68640, Note_off_c, 9, 38, 64
2, 68640, Note_off_c, 9, 42, 64
2, 68640, Note_on_c, 9, 38, 127
2, 68640, Note_on_c, 9, 42, 90
2, 68688, Note_off_c, 9, 38, 64
2, 68688, Note_off_c, 9, 42, 64
2, 68688, Note_on_c, 9, 42, 90
2, 68736, Note_off_c, 9, 42, 64
2, 68736, Note_on_c, 9, 42, 90
2, 68784, Note_off_c, 9, 42, 64
2, 68784, Note_on_c, 9, 42, 90
2, 68832, Note_off_c, 9, 42, 64
2, 68832, Note_on_c, 9, 42, 90
2, 68880, Note_off_c, 9, 42, 64
2, 68880, Note_on_c, 9, 42, 90
2, 68928, Note_off_c, 9, 42, 64
2, 68928, Note_on_c, 9, 42, 90
2, 68976, Note_off_c, 9, 42, 64
2, 68976, Note_on_c, 9, 42, 90
2, 69024, Note_off_c, 9, 42, 64
2, 69024, Note_on_c, 9, 42, 90
2, 69072, Note_off_c, 9, 42, 64
2, 69072, Note_on_c, 9, 42, 90
2, 69120, Note_off_c, 9, 42, 64
2, 69120, Note_on_c, 9, 42, 90
2, 69168, Note_off_c, 9, 42, 64
2, 69168, Note_on_c, 9, 42, 90
2, 69216, Note_off_c, 9, 42, 64
2, 69216, Note_on_c, 9, 42, 90
2, 69264, Note_off_c, 9, 42, 64
2, 69264, Note_on_c, 9, 42, 90
2, 69312, Note_off_c, 9, 42, 64
2, 69312, Note_on_c, 9, 42, 90
2, 69360, Note_off_c, 9, 42, 64
2, 69360, Note_on_c, 9, 42, 90
2, 69408, Note_off_c, 9, 42, 64
2, 69408, Note_on_c, 9, 38, 127
2, 69408, Note_on_c, 9, 42, 90
2, 69456, Note_off_c, 9, 38, 64
2, 69456, Note_off_c, 9, 42, 64
2, 69456, Note_on_c, 9, 42, 90
2, 69504, Note_off_c, 9, 42, 64
2, 69504, Note_on_c, 9, 42, 90
2, 69552, Note_off_c, 9, 42, 64
2, 69552, Note_on_c, 9, 42, 90
2, 69600, Note_off_c, 9, 42, 64
2, 69600, Note_on_c, 9, 42, 90
2, 69648, Note_off_c, 9, 42, 64
2, 69648, Note_on_c, 9, 42, 90
2, 69696, Note_off_c, 9, 42, 64
2, 69696, Note_on_c, 9, 42, 90
2, 69744, Note_off_c, 9, 42, 64
2, 69744, Note_on_c, 9, 42, 90
2, 69792, Note_off_c, 9, 42, 64
2, 69792, Note_on_c, 9, 42, 90
2, 69840, Note_off_c, 9, 42, 64
2, 69840, Note_on_c, 9, 42, 90
2, 69888, Note_off_c, 9, 42, 64
2, 69888, Note_on_c, 9, 42, 90
2, 69936, Note_off_c, 9, 42, 64
2, 69936, Note_on_c, 9, 42, 90
2, 69984, Note_off_c, 9, 42, 64
2, 69984, Note_on_c, 9, 42, 90
2, 70032, Note_off_c, 9, 42, 64
2, 70032, Note_on_c, 9, 42, 90
2, 70080, Note_off_c, 9, 42, 64
2, 70080, Note_on_c, 9, 42, 90
2, 70128, Note_off_c, 9, 42, 64
2, 70128, Note_on_c, 9, 38, 127
2, 70128, Note_on_c, 9, 42, 90
2, 70176, Note_off_c, 9, 38, 64
2, 70176, Note_off_c, 9, 42, 64
2, 70176, Note_on_c, 9, 38, 127
2, 70176, Note_on_c, 9, 42, 90
2, 70224, Note_off_c, 9, 38, 64
2, 70224, Note_off_c, 9, 42, 64
2, 70224, Note_on_c, 9, 42, 90
2, 70272, Note_off_c, 9, 42, 64
2, 70272, Note_on_c, 9, 42, 90
2, 70320, Note_off_c, 9, 42, 64
2, 70320, Note_on_c, 9, 42, 90
2, 70368, Note_off_c, 9, 42, 64
2, 70368, Note_on_c, 9, 42, 90
2, 70416, Note_off_c, 9, 42, 64
2, 70416, Note_on_c, 9, 42, 90
2, 70464, Note_off_c, 9, 42, 64
2, 70464, Note_on_c, 9, 42, 90
2, 70512, Note_off_c, 9, 42, 64
2, 70512, Note_on_c, 9, 42, 90
2, 70560, Note_off_c, 9, 42, 64
2, 70560, Note_on_c, 9, 42, 90
2, 70608, Note_off_c, 9, 42, 64
2, 70608, Note_on_c, 9, 42, 90
2, 70656, Note_off_c, 9, 42, 64
2, 70656, Note_on_c, 9, 42, 90
2, 70704, Note_off_c, 9, 42, 64
2, 70704, Note_on_c, 9, 42, 90
2, 70752, Note_off_c, 9, 42, 64
2, 70752, Note_on_c, 9, 42, 90
2, 70800, Note_off_c, 9, 42, 64
2, 70800, Note_on_c, 9, 42, 90
2, 70848, Note_off_c, 9, 42, 64
2, 70848, Note_on_c, 9, 42, 90
2, 70896, Note_off_c, 9, 42, 64
2, 70896, Note_on_c, 9, 42, 90
2, 70944, Note_off_c, 9, 42, 64
2, 70944, Note_on_c, 9, 38, 127
2, 70944, Note_on_c, 9, 42, 90
2, 70992, Note_off_c, 9, 38, 64
2, 70992, Note_off_c, 9, 42, 64
2, 70992, Note_on_c, 9, 42, 90
2, 71040, Note_off_c, 9, 42, 64
2, 71040, Note_on_c, 9, 42, 90
2, 71088, Note_off_c, 9, 42, 64
2, 71088, Note_on_c, 9, 42, 90
2, 71136, Note_off_c, 9, 42, 64
2, 71136, Note_on_c, 9, 42, 90
2, 71184, Note_off_c, 9, 42, 64
2, 71184, Note_on_c, 9, 42, 90
2, 71232, Note_off_c, 9, 42, 64
2, 71232, Note_on_c, 9, 42, 90
2, 71280, Note_off_c, 9, 42, 64
2, 71280, Note_on_c, 9, 42, 90
2, 71328, Note_off_c, 9, 42, 64
2, 71328, Note_on_c, 9, 42, 90
2, 71376, Note_off_c, 9, 42, 64
2, 71376, Note_on_c, 9, 42, 90
2, 71424, Note_off_c, 9, 42, 64
2, 71424, Note_on_c, 9, 42, 90
2, 71472, Note_off_c, 9, 42, 64
2, 71472, Note_on_c, 9, 42, 90
2, 71520, Note_off_c, 9, 42, 64
2, 71520, Note_on_c, 9, 42, 90
2, 71568, Note_off_c, 9, 42, 64
2, 71568, Note_on_c, 9, 42, 90
2, 71616, Note_off_c, 9, 42, 64
2, 71616, Note_on_c, 9, 42, 90
2, 71664, Note_off_c, 9, 42, 64
2, 71664, Note_on_c, 9, 38, 127
2, 71664, Note_on_c, 9, 42, 90
2, 71712, Note_off_c, 9, 38, 64
2, 71712, Note_off_c, 9, 42, 64
2, 71712, Note_on_c, 9, 38, 127
2, 71712, Note_on_c, 9, 42, 90
2, 71760, Note_off_c, 9, 38, 64
2, 71760, Note_off_c, 9, 42, 64
2, 71760, Note_on_c, 9, 42, 90
2, 71808, Note_off_c, 9, 42, 64
2, 71808, Note_on_c, 9, 42, 90
2, 71856, Note_off_c, 9, 42, 64
2, 71856, Note_on_c, 9, 42, 90
2, 71904, Note_off_c, 9, 42, 64
2, 71904, Note_on_c, 9, 42, 90
2, 71952, Note_off_c, 9, 42, 64
2, 71952, Note_on_c, 9, 42, 90
2, 72000, Note_off_c, 9, 42, 64
2, 72000, Note_on_c, 9, 42, 90
2, 72048, Note_off_c, 9, 42, 64
2, 72048, Note_on_c, 9, 42, 90
2, 72096, Note_off_c, 9, 42, 64
2, 72096, Note_on_c, 9, 42, 90
2, 72144, Note_off_c, 9, 42, 64
2, 72144, Note_on_c, 9, 42, 90
2, 72192, Note_off_c, 9, 42, 64
2, 72192, Note_on_c, 9, 42, 90
2, 72240, Note_off_c, 9, 42, 64
2, 72240, Note_on_c, 9, 42, 90
2, 72288, Note_off_c, 9, 42, 64
2, 72288, Note_on_c, 9, 42, 90
2, 72336, Note_off_c, 9, 42, 64
2, 72336, Note_on_c, 9, 42, 90
2, 72384, Note_off_c, 9, 42, 64
2, 72384, Note_on_c, 9, 42, 90
2, 72432, Note_off_c, 9, 42, 64
2, 72432, Note_on_c, 9, 42, 90
2, 72480, Note_off_c, 9, 42, 64
2, 72480, Note_on_c, 9, 38, 127
2, 72480, Note_on_c, 9, 42, 90
2, 72528, Note_off_c, 9, 38, 64
2, 72528, Note_off_c, 9, 42, 64
2, 72528, Note_on_c, 9, 42, 90
2, 72576, Note_off_c, 9, 42, 64
2, 72576, Note_on_c, 9, 42, 90
2, 72624, Note_off_c, 9, 42, 64
2, 72624, Note_on_c, 9, 42, 90
2, 72672, Note_off_c, 9, 42, 64
2, 72672, Note_on_c, 9, 42, 90
2, 72720, Note_off_c, 9, 42, 64
2, 72720, Note_on_c, 9, 42, 90
2, 72768, Note_off_c, 9, 42, 64
2, 72768, Note_on_c, 9, 42, 90
2, 72816, Note_off_c, 9, 42, 64
2, 72816, Note_on_c, 9, 42, 90
2, 72864, Note_off_c, 9, 42, 64
2, 72864, Note_on_c, 9, 42, 90
2, 72912, Note_off_c, 9, 42, 64
2, 72912, Note_on_c, 9, 42, 90
2, 72960, Note_off_c, 9, 42, 64
2, 72960, Note_on_c, 9, 42, 90
2, 73008, Note_off_c, 9, 42, 64
2, 73008, Note_on_c, 9, 42, 90
2, 73056, Note_off_c, 9, 42, 64
2, 73056, Note_on_c, 9, 42, 90
2, 73104, Note_off_c, 9, 42, 64
2, 73104, Note_on_c, 9, 42, 90
2, 73152, Note_off_c, 9, 42, 64
2, 73152, Note_on_c, 9, 42, 90
2, 73200, Note_off_c, 9, 42, 64
2, 73200, Note_on_c, 9, 38, 127
2, 73200, Note_on_c, 9, 42, 90
2, 73248, Note_off_c, 9, 38, 64
2, 73248, Note_off_c, 9, 42, 64
2, 73248, Note_on_c, 9, 38, 127
2, 73248, Note_on_c, 9, 42, 90
2, 73296, Note_off_c, 9, 38, 64
2, 73296, Note_off_c, 9, 42, 64
2, 73296, Note_on_c, 9, 42, 90
2, 73344, Note_off_c, 9, 42, 64
2, 73344, Note_on_c, 9, 42, 90
2, 73392, Note_off_c, 9, 42, 64
2, 73392, Note_on_c, 9, 42, 90
2, 73440, Note_off_c, 9, 42, 64
2, 73440, Note_on_c, 9, 42, 90
2, 73488, Note_off_c, 9, 42, 64
2, 73488, Note_on_c, 9, 42, 90
2, 73536, Note_off_c, 9, 42, 64
2, 73536, Note_on_c, 9, 38, 127
2, 73536, Note_on_c, 9, 42, 90
2, 73584, Note_off_c, 9, 38, 64
2, 73584, Note_off_c, 9, 42, 64
2, 73584, Note_on_c, 9, 38, 127
2, 73584, Note_on_c, 9, 42, 90
2, 73632, Note_off_c, 9, 38, 64
2, 73632, Note_off_c, 9, 42, 64
2, 73632, Note_on_c, 9, 38, 127
2, 73632, Note_on_c, 9, 42, 90
2, 73680, Note_off_c, 9, 38, 64
2, 73680, Note_off_c, 9, 42, 64
2, 73680, Note_on_c, 9, 38, 127
2, 73680, Note_on_c, 9, 42, 90
2, 73728, Note_off_c, 9, 38, 64
2, 73728, Note_off_c, 9, 42, 64
2, 73728, Note_on_c, 9, 38, 127
2, 73728, Note_on_c, 9, 42, 90
2, 73776, Note_off_c, 9, 38, 64
2, 73776, Note_off_c, 9, 42, 64
2, 73776, Note_on_c, 9, 38, 127
2, 73776, Note_on_c, 9, 42, 90
2, 73824, Note_off_c, 9, 38, 64
2, 73824, Note_off_c, 9, 42, 64
2, 73824, Note_on_c, 9, 38, 127
2, 73824, Note_on_c, 9, 42, 90
2, 73872, Note_off_c, 9, 38, 64
2, 73872, Note_off_c, 9, 42, 64
2, 73872, Note_on_c, 9, 38, 127
2, 73872, Note_on_c, 9, 42, 90
2, 73920, Note_off_c, 9, 38, 64
2, 73920, Note_off_c, 9, 42, 64
2, 73920, Note_on_c, 9, 42, 90
2, 73968, Note_off_c, 9, 42, 64
2, 73968, Note_on_c, 9, 42, 90
2, 74016, Note_off_c, 9, 42, 64
2, 74016, Note_on_c, 9, 38, 127
2, 74016, Note_on_c, 9, 42, 90
2, 74064, Note_off_c, 9, 38, 64
2, 74064, Note_off_c, 9, 42, 64
2, 74064, Note_on_c, 9, 42, 90
2, 74112, Note_off_c, 9, 42, 64
2, 74112, Note_on_c, 9, 42, 90
2, 74160, Note_off_c, 9, 42, 64
2, 74160, Note_on_c, 9, 42, 90
2, 74208, Note_off_c, 9, 42, 64
2, 74208, Note_on_c, 9, 42, 90
2, 74256, Note_off_c, 9, 42, 64
2, 74256, Note_on_c, 9, 42, 90
2, 74304, Note_off_c, 9, 42, 64
2, 74304, Note_on_c, 9, 42, 90
2, 74352, Note_off_c, 9, 42, 64
2, 74352, Note_on_c, 9, 42, 90
2, 74400, Note_off_c, 9, 42, 64
2, 74400, Note_on_c, 9, 42, 90
2, 74448, Note_off_c, 9, 42, 64
2, 74448, Note_on_c, 9, 42, 90
2, 74496, Note_off_c, 9, 42, 64
2, 74496, Note_on_c, 9, 38, 127
2, 74496, Note_on_c, 9, 42, 90
2, 74544, Note_off_c, 9, 38, 64
2, 74544, Note_off_c, 9, 42, 64
2, 74544, Note_on_c, 9, 38, 127
2, 74544, Note_on_c, 9, 42, 90
2, 74592, Note_off_c, 9, 38, 64
2, 74592, Note_off_c, 9, 42, 64
2, 74592, Note_on_c, 9, 38, 127
2, 74592, Note_on_c, 9, 42, 90
2, 74640, Note_off_c, 9, 38, 64
2, 74640, Note_off_c, 9, 42, 64
2, 74640, Note_on_c, 9, 42, 90
2, 74688, Note_off_c, 9, 42, 64
2, 74688, Note_on_c, 9, 42, 90
2, 74736, Note_off_c, 9, 42, 64
2, 74736, Note_on_c, 9, 42, 90
2, 74784, Note_off_c, 9, 42, 64
2, 74784, Note_on_c, 9, 42, 90
2, 74832, Note_off_c, 9, 42, 64
2, 74832, Note_on_c, 9, 42, 90
2, 74880, Note_off_c, 9, 42, 64
2, 74880, Note_on_c, 9, 38, 127
2, 74880, Note_on_c, 9, 42, 90
2, 74928, Note_off_c, 9, 38, 64
2, 74928, Note_off_c, 9, 42, 64
2, 74928, Note_on_c, 9, 38, 127
2, 74928, Note_on_c, 9, 42, 90
2, 74976, Note_off_c, 9, 38, 64
2, 74976, Note_off_c, 9, 42, 64
2, 74976, Note_on_c, 9, 38, 127
2, 74976, Note_on_c, 9, 42, 90
2, 75024, Note_off_c, 9, 38, 64
2, 75024, Note_off_c, 9, 42, 64
2, 75024, Note_on_c, 9, 42, 90
2, 75072, Note_off_c, 9, 42, 64
2, 75072, Note_on_c, 9, 42, 90
2, 75120, Note_off_c, 9, 42, 64
2, 75120, Note_on_c, 9, 42, 90
2, 75168, Note_off_c, 9, 42, 64
2, 75168, Note_on_c, 9, 42, 90
2, 75216, Note_off_c, 9, 42, 64
2, 75216, Note_on_c, 9, 42, 90
2, 75264, Note_off_c, 9, 42, 64
2, 75264, Note_on_c, 9, 38, 127
2, 75264, Note_on_c, 9, 42, 90
2, 75312, Note_off_c, 9, 38, 64
2, 75312, Note_off_c, 9, 42, 64
2, 75312, Note_on_c, 9, 38, 127
2, 75312, Note_on_c, 9, 42, 90
2, 75360, Note_off_c, 9, 38, 64
2, 75360, Note_off_c, 9, 42, 64
2, 75360, Note_on_c, 9, 38, 127
2, 75360, Note_on_c, 9, 42, 90
2, 75408, Note_off_c, 9, 38, 64
2, 75408, Note_off_c, 9, 42, 64
2, 75408, Note_on_c, 9, 38, 127
2, 75408, Note_on_c, 9, 42, 90
2, 75456, Note_off_c, 9, 38, 64
2, 75456, Note_off_c, 9, 42, 64
2, 75456, Note_on_c, 9, 42, 90
2, 75504, Note_off_c, 9, 42, 64
2, 75504, Note_on_c, 9, 42, 90
2, 75552, Note_off_c, 9, 42, 64
2, 75552, Note_on_c, 9, 38, 127
2, 75552, Note_on_c, 9, 42, 90
2, 75600, Note_off_c, 9, 38, 64
2, 75600, Note_off_c, 9, 42, 64
2, 75600, Note_on_c, 9, 42, 90
2, 75648, Note_off_c, 9, 42, 64
2, 75648, Note_on_c, 9, 42, 90
2, 75696, Note_off_c, 9, 42, 64
2, 75696, Note_on_c, 9, 42, 90
2, 75744, Note_off_c, 9, 42, 64
2, 75744, Note_on_c, 9, 42, 90
2, 75792, Note_off_c, 9, 42, 64
2, 75792, Note_on_c, 9, 42, 90
2, 75840, Note_off_c, 9, 42, 64
2, 75840, Note_on_c, 9, 42, 90
2, 75888, Note_off_c, 9, 42, 64
2, 75888, Note_on_c, 9, 42, 90
2, 75936, Note_off_c, 9, 42, 64
2, 75936, Note_on_c, 9, 42, 90
2, 75984, Note_off_c, 9, 42, 64
2, 75984, Note_on_c, 9, 42, 90
2, 76032, Note_off_c, 9, 42, 64
2, 76032, Note_on_c, 9, 38, 127
2, 76032, Note_on_c, 9, 42, 90
2, 76080, Note_off_c, 9, 38, 64
2, 76080, Note_off_c, 9, 42, 64
2, 76080, Note_on_c, 9, 38, 127
2, 76080, Note_on_c, 9, 42, 90
2, 76128, Note_off_c, 9, 38, 64
2, 76128, Note_off_c, 9, 42, 64
2, 76128, Note_on_c, 9, 38, 127
2, 76128, Note_on_c, 9, 42, 90
2, 76176, Note_off_c, 9, 38, 64
2, 76176, Note_off_c, 9, 42, 64
2, 76176, Note_on_c, 9, 42, 90
2, 76224, Note_off_c, 9, 42, 64
2, 76224, Note_on_c, 9, 42, 90
2, 76272, Note_off_c, 9, 42, 64
2, 76272, Note_on_c, 9, 42, 90
2, 76320, Note_off_c, 9, 42, 64
2, 76320, Note_on_c, 9, 42, 90
2, 76368, Note_off_c, 9, 42, 64
2, 76368, Note_on_c, 9, 42, 90
2, 76416, Note_off_c, 9, 42, 64
2, 76416, Note_on_c, 9, 38, 127
2, 76416, Note_on_c, 9, 42, 90
2, 76464, Note_off_c, 9, 38, 64
2, 76464, Note_off_c, 9, 42, 64
2, 76464, Note_on_c, 9, 38, 127
2, 76464, Note_on_c, 9, 42, 90
2, 76512, Note_off_c, 9, 38, 64
2, 76512, Note_off_c, 9, 42, 64
2, 76512, Note_on_c, 9, 38, 127
2, 76512, Note_on_c, 9, 42, 90
2, 76560, Note_off_c, 9, 38, 64
2, 76560, Note_off_c, 9, 42, 64
2, 76560, Note_on_c, 9, 42, 90
2, 76608, Note_off_c, 9, 42, 64
2, 76608, Note_on_c, 9, 42, 90
2, 76656, Note_off_c, 9, 42, 64
2, 76656, Note_on_c, 9, 42, 90
2, 76704, Note_off_c, 9, 42, 64
2, 76704, Note_on_c, 9, 38, 127
2, 76704, Note_on_c, 9, 42, 90
2, 76752, Note_off_c, 9, 38, 64
2, 76752, Note_off_c, 9, 42, 64
2, 76752, Note_on_c, 9, 42, 90
2, 76800, Note_off_c, 9, 42, 64
2, 76800, Note_on_c, 9, 42, 90
2, 76848, Note_off_c, 9, 42, 64
2, 76848, Note_on_c, 9, 42, 90
2, 76896, Note_off_c, 9, 42, 64
2, 76896, Note_on_c, 9, 42, 90
2, 76944, Note_off_c, 9, 42, 64
2, 76944, Note_on_c, 9, 42, 90
2, 76992, Note_off_c, 9, 42, 64
2, 76992, Note_on_c, 9, 42, 90
2, 77040, Note_off_c, 9, 42, 64
2, 77040, Note_on_c, 9, 42, 90
2, 77088, Note_off_c, 9, 42, 64
2, 77088, Note_on_c, 9, 42, 90
2, 77136, Note_off_c, 9, 42, 64
2, 77136, Note_on_c, 9, 42, 90
2, 77184, Note_off_c, 9, 42, 64
2, 77184, Note_on_c, 9, 42, 90
2, 77232, Note_off_c, 9, 42, 64
2, 77232, Note_on_c, 9, 42, 90
2, 77280, Note_off_c, 9, 42, 64
2, 77280, Note_on_c, 9, 42, 90
2, 77328, Note_off_c, 9, 42, 64
2, 77328, Note_on_c, 9, 42, 90
2, 77376, Note_off_c, 9, 42, 64
2, 77376, Note_on_c, 9, 42, 90
2, 77424, Note_off_c, 9, 42, 64
2, 77424, Note_on_c, 9, 42, 90
2, 77472, Note_off_c, 9, 42, 64
2, 77472, Note_on_c, 9, 38, 127
2, 77472, Note_on_c, 9, 42, 90
2, 77520, Note_off_c, 9, 38, 64
2, 77520, Note_off_c, 9, 42, 64
2, 77520, Note_on_c, 9, 42, 90
2, 77568, Note_off_c, 9, 42, 64
2, 77568, Note_on_c, 9, 42, 90
2, 77616, Note_off_c, 9, 42, 64
2, 77616, Note_on_c, 9, 42, 90
2, 77664, Note_off_c, 9, 42, 64
2, 77664, Note_on_c, 9, 42, 90
2, 77712, Note_off_c, 9, 42, 64
2, 77712, Note_on_c, 9, 42, 90
2, 77760, Note_off_c, 9, 42, 64
2, 77760, Note_on_c, 9, 42, 90
2, 77808, Note_off_c, 9, 42, 64
2, 77808, Note_on_c, 9, 42, 90
2, 77856, Note_off_c, 9, 42, 64
2, 77856, Note_on_c, 9, 38, 127
2, 77856, Note_on_c, 9, 42, 90
2, 77904, Note_off_c, 9, 38, 64
2, 77904, Note_off_c, 9, 42, 64
2, 77904, Note_on_c, 9, 42, 90
2, 77952, Note_off_c, 9, 42, 64
2, 77952, Note_on_c, 9, 42, 90
2, 78000, Note_off_c, 9, 42, 64
2, 78000, Note_on_c, 9, 42, 90
2, 78048, Note_off_c, 9, 42, 64
2, 78048, Note_on_c, 9, 42, 90
2, 78096, Note_off_c, 9, 42, 64
2, 78096, Note_on_c, 9, 42, 90
2, 78144, Note_off_c, 9, 42, 64
2, 78144, Note_on_c, 9, 38, 127
2, 78144, Note_on_c, 9, 42, 90
2, 78192, Note_off_c, 9, 38, 64
2, 78192, Note_off_c, 9, 42, 64
2, 78192, Note_on_c, 9, 38, 127
2, 78192, Note_on_c, 9, 42, 90
2, 78240, Note_off_c, 9, 38, 64
2, 78240, Note_off_c, 9, 42, 64
2, 78240, Note_on_c, 9, 38, 127
2, 78240, Note_on_c, 9, 42, 90
2, 78288, Note_off_c, 9, 38, 64
2, 78288, Note_off_c, 9, 42, 64
2, 78288, Note_on_c, 9, 42, 90
2, 78336, Note_off_c, 9, 42, 64
2, 78336, Note_on_c, 9, 42, 90
2, 78384, Note_off_c, 9, 42, 64
2, 78384, Note_on_c, 9, 42, 90
2, 78432, Note_off_c, 9, 42, 64
2, 78432, Note_on_c, 9, 42, 90
2, 78480, Note_off_c, 9, 42, 64
2, 78480, Note_on_c, 9, 42, 90
2, 78528, Note_off_c, 9, 42, 64
2, 78528, Note_on_c, 9, 42, 90
2, 78576, Note_off_c, 9, 42, 64
2, 78576, Note_on_c, 9, 42, 90
2, 78624, Note_off_c, 9, 42, 64
2, 78624, Note_on_c, 9, 38, 127
2, 78624, Note_on_c, 9, 42, 90
2, 78672, Note_off_c, 9, 38, 64
2, 78672, Note_off_c, 9, 42, 64
2, 78672, Note_on_c, 9, 42, 90
2, 78720, Note_off_c, 9, 42, 64
2, 78720, Note_on_c, 9, 42, 90
2, 78768, Note_off_c, 9, 42, 64
2, 78768, Note_on_c, 9, 42, 90
2, 78816, Note_off_c, 9, 42, 64
2, 78816, Note_on_c, 9, 42, 90
2, 78864, Note_off_c, 9, 42, 64
2, 78864, Note_on_c, 9, 42, 90
2, 78912, Note_off_c, 9, 42, 64
2, 78912, Note_on_c, 9, 42, 90
2, 78960, Note_off_c, 9, 42, 64
2, 78960, Note_on_c, 9, 42, 90
2, 79008, Note_off_c, 9, 42, 64
2, 79008, Note_on_c, 9, 38, 127
2, 79008, Note_on_c, 9, 42, 90
2, 79056, Note_off_c, 9, 38, 64
2, 79056, Note_off_c, 9, 42, 64
2, 79056, Note_on_c, 9, 42, 90
2, 79104, Note_off_c, 9, 42, 64
2, 79104, Note_on_c, 9, 42, 90
2, 79152, Note_off_c, 9, 42, 64
2, 79152, Note_on_c, 9, 42, 90
2, 79200, Note_off_c, 9, 42, 64
2, 79200, Note_on_c, 9, 42, 90
2, 79248, Note_off_c, 9, 42, 64
2, 79248, Note_on_c, 9, 42, 90
2, 79296, Note_off_c, 9, 42, 64
2, 79296, Note_on_c, 9, 42, 90
2, 79344, Note_off_c, 9, 42, 64
2, 79344, Note_on_c, 9, 38, 127
2, 79344, Note_on_c, 9, 42, 90
2, 79392, Note_off_c, 9, 38, 64
2, 79392, Note_off_c, 9, 42, 64
2, 79392, Note_on_c, 9, 38, 127
2, 79392, Note_on_c, 9, 42, 90
2, 79440, Note_off_c, 9, 38, 64
2, 79440, Note_off_c, 9, 42, 64
2, 79440, Note_on_c, 9, 42, 90
2, 79488, Note_off_c, 9, 42, 64
2, 79488, Note_on_c, 9, 42, 90
2, 79536, Note_off_c, 9, 42, 64
2, 79536, Note_on_c, 9, 42, 90
2, 79584, Note_off_c, 9, 42, 64
2, 79584, Note_on_c, 9, 42, 90
2, 79632, Note_off_c, 9, 42, 64
2, 79632, Note_on_c, 9, 42, 90
2, 79680, Note_off_c, 9, 42, 64
2, 79680, Note_on_c, 9, 38, 127
2, 79680, Note_on_c, 9, 42, 90
2, 79728, Note_off_c, 9, 38, 64
2, 79728, Note_off_c, 9, 42, 64
2, 79728, Note_on_c, 9, 38, 127
2, 79728, Note_on_c, 9, 42, 90
2, 79776, Note_off_c, 9, 38, 64
2, 79776, Note_off_c, 9, 42, 64
2, 79776, Note_on_c, 9, 38, 127
2, 79776, Note_on_c, 9, 42, 90
2, 79824, Note_off_c, 9, 38, 64
2, 79824, Note_off_c, 9, 42, 64
2, 79824, Note_on_c, 9, 42, 90
2, 79872, Note_off_c, 9, 42, 64
2, 79872, Note_on_c, 9, 42, 90
2, 79920, Note_off_c, 9, 42, 64
2, 79920, Note_on_c, 9, 42, 90
2, 79968, Note_off_c, 9, 42, 64
2, 79968, Note_on_c, 9, 42, 90
2, 80016, Note_off_c, 9, 42, 64
2, 80016, Note_on_c, 9, 42, 90
2, 80064, Note_off_c, 9, 42, 64
2, 80064, Note_on_c, 9, 42, 90
2, 80112, Note_off_c, 9, 42, 64
2, 80112, Note_on_c, 9, 42, 90
2, 80160, Note_off_c, 9, 42, 64
2, 80160, Note_on_c, 9, 38, 127
2, 80160, Note_on_c, 9, 42, 90
2, 80208, Note_off_c, 9, 38, 64
2, 80208, Note_off_c, 9, 42, 64
2, 80208, Note_on_c, 9, 42, 90
2, 80256, Note_off_c, 9, 42, 64
2, 80256, Note_on_c, 9, 42, 90
2, 80304, Note_off_c, 9, 42, 64
2, 80304, Note_on_c, 9, 42, 90
2, 80352, Note_off_c, 9, 42, 64
2, 80352, Note_on_c, 9, 42, 90
2, 80400, Note_off_c, 9, 42, 64
2, 80400, Note_on_c, 9, 42, 90
2, 80448, Note_off_c, 9, 42, 64
2, 80448, Note_on_c, 9, 42, 90
2, 80496, Note_off_c, 9, 42, 64
2, 80496, Note_on_c, 9, 42, 90
2, 80544, Note_off_c, 9, 42, 64
2, 80544, Note_on_c, 9, 38, 127
2, 80544, Note_on_c, 9, 42, 90
2, 80592, Note_off_c, 9, 38, 64
2, 80592, Note_off_c, 9, 42, 64
2, 80592, Note_on_c, 9, 42, 90
2, 80640, Note_off_c, 9, 42, 64
2, 80640, Note_on_c, 9, 42, 90
2, 80688, Note_off_c, 9, 42, 64
2, 80688, Note_on_c, 9, 42, 90
2, 80736, Note_off_c, 9, 42, 64
2, 80736, Note_on_c, 9, 42, 90
2, 80784, Note_off_c, 9, 42, 64
2, 80784, Note_on_c, 9, 42, 90
2, 80832, Note_off_c, 9, 42, 64
2, 80832, Note_on_c, 9, 42, 90
2, 80880, Note_off_c, 9, 42, 64
2, 80880, Note_on_c, 9, 38, 127
2, 80880, Note_on_c, 9, 42, 90
2, 80928, Note_off_c, 9, 38, 64
2, 80928, Note_off_c, 9, 42, 64
2, 80928, Note_on_c, 9, 38, 127
2, 80928, Note_on_c, 9, 42, 90
2, 80976, Note_off_c, 9, 38, 64
2, 80976, Note_off_c, 9, 42, 64
2, 80976, Note_on_c, 9, 42, 90
2, 81024, Note_off_c, 9, 42, 64
2, 81024, Note_on_c, 9, 42, 90
2, 81072, Note_off_c, 9, 42, 64
2, 81072, Note_on_c, 9, 42, 90
2, 81120, Note_off_c, 9, 42, 64
2, 81120, Note_on_c, 9, 42, 90
2, 81168, Note_off_c, 9, 42, 64
2, 81168, Note_on_c, 9, 42, 90
2, 81216, Note_off_c, 9, 42, 64
2, 81216, Note_on_c, 9, 42, 90
2, 81264, Note_off_c, 9, 42, 64
2, 81264, Note_on_c, 9, 38, 127
2, 81264, Note_on_c, 9, 42, 90
2, 81312, Note_off_c, 9, 38, 64
2, 81312, Note_off_c, 9, 42, 64
2, 81312, Note_on_c, 9, 38, 127
2, 81312, Note_on_c, 9, 42, 90
2, 81360, Note_off_c, 9, 38, 64
2, 81360, Note_off_c, 9, 42, 64
2, 81360, Note_on_c, 9, 42, 90
2, 81408, Note_off_c, 9, 42, 64
2, 81408, Note_on_c, 9, 42, 90
2, 81456, Note_off_c, 9, 42, 64
2, 81456, Note_on_c, 9, 42, 90
2, 81504, Note_off_c, 9, 42, 64
2, 81504, Note_on_c, 9, 42, 90
2, 81552, Note_off_c, 9, 42, 64
2, 81552, Note_on_c, 9, 42, 90
2, 81600, Note_off_c, 9, 42, 64
2, 81600, Note_on_c, 9, 42, 90
2, 81648, Note_off_c, 9, 42, 64
2, 81648, Note_on_c, 9, 42, 90
2, 81696, Note_off_c, 9, 42, 64
2, 81696, Note_on_c, 9, 38, 127
2, 81696, Note_on_c, 9, 42, 90
2, 81744, Note_off_c, 9, 38, 64
2, 81744, Note_off_c, 9, 42, 64
2, 81744, Note_on_c, 9, 42, 90
2, 81792, Note_off_c, 9, 42, 64
2, 81792, Note_on_c, 9, 42, 90
2, 81840, Note_off_c, 9, 42, 64
2, 81840, Note_on_c, 9, 42, 90
2, 81888, Note_off_c, 9, 42, 64
2, 81888, Note_on_c, 9, 42, 90
2, 81936, Note_off_c, 9, 42, 64
2, 81936, Note_on_c, 9, 42, 90
2, 81984, Note_off_c, 9, 42, 64
2, 81984, Note_on_c, 9, 42, 90
2, 82032, Note_off_c, 9, 42, 64
2, 82032, Note_on_c, 9, 42, 90
2, 82080, Note_off_c, 9, 42, 64
2, 82080, Note_on_c, 9, 38, 127
2, 82080, Note_on_c, 9, 42, 90
2, 82128, Note_off_c, 9, 38, 64
2, 82128, Note_off_c, 9, 42, 64
2, 82128, Note_on_c, 9, 42, 90
2, 82176, Note_off_c, 9, 42, 64
2, 82176, Note_on_c, 9, 42, 90
2, 82224, Note_off_c, 9, 42, 64
2, 82224, Note_on_c, 9, 42, 90
2, 82272, Note_off_c, 9, 42, 64
2, 82272, Note_on_c, 9, 42, 90
2, 82320, Note_off_c, 9, 42, 64
2, 82320, Note_on_c, 9, 42, 90
2, 82368, Note_off_c, 9, 42, 64
2, 82368, Note_on_c, 9, 42, 90
2, 82416, Note_off_c, 9, 42, 64
2, 82416, Note_on_c, 9, 38, 127
2, 82416, Note_on_c, 9, 42, 90
2, 82464, Note_off_c, 9, 38, 64
2, 82464, Note_off_c, 9, 42, 64
2, 82464, Note_on_c, 9, 38, 127
2, 82464, Note_on_c, 9, 42, 90
2, 82512, Note_off_c, 9, 38, 64
2, 82512, Note_off_c, 9, 42, 64
2, 82512, Note_on_c, 9, 42, 90
2, 82560, Note_off_c, 9, 42, 64
2, 82560, Note_on_c, 9, 42, 90
2, 82608, Note_off_c, 9, 42, 64
2, 82608, Note_on_c, 9, 42, 90
2, 82656, Note_off_c, 9, 42, 64
2, 82656, Note_on_c, 9, 42, 90
2, 82704, Note_off_c, 9, 42, 64
2, 82704, Note_on_c, 9, 42, 90
2, 82752, Note_off_c, 9, 42, 64
2, 82752, Note_on_c, 9, 38, 127
2, 82752, Note_on_c, 9, 42, 90
2, 82800, Note_off_c, 9, 38, 64
2, 82800, Note_off_c, 9, 42, 64
2, 82800, Note_on_c, 9, 38, 127
2, 82800, Note_on_c, 9, 42, 90
2, 82848, Note_off_c, 9, 38, 64
2, 82848, Note_off_c, 9, 42, 64
2, 82848, Note_on_c, 9, 38, 127
2, 82848, Note_on_c, 9, 42, 90
2, 82896, Note_off_c, 9, 38, 64
2, 82896, Note_off_c, 9, 42, 64
2, 82896, Note_on_c, 9, 42, 90
2, 82944, Note_off_c, 9, 42, 64
2, 82944, Note_on_c, 9, 42, 90
2, 82992, Note_off_c, 9, 42, 64
2, 82992, Note_on_c, 9, 42, 90
2, 83040, Note_off_c, 9, 42, 64
2, 83040, Note_on_c, 9, 42, 90
2, 83088, Note_off_c, 9, 42, 64
2, 83088, Note_on_c, 9, 42, 90
2, 83136, Note_off_c, 9, 42, 64
2, 83136, Note_on_c, 9, 42, 90
2, 83184, Note_off_c, 9, 42, 64
2, 83184, Note_on_c, 9, 42, 90
2, 83232, Note_off_c, 9, 42, 64
2, 83232, Note_on_c, 9, 38, 127
2, 83232, Note_on_c, 9, 42, 90
2, 83280, Note_off_c, 9, 38, 64
2, 83280, Note_off_c, 9, 42, 64
2, 83280, Note_on_c, 9, 42, 90
2, 83328, Note_off_c, 9, 42, 64
2, 83328, Note_on_c, 9, 42, 90
2, 83376, Note_off_c, 9, 42, 64
2, 83376, Note_on_c, 9, 42, 90
2, 83424, Note_off_c, 9, 42, 64
2, 83424, Note_on_c, 9, 42, 90
2, 83472, Note_off_c, 9, 42, 64
2, 83472, Note_on_c, 9, 42, 90
2, 83520, Note_off_c, 9, 42, 64
2, 83520, Note_on_c, 9, 42, 90
2, 83568, Note_off_c, 9, 42, 64
2, 83568, Note_on_c, 9, 42, 90
2, 83616, Note_off_c, 9, 42, 64
2, 83616, Note_on_c, 9, 38, 127
2, 83616, Note_on_c, 9, 42, 90
2, 83664, Note_off_c, 9, 38, 64
2, 83664, Note_off_c, 9, 42, 64
2, 83664, Note_on_c, 9, 42, 90
2, 83712, Note_off_c, 9, 42, 64
2, 83712, Note_on_c, 9, 42, 90
2, 83760, Note_off_c, 9, 42, 64
2, 83760, Note_on_c, 9, 42, 90
2, 83808, Note_off_c, 9, 42, 64
2, 83808, Note_on_c, 9, 42, 90
2, 83856, Note_off_c, 9, 42, 64
2, 83856, Note_on_c, 9, 42, 90
2, 83904, Note_off_c, 9, 42, 64
2, 83904, Note_on_c, 9, 42, 90
2, 83952, Note_off_c, 9, 42, 64
2, 83952, Note_on_c, 9, 38, 127
2, 83952, Note_on_c, 9, 42, 90
2, 84000, Note_off_c, 9, 38, 64
2, 84000, Note_off_c, 9, 42, 64
2, 84000, Note_on_c, 9, 38, 127
2, 84000, Note_on_c, 9, 42, 90
2, 84048, Note_off_c, 9, 38, 64
2, 84048, Note_off_c, 9, 42, 64
2, 84048, Note_on_c, 9, 42, 90
2, 84096, Note_off_c, 9, 42, 64
2, 84096, Note_on_c, 9, 42, 90
2, 84144, Note_off_c, 9, 42, 64
2, 84144, Note_on_c, 9, 42, 90
2, 84192, Note_off_c, 9, 42, 64
2, 84192, Note_on_c, 9, 42, 90
2, 84240, Note_off_c, 9, 42, 64
2, 84240, Note_on_c, 9, 42, 90
2, 84288, Note_off_c, 9, 42, 64
2, 84288, Note_on_c, 9, 42, 90
2, 84336, Note_off_c, 9, 42, 64
2, 84336, Note_on_c, 9, 38, 127
2, 84336, Note_on_c, 9, 42, 90
2, 84384, Note_off_c, 9, 38, 64
2, 84384, Note_off_c, 9, 42, 64
2, 84384, Note_on_c, 9, 38, 127
2, 84384, Note_on_c, 9, 42, 90
2, 84432, Note_off_c, 9, 38, 64
2, 84432, Note_off_c, 9, 42, 64
2, 84432, Note_on_c, 9, 42, 90
2, 84480, Note_off_c, 9, 42, 64
2, 84480, Note_on_c, 9, 42, 90
2, 84528, Note_off_c, 9, 42, 64
2, 84528, Note_on_c, 9, 42, 90
2, 84576, Note_off_c, 9, 42, 64
2, 84576, Note_on_c, 9, 42, 90
2, 84624, Note_off_c, 9, 42, 64
2, 84624, Note_on_c, 9, 42, 90
2, 84672, Note_off_c, 9, 42, 64
2, 84672, Note_on_c, 9, 42, 90
2, 84720, Note_off_c, 9, 42, 64
2, 84720, Note_on_c, 9, 42, 90
2, 84768, Note_off_c, 9, 42, 64
2, 84768, Note_on_c, 9, 38, 127
2, 84768, Note_on_c, 9, 42, 90
2, 84816, Note_off_c, 9, 38, 64
2, 84816, Note_off_c, 9, 42, 64
2, 84816, Note_on_c, 9, 42, 90
2, 84864, Note_off_c, 9, 42, 64
2, 84864, Note_on_c, 9, 42, 90
2, 84912, Note_off_c, 9, 42, 64
2, 84912, Note_on_c, 9, 42, 90
2, 84960, Note_off_c, 9, 42, 64
2, 84960, Note_on_c, 9, 42, 90
2, 85008, Note_off_c, 9, 42, 64
2, 85008, Note_on_c, 9, 42, 90
2, 85056, Note_off_c, 9, 42, 64
2, 85056, Note_on_c, 9, 42, 90
2, 85104, Note_off_c, 9, 42, 64
2, 85104, Note_on_c, 9, 42, 90
2, 85152, Note_off_c, 9, 42, 64
2, 85152, Note_on_c, 9, 38, 127
2, 85152, Note_on_c, 9, 42, 90
2, 85200, Note_off_c, 9, 38, 64
2, 85200, Note_off_c, 9, 42, 64
2, 85200, Note_on_c, 9, 42, 90
2, 85248, Note_off_c, 9, 42, 64
2, 85248, Note_on_c, 9, 42, 90
2, 85296, Note_off_c, 9, 42, 64
2, 85296, Note_on_c, 9, 42, 90
2, 85344, Note_off_c, 9, 42, 64
2, 85344, Note_on_c, 9, 42, 90
2, 85392, Note_off_c, 9, 42, 64
2, 85392, Note_on_c, 9, 42, 90
2, 85440, Note_off_c, 9, 42, 64
2, 85440, Note_on_c, 9, 42, 90
2, 85488, Note_off_c, 9, 42, 64
2, 85488, Note_on_c, 9, 38, 127
2, 85488, Note_on_c, 9, 42, 90
2, 85536, Note_off_c, 9, 38, 64
2, 85536, Note_off_c, 9, 42, 64
2, 85536, Note_on_c, 9, 38, 127
2, 85536, Note_on_c, 9, 42, 90
2, 85584, Note_off_c, 9, 38, 64
2, 85584, Note_off_c, 9, 42, 64
2, 85584, Note_on_c, 9, 42, 90
2, 85632, Note_off_c, 9, 42, 64
2, 85632, Note_on_c, 9, 42, 90
2, 85680, Note_off_c, 9, 42, 64
2, 85680, Note_on_c, 9, 42, 90
2, 85728, Note_off_c, 9, 42, 64
2, 85728, Note_on_c, 9, 42, 90
2, 85776, Note_off_c, 9, 42, 64
2, 85776, Note_on_c, 9, 42, 90
2, 85824, Note_off_c, 9, 42, 64
2, 85824, Note_on_c, 9, 38, 127
2, 85824, Note_on_c, 9, 42, 90
2, 85872, Note_off_c, 9, 38, 64
2, 85872, Note_off_c, 9, 42, 64
2, 85872, Note_on_c, 9, 38, 127
2, 85872, Note_on_c, 9, 42, 90
2, 85920, Note_off_c, 9, 38, 64
2, 85920, Note_off_c, 9, 42, 64
2, 85920, Note_on_c, 9, 38, 127
2, 85920, Note_on_c, 9, 42, 90
2, 85968, Note_off_c, 9, 38, 64
2, 85968, Note_off_c, 9, 42, 64
2, 85968, Note_on_c, 9, 42, 90
2, 86016, Note_off_c, 9, 42, 64
2, 86016, Note_on_c, 9, 42, 90
2, 86064, Note_off_c, 9, 42, 64
2, 86064, Note_on_c, 9, 42, 90
2, 86112, Note_off_c, 9, 42, 64
2, 86112, Note_on_c, 9, 42, 90
2, 86160, Note_off_c, 9, 42, 64
2, 86160, Note_on_c, 9, 42, 90
2, 86208, Note_off_c, 9, 42, 64
2, 86208, Note_on_c, 9, 42, 90
2, 86256, Note_off_c, 9, 42, 64
2, 86256, Note_on_c, 9, 42, 90
2, 86304, Note_off_c, 9, 42, 64
2, 86304, Note_on_c, 9, 38, 127
2, 86304, Note_on_c, 9, 42, 90
2, 86352, Note_off_c, 9, 38, 64
2, 86352, Note_off_c, 9, 42, 64
2, 86352, Note_on_c, 9, 42, 90
2, 86400, Note_off_c, 9, 42, 64
2, 86400, Note_on_c, 9, 42, 90
2, 86448, Note_off_c, 9, 42, 64
2, 86448, Note_on_c, 9, 42, 90
2, 86496, Note_off_c, 9, 42, 64
2, 86496, Note_on_c, 9, 42, 90
2, 86544, Note_off_c, 9, 42, 64
2, 86544, Note_on_c, 9, 42, 90
2, 86592, Note_off_c, 9, 42, 64
2, 86592, Note_on_c, 9, 42, 90
2, 86640, Note_off_c, 9, 42, 64
2, 86640, Note_on_c, 9, 38, 127
2, 86640, Note_on_c, 9, 42, 90
2, 86688, Note_off_c, 9, 38, 64
2, 86688, Note_off_c, 9, 42, 64
2, 86688, Note_on_c, 9, 38, 127
2, 86688, Note_on_c, 9, 42, 90
2, 86736, Note_off_c, 9, 38, 64
2, 86736, Note_off_c, 9, 42, 64
2, 86736, Note_on_c, 9, 42, 90
2, 86784, Note_off_c, 9, 42, 64
2, 86784, Note_on_c, 9, 42, 90
2, 86832, Note_off_c, 9, 42, 64
2, 86832, Note_on_c, 9, 42, 90
2, 86880, Note_off_c, 9, 42, 64
2, 86880, Note_on_c, 9, 42, 90
2, 86928, Note_off_c, 9, 42, 64
2, 86928, Note_on_c, 9, 42, 90
2, 86976, Note_off_c, 9, 42, 64
2, 86976, Note_on_c, 9, 42, 90
2, 87024, Note_off_c, 9, 42, 64
2, 87024, Note_on_c, 9, 38, 127
2, 87024, Note_on_c, 9, 42, 90
2, 87072, Note_off_c, 9, 38, 64
2, 87072, Note_off_c, 9, 42, 64
2, 87072, Note_on_c, 9, 38, 127
2, 87072, Note_on_c, 9, 42, 90
2, 87120, Note_off_c, 9, 38, 64
2, 87120, Note_off_c, 9, 42, 64
2, 87120, Note_on_c, 9, 42, 90
2, 87168, Note_off_c, 9, 42, 64
2, 87168, Note_on_c, 9, 42, 90
2, 87216, Note_off_c, 9, 42, 64
2, 87216, Note_on_c, 9, 42, 90
2, 87264, Note_off_c, 9, 42, 64
2, 87264, Note_on_c, 9, 42, 90
2, 87312, Note_off_c, 9, 42, 64
2, 87312, Note_on_c, 9, 42, 90
2, 87360, Note_off_c, 9, 42, 64
2, 87360, Note_on_c, 9, 38, 127
2, 87360, Note_on_c, 9, 42, 90
2, 87408, Note_off_c, 9, 38, 64
2, 87408, Note_off_c, 9, 42, 64
2, 87408, Note_on_c, 9, 38, 127
2, 87408, Note_on_c, 9, 42, 90
2, 87456, Note_off_c, 9, 38, 64
2, 87456, Note_off_c, 9, 42, 64
2, 87456, Note_on_c, 9, 38, 127
2, 87456, Note_on_c, 9, 42, 90
2, 87504, Note_off_c, 9, 38, 64
2, 87504, Note_off_c, 9, 42, 64
2, 87504, Note_on_c, 9, 42, 90
2, 87552, Note_off_c, 9, 42, 64
2, 87552, Note_on_c, 9, 42, 90
2, 87600, Note_off_c, 9, 42, 64
2, 87600, Note_on_c, 9, 42, 90
2, 87648, Note_off_c, 9, 42, 64
2, 87648, Note_on_c, 9, 42, 90
2, 87696, Note_off_c, 9, 42, 64
2, 87696, Note_on_c, 9, 42, 90
2, 87744, Note_off_c, 9, 42, 64
2, 87744, Note_on_c, 9, 42, 90
2, 87792, Note_off_c, 9, 42, 64
2, 87792, Note_on_c, 9, 42, 90
2, 87840, Note_off_c, 9, 42, 64
2, 87840, Note_on_c, 9, 38, 127
2, 87840, Note_on_c, 9, 42, 90
2, 87888, Note_off_c, 9, 38, 64
2, 87888, Note_off_c, 9, 42, 64
2, 87888, Note_on_c, 9, 42, 90
2, 87936, Note_off_c, 9, 42, 64
2, 87936, Note_on_c, 9, 42, 90
2, 87984, Note_off_c, 9, 42, 64
2, 87984, Note_on_c, 9, 42, 90
2, 88032, Note_off_c, 9, 42, 64
2, 88032, Note_on_c, 9, 42, 90
2, 88080, Note_off_c, 9, 42, 64
2, 88080, Note_on_c, 9, 42, 90
2, 88128, Note_off_c, 9, 42, 64
2, 88128, Note_on_c, 9, 42, 90
2, 88176, Note_off_c, 9, 42, 64
2, 88176, Note_on_c, 9, 42, 90
2, 88224, Note_off_c, 9, 42, 64
2, 88224, Note_on_c, 9, 38, 127
2, 88224, Note_on_c, 9, 42, 90
2, 88272, Note_off_c, 9, 38, 64
2, 88272, Note_off_c, 9, 42, 64
2, 88272, Note_on_c, 9, 42, 90
2, 88320, Note_off_c, 9, 42, 64
2, 88320, Note_on_c, 9, 42, 90
2, 88368, Note_off_c, 9, 42, 64
2, 88368, Note_on_c, 9, 42, 90
2, 88416, Note_off_c, 9, 42, 64
2, 88416, Note_on_c, 9, 42, 90
2, 88464, Note_off_c, 9, 42, 64
2, 88464, Note_on_c, 9, 42, 90
2, 88512, Note_off_c, 9, 42, 64
2, 88512, Note_on_c, 9, 42, 90
2, 88560, Note_off_c, 9, 42, 64
2, 88560, Note_on_c, 9, 38, 127
2, 88560, Note_on_c, 9, 42, 90
2, 88608, Note_off_c, 9, 38, 64
2, 88608, Note_off_c, 9, 42, 64
2, 88608, Note_on_c, 9, 38, 127
2, 88608, Note_on_c, 9, 42, 90
2, 88656, Note_off_c, 9, 38, 64
2, 88656, Note_off_c, 9, 42, 64
2, 88656, Note_on_c, 9, 42, 90
2, 88704, Note_off_c, 9, 42, 64
2, 88704, Note_on_c, 9, 42, 90
2, 88752, Note_off_c, 9, 42, 64
2, 88752, Note_on_c, 9, 42, 90
2, 88800, Note_off_c, 9, 42, 64
2, 88800, Note_on_c, 9, 42, 90
2, 88848, Note_off_c, 9, 42, 64
2, 88848, Note_on_c, 9, 42, 90
2, 88896, Note_off_c, 9, 42, 64
2, 88896, Note_on_c, 9, 38, 127
2, 88896, Note_on_c, 9, 42, 90
2, 88944, Note_off_c, 9, 38, 64
2, 88944, Note_off_c, 9, 42, 64
2, 88944, Note_on_c, 9, 38, 127
2, 88944, Note_on_c, 9, 42, 90
2, 88992, Note_off_c, 9, 38, 64
2, 88992, Note_off_c, 9, 42, 64
2, 88992, Note_on_c, 9, 38, 127
2, 88992, Note_on_c, 9, 42, 90
2, 89040, Note_off_c, 9, 38, 64
2, 89040, Note_off_c, 9, 42, 64
2, 89040, Note_on_c, 9, 42, 90
2, 89088, Note_off_c, 9, 42, 64
